<svg xmlns="http://www.w3.org/2000/svg" width="172.72" height="132" viewBox="0 0 172.72 132">
  <defs>
    <style>
      .cls-1 {
        fill: #1a0f0a;
        fill-rule: evenodd;
      }
    </style>
  </defs>
  <path id="edward-juuksestuudio-logo" class="cls-1" d="M1898.87,1366.02a1.308,1.308,0,0,1,.4.83c0.01,0.12.01,0.24,0.01,0.36a0.66,0.66,0,0,1-.01.14c-0.01.69-.07,1.37-0.12,2.06-0.02.21-.03,0.42-0.05,0.63-0.03.37-.05,0.74-0.08,1.1l-0.12,1.62c-0.07.94-.15,1.89-0.22,2.83-0.06.82-.12,1.63-0.18,2.45a0.86,0.86,0,0,0-.01.16c-0.02.22-.04,0.44-0.05,0.65-0.4,5.19-.79,10.38-1.2,15.73-0.01.16-.03,0.31-0.04,0.47-0.03.42-.06,0.85-0.1,1.27-0.01.16-.02,0.32-0.03,0.49-0.01.1-.02,0.21-0.03,0.32,0,0.06-.01.13-0.01,0.19s-0.01.11-.02,0.17v0.24a0.974,0.974,0,0,1,.11.05l0.04-.1a1.7,1.7,0,0,1,.23-0.3c0.03-.04.07-0.07,0.1-0.11a1.1,1.1,0,0,0,.1-0.11c0.07-.07.14-0.15,0.21-0.22l0.11-.11c0.13-.14.25-0.28,0.38-0.43,0.23-.27.47-0.53,0.71-0.79,0.19-.21.38-0.42,0.56-0.63,0.27-.31.54-0.61,0.82-0.91,0.18-.21.37-0.42,0.55-0.63,0.2-.23.41-0.45,0.61-0.68a6.142,6.142,0,0,0,.42-0.47c0.24-.27.48-0.54,0.72-0.8,0.19-.21.38-0.42,0.56-0.63,0.27-.31.54-0.61,0.82-0.91,0.18-.21.37-0.42,0.56-0.63,0.26-.31.54-0.61,0.81-0.91,0.19-.21.38-0.42,0.56-0.63,0.27-.31.54-0.61,0.81-0.91,0.19-.21.38-0.41,0.56-0.62,0.2-.24.41-0.46,0.61-0.69,0.14-.15.28-0.31,0.42-0.47,0.24-.27.48-0.54,0.72-0.8,0.19-.21.38-0.42,0.56-0.63,0.27-.31.54-0.61,0.82-0.91,0.18-.21.37-0.42,0.56-0.63,0.26-.31.54-0.61,0.81-0.91,0.19-.21.37-0.42,0.56-0.63,0.27-.31.54-0.61,0.81-0.91,0.19-.21.38-0.42,0.56-0.63,0.27-.3.54-0.61,0.82-0.91,0.19-.21.37-0.41,0.56-0.63,0.26-.3.54-0.6,0.81-0.91,0.19-.2.38-0.41,0.56-0.62,0.27-.31.54-0.61,0.82-0.92a1.741,1.741,0,0,0,.12-0.14,1.593,1.593,0,0,0,.13-0.13c0.12-.15.25-0.29,0.37-0.44a0.681,0.681,0,0,1,.45-0.21,0.672,0.672,0,0,1,.45.24,1.684,1.684,0,0,1-.14,1.3c-0.04.08-.04,0.08-0.08,0.17l-0.09.18c-0.07.13-.13,0.26-0.2,0.4-0.1.22-.21,0.44-0.32,0.66l-0.45.93c-0.17.35-.34,0.71-0.51,1.06-0.26.55-.53,1.1-0.8,1.65-0.23.49-.47,0.98-0.71,1.48-0.36.75-.72,1.5-1.09,2.24-0.24.51-.48,1.01-0.73,1.51a2.4,2.4,0,0,1-.11.23,0.974,0.974,0,0,1-.05.11l-0.33.69c-0.04.08-.08,0.15-0.12,0.23-0.09.19-.18,0.39-0.28,0.58-0.17.35-.34,0.7-0.5,1.05-0.03.06-.06,0.12-0.09,0.19-0.05.11-.1,0.22-0.15,0.34a5.984,5.984,0,0,1-1.35,1.62c-0.06.06-.12,0.12-0.18,0.19-0.17.16-.34,0.33-0.51,0.5l-0.54.54-0.94.94c-0.46.46-.91,0.91-1.37,1.36-0.73.74-1.47,1.48-2.21,2.21a1.593,1.593,0,0,1-.13.13c-0.63.63-1.25,1.26-1.88,1.88l-0.13.13-0.14.14-2.2,2.2c-0.46.45-.91,0.9-1.36,1.36l-0.93.93c-0.18.18-.36,0.35-0.54,0.53-0.16.17-.33,0.33-0.49,0.49l-0.18.18-0.24.24a1.848,1.848,0,0,1-.14.14,1.212,1.212,0,0,0-.27.8c0,0.05-.01.1-0.01,0.14-0.05.52-.09,1.04-0.13,1.57-0.01.1-.02,0.21-0.03,0.32l-0.06.87c-0.02.3-.05,0.61-0.07,0.91-0.04.51-.08,1.02-0.11,1.53-0.05.59-.09,1.18-0.14,1.77-0.04.56-.08,1.13-0.12,1.7l-0.06.72c-0.02.29-.04,0.57-0.06,0.86-0.01.1-.02,0.2-0.03,0.31l-0.03.42a0.57,0.57,0,0,1-.01.13c-0.01.22-.02,0.43-0.02,0.65,0.19-.06.38-0.13,0.57-0.2a9.816,9.816,0,0,1,1.9-.62l0.14-.03a6.428,6.428,0,0,1,1.31-.1h0.12a7.591,7.591,0,0,1,4.92,1.72,1.738,1.738,0,0,1,.15.13,7.794,7.794,0,0,1,.65,11.15,6.057,6.057,0,0,1-.75.68l-0.54.45c-0.26.23-.52,0.45-0.8,0.66a5.266,5.266,0,0,0-.74.67,0.9,0.9,0,0,0-.09.1c-0.1.11-.2,0.22-0.3,0.34-0.04.05-.09,0.1-0.14,0.16a15.362,15.362,0,0,0-1.35,1.85,0.53,0.53,0,0,1-.27.3h-2.2a0.531,0.531,0,0,1,.05-0.46,3.479,3.479,0,0,0,.28-1.74,1.478,1.478,0,0,0-.93-0.74,0.612,0.612,0,0,1-.12-0.05c-0.25-.1-0.5-0.19-0.76-0.28a6.764,6.764,0,0,1-2.47-1.57c-0.05-.04-0.1-0.09-0.15-0.13a7.98,7.98,0,0,1-2.27-5.64c-0.01-.26-0.01-0.52-0.01-0.77v-0.12c0.01-1.12.03-2.24,0.05-3.35,0.01-.67.03-1.34,0.04-2v-0.33c0.03-1.66.06-3.32,0.08-4.98,0-.1.01-0.21,0.01-0.32l0.03-2.49c0.01-.6.02-1.2,0.03-1.79v-0.13c0-.2.01-0.41,0.01-0.62,0.01-.41.01-0.83,0.02-1.25v-0.13c0.02-.98.03-1.96,0.04-2.94a0.487,0.487,0,0,1,.01-0.12c0-.35.01-0.69,0.01-1.04,0.02-1,.03-2,0.04-3,0-.04.01-0.08,0.01-0.13,0.01-.98.02-1.97,0.04-2.95v-0.13c0.01-.41.01-0.83,0.02-1.25,0.01-.88.03-1.76,0.04-2.64,0.01-.64.02-1.29,0.03-1.93,0-.34.01-0.69,0.01-1.03,0-.13,0-0.26.01-0.39v-0.19c0.01-.48.01-0.97,0.02-1.45,0.01-.39.01-0.77,0.02-1.15,0-.27,0-0.54.01-0.81v-0.38c0.03-2.99,1.13-5.76,2.14-8.54,0.15-.41.3-0.82,0.44-1.23,0.52-1.45,1.06-2.89,1.6-4.34,0.01-.03.03-0.07,0.04-0.11a0.358,0.358,0,0,0,.04-0.11,1.173,1.173,0,0,0,.05-0.11,1.8,1.8,0,0,1,.08-0.21c0.16-.44.33-0.89,0.49-1.33a0.5,0.5,0,0,1,.05-0.13c0.07-.2.14-0.39,0.21-0.59a10.694,10.694,0,0,1,.45-1.05,0.467,0.467,0,0,1,.05-0.1C1898.35,1365.97,1898.35,1365.97,1898.87,1366.02Zm-2.19,55.99a4.681,4.681,0,0,0-.87,3.49,4.4,4.4,0,0,0,1.69,2.72,4.58,4.58,0,0,0,3.44.76,4.469,4.469,0,0,0,2.82-1.89c0.06-.1.12-0.2,0.17-0.3l0.08-.14a4.418,4.418,0,0,0,.23-3.31,4.371,4.371,0,0,0-.92-1.55c-0.04-.05-0.04-0.05-0.09-0.11a4.558,4.558,0,0,0-2.99-1.33A4.469,4.469,0,0,0,1896.68,1422.01Zm102.48-55.93a1.01,1.01,0,0,1,.52.59,1.173,1.173,0,0,0,.05.11c0.16,0.37.3,0.74,0.44,1.12,0.03,0.07.05,0.15,0.08,0.22,0.07,0.2.15,0.39,0.22,0.59s0.15,0.41.23,0.61c0.14,0.38.27,0.75,0.41,1.13s0.29,0.77.44,1.16c0.24,0.67.49,1.33,0.73,1.99,0.08,0.22.16,0.43,0.24,0.65,0.35,0.94.7,1.89,1.05,2.83,0.03,0.1.03,0.1,0.07,0.21,0.13,0.33.25,0.67,0.38,1.01,0.21,0.58.42,1.15,0.64,1.73,0.03,0.09.06,0.18,0.1,0.27,0.06,0.15.12,0.31,0.18,0.46a11.337,11.337,0,0,1,.5,4.05c0.01,0.21.01,0.42,0.01,0.63,0,0.36.01,0.73,0.01,1.09,0.01,0.98.03,1.96,0.04,2.94v0.15q0.045,3.645.11,7.28c0.01,0.32.01,0.63,0.02,0.94,0.01,0.49.01,0.99,0.02,1.48,0.01,0.18.01,0.36,0.01,0.54l0.03,1.35c0,0.25.01,0.51,0.01,0.76,0,0.18.01,0.36,0.01,0.53v0.25a1.866,1.866,0,0,0,.35,1.3,0.647,0.647,0,0,1,.09.08,3.684,3.684,0,0,1,.39.4c0.15,0.18.31,0.36,0.47,0.53l0.57,0.63c0.19,0.23.39,0.44,0.59,0.66,0.47,0.52.47,0.52,0.68,0.77,0.16,0.18.31,0.35,0.47,0.52,0.19,0.21.38,0.42,0.56,0.64l0.6,0.66c0.47,0.52.47,0.52,0.68,0.76,0.15,0.18.31,0.35,0.47,0.53,0.19,0.21.38,0.42,0.56,0.63,0.2,0.22.4,0.44,0.59,0.66,0.3,0.33.59,0.65,0.88,0.99,0.08,0.08.15,0.16,0.22,0.24l0.17,0.2a1.608,1.608,0,0,0,.26-0.46,0.784,0.784,0,0,1,.05-0.14c0.02-.05.03-0.1,0.05-0.15a7.759,7.759,0,0,1,3.94-4.4,8.282,8.282,0,0,1,6.26-.25,7.733,7.733,0,0,1,4.89,8.05,16.173,16.173,0,0,0,.1,4.66c0.01,0.04.02,0.09,0.03,0.14a7.994,7.994,0,0,0,1.56,3.59c0.05,0.06.09,0.11,0.14,0.16a6.443,6.443,0,0,0,3.44,1.93c1.18,0.32,1.18.32,1.42,0.6a1.271,1.271,0,0,1,0,.39,4.209,4.209,0,0,1-3.16.07,8.367,8.367,0,0,1-3.6-2.05l-0.14-.14a6.079,6.079,0,0,1-1.19-2.04,3.614,3.614,0,0,0-1.13-1.61,1.757,1.757,0,0,0-1.42.28,7.729,7.729,0,0,1-2.12.78c-0.05.01-.1,0.01-0.15,0.02a7.636,7.636,0,0,1-5.66-1.01,14.786,14.786,0,0,1-1.43-1.19c-0.12-.1-0.24-0.21-0.36-0.31-0.29-.25-0.56-0.53-0.83-0.8l-0.17-.17-0.38-.38c-0.19-.19-0.39-0.39-0.58-0.59-0.45-.45-0.91-0.9-1.36-1.35-0.41-.42-0.82-0.83-1.24-1.25l-0.58-.58c-0.12-.12-0.24-0.24-0.36-0.37-0.06-.05-0.12-0.11-0.17-0.16-0.36-.36-0.36-0.36-0.73-0.7-0.28-.24-0.55-0.51-0.82-0.78-0.05-.06-0.11-0.12-0.17-0.18-0.13-.12-0.25-0.25-0.38-0.38-0.2-.2-0.4-0.4-0.6-0.59-0.42-.43-0.84-0.85-1.26-1.27-0.46-.46-0.92-0.92-1.37-1.38-0.2-.19-0.4-0.39-0.6-0.59-0.12-.13-0.24-0.25-0.37-0.37a1.365,1.365,0,0,0-.17-0.17c-0.07-.08-0.15-0.16-0.23-0.24l-0.13-.13a0.459,0.459,0,0,0-.22-0.15v-0.11a0.355,0.355,0,0,0-.09-0.04,1.523,1.523,0,0,1-.37-0.3l-0.14-.14c-0.05-.05-0.1-0.11-0.15-0.16s-0.11-.11-0.17-0.16c-0.12-.12-0.24-0.24-0.35-0.36l-0.57-.57-0.89-.89c-0.53-.53-1.06-1.07-1.59-1.6-0.19-.18-0.37-0.37-0.56-0.56-0.12-.11-0.23-0.23-0.35-0.35l-0.24-.24c-0.24-.24-0.48-0.47-0.74-0.69-0.21-.19-0.42-0.4-0.62-0.61a2.5,2.5,0,0,1-.23-0.23c-0.08-.08-0.16-0.16-0.25-0.24l-0.51-.51c-0.39-.4-0.78-0.79-1.17-1.18l-1.08-1.08c-0.17-.17-0.34-0.34-0.5-0.51l-0.24-.24c-0.1-.1-0.2-0.19-0.29-0.29q-0.345-.345-0.72-0.66c-0.18-.16-0.35-0.34-0.52-0.51a1.2,1.2,0,0,1-.12-0.11c-0.13-.13-0.26-0.26-0.38-0.39a1.661,1.661,0,0,1-.14-0.13c-0.23-.24-0.47-0.47-0.7-0.7l-0.72-.72c-0.19-.19-0.38-0.37-0.56-0.56l-0.27-.27a13.528,13.528,0,0,1-1.42-1.6,1.47,1.47,0,0,1-.1-0.13,31.39,31.39,0,0,1-2.95-5.4c-0.23-.49-0.47-0.97-0.71-1.45-0.28-.55-0.56-1.11-0.82-1.67-0.17-.36-0.35-0.72-0.52-1.07-0.04-.08-0.04-0.08-0.07-0.15a3.013,3.013,0,0,0-.16-0.31c-0.41-.84-0.81-1.67-1.2-2.52l-0.39-.84c-0.06-.12-0.12-0.24-0.17-0.37-0.04-.07-0.08-0.15-0.12-0.23-0.49-1.03-.49-1.03-0.42-1.57a0.532,0.532,0,0,1,.27-0.22,1.627,1.627,0,0,1,1.1.48,16.581,16.581,0,0,1,1.15,1.22l0.24,0.27a1.661,1.661,0,0,1,.13.14,1.661,1.661,0,0,0,.13.14c0.26,0.29.52,0.58,0.78,0.88,0.19,0.22.39,0.44,0.59,0.66,0.26,0.29.52,0.58,0.78,0.88l0.6,0.66c0.47,0.52.47,0.52,0.68,0.76,0.15,0.18.31,0.36,0.47,0.53,0.19,0.21.38,0.42,0.56,0.63,0.2,0.22.39,0.44,0.59,0.66,0.47,0.52.47,0.52,0.69,0.77,0.15,0.17.31,0.35,0.47,0.52,0.19,0.21.37,0.42,0.56,0.63s0.39,0.44.59,0.66c0.26,0.29.52,0.58,0.78,0.88,0.2,0.22.4,0.44,0.59,0.66,0.13,0.14.25,0.28,0.38,0.41a3.329,3.329,0,0,0,.25.28l0.65,0.74c0.19,0.22.39,0.44,0.59,0.66,0.27,0.29.53,0.58,0.78,0.88l0.6,0.66c0.47,0.52.47,0.52,0.68,0.76s0.41,0.46.61,0.69c0.14,0.15.28,0.31,0.42,0.47,0.12,0.14.25,0.28,0.37,0.41,0.19,0.21.38,0.42,0.56,0.63,0.13,0.14.25,0.28,0.38,0.42,0.19,0.21.38,0.42,0.56,0.63,0.2,0.22.39,0.44,0.59,0.66,0.47,0.52.47,0.52,0.69,0.76,0.2,0.24.4,0.46,0.61,0.69,0.14,0.15.28,0.31,0.41,0.47,0.18,0.19.35,0.38,0.53,0.57a3.151,3.151,0,0,1,.24.3,0.352,0.352,0,0,0,.27.18c0-.05-0.01-0.1-0.01-0.15-0.41-5.09-.8-10.19-1.2-15.29-0.02-.35-0.05-0.69-0.08-1.04a0.448,0.448,0,0,0-.01-0.11c-0.09-1.25-.19-2.49-0.29-3.74-0.1-1.29-.2-2.59-0.3-3.88-0.06-.83-0.13-1.66-0.19-2.48-0.04-.54-0.08-1.08-0.13-1.62-0.02-.31-0.04-0.62-0.07-0.93-0.02-.29-0.04-0.57-0.06-0.86l-0.03-.3-0.03-.42c0-.04-0.01-0.08-0.01-0.12a1.555,1.555,0,0,1,.1-0.71A0.746,0.746,0,0,1,1999.16,1366.08Zm20.16,45.16-0.1.1a4.164,4.164,0,0,0-1.29,2.76,4.431,4.431,0,0,0,1.12,3.3,1,1,0,0,0,.1.11,4.242,4.242,0,0,0,1.77,1.1,0.88,0.88,0,0,1,.15.05,4.475,4.475,0,0,0,3.29-.38,6.2,6.2,0,0,0,.84-0.61c0.04-.03.07-0.06,0.11-0.09a4.244,4.244,0,0,0,1.28-2.68c0.01-.14.01-0.28,0.01-0.42v-0.15a4.594,4.594,0,0,0-.24-1.33,0.88,0.88,0,0,1-.05-0.15,4.488,4.488,0,0,0-2.2-2.34A4.394,4.394,0,0,0,2019.32,1411.24Zm-70.2-41.07a0.615,0.615,0,0,0,.13-0.01,0.713,0.713,0,0,1,.4.31,4.045,4.045,0,0,1,.2.48,0.694,0.694,0,0,1,.05.13,1.688,1.688,0,0,1,.04,1.39,1.669,1.669,0,0,1-.34.45c-0.02.03-.04,0.05-0.06,0.08,0.02,0.05.03,0.11,0.05,0.16,1.32-.26,2.63-0.55,3.93-0.84,0.31-.06.62-0.13,0.93-0.2,0.04-.01.08-0.02,0.13-0.03l0.54-.12,1.51-.33c0.41-.1.82-0.19,1.23-0.28,0.21-.04.43-0.09,0.64-0.14a6.274,6.274,0,0,1,2.47-.32c0.17,0.02.35,0.02,0.52,0.03,0.13,0,.27.01,0.4,0.02a1.62,1.62,0,0,1,.22.01c0.14,0,.29.01,0.44,0.02l0.57,0.03c0.18,0.01.36,0.02,0.55,0.02a1.275,1.275,0,0,0,.2.01c0.19,0.01.37,0.02,0.56,0.04a1.275,1.275,0,0,1,.19.01,1.028,1.028,0,0,1,.17.01,0.86,0.86,0,0,1,.16.01,0.625,0.625,0,0,1,.47.3,0.934,0.934,0,0,1,0,.44,0.754,0.754,0,0,1-.52.3,1.163,1.163,0,0,1-.18.04c-0.3.06-.61,0.12-0.92,0.16-0.14.03-.28,0.05-0.42,0.07-0.22.04-.44,0.07-0.66,0.11s-0.42.07-.64,0.1c-0.06.01-.12,0.02-0.19,0.03a2.9,2.9,0,0,0-1.14.45c-0.04.02-.08,0.05-0.13,0.08-0.09.06-.19,0.12-0.29,0.19a0.709,0.709,0,0,1-.46.22v0.17a0.375,0.375,0,0,0,.1-0.01c0.81-.02,1.61-0.05,2.42-0.08,0.39-.01.78-0.02,1.18-0.04l1.02-.03c0.18-.01.36-0.01,0.54-0.02,0.39-.01.77-0.03,1.16-0.04,0.16,0,.33-0.01.49-0.01a2.62,2.62,0,0,1,.28-0.01,0.528,0.528,0,0,0,.13-0.01,0.6,0.6,0,0,1,.48.16,0.531,0.531,0,0,1,.13.48,0.626,0.626,0,0,1-.24.38,3.589,3.589,0,0,1-.72.17c-0.04,0-.07.01-0.11,0.01a2,2,0,0,1-.24.04c-0.13.01-.26,0.03-0.39,0.05l-1.08.15-0.67.09c-0.08.01-.17,0.03-0.25,0.04-0.12.01-.24,0.03-0.36,0.05-0.06.01-.13,0.01-0.2,0.02a0.286,0.286,0,0,0-.27.15v0.11h0.13c0.84,0.06,1.68.11,2.52,0.18a0.487,0.487,0,0,1,.12.01c0.36,0.02.72,0.05,1.08,0.08,0.2,0.02.4,0.03,0.59,0.05,0.12,0,.23.01,0.34,0.02a1.833,1.833,0,0,0,1.16-.07,4.031,4.031,0,0,0,.34-0.37c0.2-.23.42-0.45,0.63-0.67l0.12-.12,0.25-.25c0.08-.08.16-0.17,0.25-0.25,0.12-.12.24-0.25,0.36-0.37l0.11-.11,0.11-.11,0.09-.09a0.722,0.722,0,0,1,.38-0.13,0.646,0.646,0,0,1,.44.33,1.057,1.057,0,0,1,.02.26v0.17a1.087,1.087,0,0,1-.01.18v0.2c0,0.53-.02,1.05-0.04,1.57a1.548,1.548,0,0,0-.01.21c-0.02.36-.03,0.72-0.05,1.07,0,0.14-.01.27-0.02,0.4a1.21,1.21,0,0,1-.01.19,1.159,1.159,0,0,0,.26.91,0.727,0.727,0,0,1,.09.08,1,1,0,0,1,.11.1c0.03,0.03.07,0.06,0.11,0.1a1.1,1.1,0,0,0,.11.1c0.21,0.19.43,0.39,0.65,0.58,0.27,0.23.53,0.47,0.8,0.71,0.47,0.43.47,0.43,0.95,0.84l0.11,0.09c0.03,0.02.06,0.05,0.09,0.07a1.217,1.217,0,0,1,.24.85,10.582,10.582,0,0,0,1.18.45,1.587,1.587,0,0,0,.2.07c0.17,0.06.34,0.11,0.52,0.17s0.34,0.11.51,0.17c0.07,0.02.13,0.05,0.2,0.07,0.14,0.04.27,0.09,0.41,0.13,0.31,0.11.62,0.21,0.93,0.31,0.1,0.03.21,0.06,0.31,0.1l0.39,0.12c0.09,0.03.09,0.03,0.17,0.06a0.836,0.836,0,0,1,.51.33,0.737,0.737,0,0,1,.02.3v0.18c-0.02.27-.05,0.55-0.09,0.82l-0.02.18c-0.02.18-.05,0.36-0.07,0.55s-0.05.36-.07,0.55c-0.02.11-.03,0.23-0.05,0.34a3.885,3.885,0,0,0-.05.76,1.7,1.7,0,0,0,.6.34,0.612,0.612,0,0,0,.12.05,2.557,2.557,0,0,0,.24.11c0.12,0.06.24,0.11,0.37,0.17,0.29,0.13.59,0.27,0.89,0.4,0.15,0.07.29,0.13,0.44,0.2,0.04,0.02.08,0.03,0.12,0.05a1.26,1.26,0,0,1,.58.49,0.574,0.574,0,0,1-.1.49c-0.07.09-.07,0.09-0.13,0.17-0.03.03-.05,0.06-0.08,0.09-0.25.32-.52,0.62-0.79,0.93-0.17.19-.33,0.39-0.49,0.59l-0.39.48c-0.3.36-.59,0.72-0.88,1.09-0.03.04-.06,0.07-0.09,0.11a0.561,0.561,0,0,0-.17.4,1.335,1.335,0,0,0,.34.44,0.812,0.812,0,0,1,.09.1c0.21,0.23.43,0.44,0.65,0.66,0.14,0.14.27,0.29,0.4,0.44,0.11,0.13.23,0.24,0.34,0.36,0.19,0.19.37,0.38,0.54,0.58,0.15,0.16.31,0.32,0.47,0.48,0.14,0.15.28,0.3,0.41,0.46,0.12,0.13.25,0.26,0.38,0.39,0.1,0.1.2,0.2,0.29,0.31,0.13,0.16.27,0.3,0.41,0.45a6.64,6.64,0,0,1,.51.55c0.13,0.14.26,0.26,0.39,0.39s0.26,0.28.38,0.43a4.107,4.107,0,0,0,.29.3,6.038,6.038,0,0,1,.48.53c0.12,0.13.25,0.26,0.38,0.38,0.1,0.1.19,0.21,0.28,0.31,0.21,0.24.42,0.47,0.64,0.7,0.93,0.98.93,0.98,0.96,1.26a0.515,0.515,0,0,1-.13.36,0.6,0.6,0,0,1-.34.16,1.922,1.922,0,0,1-.81-0.48c-0.07-.05-0.13-0.1-0.19-0.15-0.1-.08-0.2-0.16-0.3-0.23-0.2-.17-0.41-0.33-0.62-0.49-0.05-.03-0.1-0.07-0.15-0.1a0.284,0.284,0,0,0-.28-0.08l0.03,0.09a2.553,2.553,0,0,1,.19.85,0.558,0.558,0,0,1-.44.3,1.435,1.435,0,0,1-.86-0.69c-0.12-.15-0.25-0.3-0.38-0.44-0.16-.18-0.32-0.37-0.48-0.56-0.23-.29-0.49-0.57-0.75-0.85-0.17-.17-0.33-0.35-0.49-0.54a3.045,3.045,0,0,0-.61-0.58c-0.06.02-.11,0.04-0.17,0.06,0.05,0.37.1,0.75,0.14,1.12,0.03,0.19.05,0.38,0.07,0.56,0.04,0.32.08,0.63,0.12,0.94,0.02,0.12.04,0.25,0.05,0.37a6.522,6.522,0,0,0,.75,2.41c0.12,0.23.23,0.45,0.34,0.68,0.04,0.08.08,0.17,0.12,0.25a24.159,24.159,0,0,1,1.89,5.2c0.05,0.2.1,0.39,0.15,0.58,0.05,0.24.11,0.47,0.17,0.7,0.11,0.45.22,0.9,0.34,1.36,0.03,0.1.05,0.2,0.08,0.3,0.03,0.14.07,0.28,0.11,0.42s0.06,0.25.09,0.37l0.06,0.21a1.365,1.365,0,0,1-.03.57,0.57,0.57,0,0,1-.44.31,0.82,0.82,0,0,1-.44-0.25,2.137,2.137,0,0,1-.17-0.3c-0.04-.07-0.07-0.13-0.1-0.19a1.865,1.865,0,0,1-.1-0.2,1.983,1.983,0,0,1-.11-0.2c-0.08-.14-0.15-0.29-0.23-0.43-0.17-.33-0.34-0.65-0.51-0.98-0.06-.1-0.11-0.2-0.16-0.3-0.04-.07-0.07-0.13-0.1-0.19s-0.06-.11-0.09-0.16a0.236,0.236,0,0,0-.18-0.18,0.772,0.772,0,0,0,.02.15c0.03,0.2.06,0.39,0.09,0.59a2.166,2.166,0,0,1,.04.25c0.21,1.28.21,1.28,0.03,1.57a0.821,0.821,0,0,1-.46.13,0.921,0.921,0,0,1-.48-0.49c-0.02-.03-0.03-0.06-0.05-0.09-0.06-.1-0.11-0.2-0.17-0.3a1.983,1.983,0,0,0-.11-0.2c-0.07-.12-0.14-0.24-0.2-0.37-0.07-.1-0.13-0.21-0.2-0.31,0.09,0.78.22,1.55,0.35,2.33,0.04,0.19.07,0.38,0.1,0.56,0.06,0.36.12,0.72,0.19,1.08,0.06,0.4.13,0.8,0.2,1.21,0.03,0.15.06,0.31,0.08,0.47,0.06,0.31.11,0.62,0.16,0.92,0.03,0.19.07,0.38,0.1,0.57a0.355,0.355,0,0,0,.02.1c0.07,0.43.14,0.85,0.22,1.27,0.03,0.21.07,0.42,0.11,0.63,0.02,0.14.05,0.27,0.07,0.41a2.477,2.477,0,0,1,.1,1.33,0.77,0.77,0,0,1-.36.28,2.667,2.667,0,0,1-1.21-.58c-0.39-.25-0.79-0.49-1.18-0.73-0.52-.31-1.02-0.63-1.53-0.95a2.148,2.148,0,0,0-.99-0.49c-0.38.74-.75,1.49-1.1,2.25-0.18.37-.36,0.75-0.55,1.12-0.24.5-.47,0.99-0.71,1.49l-0.69,1.44a2,2,0,0,0-.1.21c-0.11.21-.21,0.42-0.31,0.63-0.02.05-.05,0.09-0.07,0.14a3.081,3.081,0,0,1-1.09,1.15c-0.2.16-.4,0.31-0.6,0.47-0.28.22-.57,0.44-0.85,0.66-0.45.35-.9,0.69-1.35,1.04-0.5.4-1.01,0.79-1.52,1.18l-0.66.51a0.642,0.642,0,0,1-.13.1c-0.21.17-.43,0.34-0.64,0.51s-0.41.32-.62,0.48c-0.07.05-.14,0.1-0.21,0.16s-0.16.12-.24,0.19a0.642,0.642,0,0,0-.13.1,1.1,1.1,0,0,1-.46.13,0.607,0.607,0,0,1-.39-0.39,5.048,5.048,0,0,1,.29-1.48c0.03-.09.05-0.19,0.08-0.28,0.07-.26.13-0.52,0.2-0.77,0.08-.28.15-0.55,0.22-0.82,0.13-.48.25-0.96,0.38-1.43,0.2-.74.39-1.47,0.59-2.21,0.16-.62.33-1.24,0.49-1.86a1.945,1.945,0,0,0,.05-0.2l0.36-1.35c0.02-.06.03-0.12,0.05-0.18,0.22-.82.44-1.65,0.67-2.47a1.462,1.462,0,0,1,.05-0.2,1.543,1.543,0,0,1,.05-0.17,2.979,2.979,0,0,0,.09-0.43,1.028,1.028,0,0,1-.18.01l-1.68.06-0.86.03-0.84.03c-0.1,0-.21,0-0.31.01-0.29.01-.58,0.02-0.88,0.02a2.62,2.62,0,0,1-.28.01c-0.15.01-.29,0.01-0.43,0.01a0.528,0.528,0,0,1-.13.01,1.116,1.116,0,0,1-.86-0.37c-0.72-.81-0.72-0.81-0.69-1.3,0.03-.17.08-0.34,0.12-0.5,0.01-.05.03-0.1,0.04-0.15,0.04-.17.09-0.33,0.13-0.49,0.03-.11.06-0.22,0.09-0.34,0.06-.24.13-0.47,0.19-0.71,0.08-.3.16-0.6,0.24-0.91,0.07-.23.13-0.47,0.19-0.7l0.09-.33c0.5-1.88.5-1.88,1.05-2.46,0.07-.08.14-0.16,0.21-0.23,0.15-.16.3-0.32,0.44-0.48l0.1-.1a0.628,0.628,0,0,1,.5-0.15,2.18,2.18,0,0,1,.69.28,1.194,1.194,0,0,1,.16.08c0.17,0.08.35,0.17,0.52,0.26,0.11,0.05.22,0.11,0.33,0.16,0.17,0.09.34,0.17,0.5,0.25,0.4,0.2.8,0.4,1.2,0.59,0.05,0.02.1,0.05,0.15,0.07,0.29,0.14.57,0.26,0.86,0.37a2.087,2.087,0,0,0,.12-0.78,1.148,1.148,0,0,1,.01-0.19c0.02-.19.03-0.38,0.04-0.57,0-.07.01-0.13,0.01-0.2a4.385,4.385,0,0,0-.37-1.74c-0.04-.11-0.08-0.21-0.12-0.32-0.07-.22-0.15-0.44-0.23-0.66-0.11-.31-0.22-0.61-0.32-0.91a0.88,0.88,0,0,1-.05-0.15,2.469,2.469,0,0,1-.1-0.29c-0.09-.24-0.17-0.48-0.26-0.73-0.21-.59-0.41-1.19-0.62-1.78-0.17-.51-0.35-1.02-0.53-1.52a1.093,1.093,0,0,0-.05-0.17c-0.12-.32-0.23-0.64-0.34-0.96-0.03-.1-0.07-0.2-0.1-0.3-0.08-.22-0.16-0.45-0.24-0.67-0.06-.19-0.12-0.37-0.19-0.56-0.03-.09-0.06-0.19-0.09-0.29a0.647,0.647,0,0,1-.04-0.13,0.544,0.544,0,0,0-.32-0.41c-0.27-.03-0.54-0.05-0.82-0.06-0.05,0-.11-0.01-0.17-0.01-0.19-.01-0.38-0.01-0.56-0.02a1.34,1.34,0,0,1-.2-0.01c-0.44-.01-0.88-0.02-1.33-0.04h-0.15c-0.27-.01-0.54-0.02-0.8-0.02-0.11,0-.23,0-0.34-0.01a2.42,2.42,0,0,0-1.23.31,1.009,1.009,0,0,0-.15.07c-0.14.07-.28,0.14-0.41,0.21a18.329,18.329,0,0,1-2.81,1.13c-0.2.07-.39,0.15-0.59,0.24,0.02,0.35.06,0.7,0.11,1.05,0.02,0.13.04,0.25,0.05,0.37a0.688,0.688,0,0,1,.02.13,1.369,1.369,0,0,1-.5.99c-0.11.14-.23,0.27-0.34,0.4-0.17.19-.33,0.39-0.48,0.59s-0.32.39-.48,0.58l-0.09.12c-0.21.26-.42,0.52-0.63,0.77l-0.66.81c-0.12.15-.25,0.3-0.37,0.45-0.28.35-.57,0.7-0.84,1.05-0.22.28-.44,0.56-0.67,0.82-0.18.21-.35,0.43-0.52,0.64-0.3.38-.6,0.75-0.9,1.12-0.11.13-.22,0.27-0.33,0.4a1.105,1.105,0,0,1-.85.67,0.582,0.582,0,0,1-.43-0.3,1.863,1.863,0,0,1,.24-0.8,1.091,1.091,0,0,0,.06-0.11c0.06-.13.13-0.26,0.19-0.39,0.05-.09.09-0.18,0.14-0.27,0.12-.23.24-0.47,0.36-0.71,0.19-.37.38-0.75,0.57-1.12a2.437,2.437,0,0,1,.14-0.28c0.28-.56.55-1.11,0.82-1.68,0.22-.46.45-0.92,0.68-1.38l0.06-.12c0.14-.28.28-0.57,0.43-0.85s0.28-.58.43-0.86c0.06-.12.11-0.23,0.17-0.35a1.865,1.865,0,0,0,.1-0.2c0.03-.06.07-0.12,0.1-0.19a1.17,1.17,0,0,0,.12-0.69,3.507,3.507,0,0,0-.27-0.55,1.091,1.091,0,0,0-.06-0.11c-0.07-.13-0.14-0.25-0.21-0.37a0.746,0.746,0,0,1-.07-0.12,0.62,0.62,0,0,0-.37-0.34,1.093,1.093,0,0,0-.53.51c-0.07.1-.13,0.2-0.2,0.29-0.04.05-.07,0.1-0.11,0.15-0.16.23-.32,0.45-0.49,0.67a2.476,2.476,0,0,1-.19.26c-0.13.18-.25,0.35-0.38,0.53a1.47,1.47,0,0,0-.1.13c-0.06.08-.13,0.17-0.19,0.26-0.16.21-.32,0.43-0.48,0.65a24.99,24.99,0,0,1-1.97,2.54c-0.14.16-.27,0.32-0.4,0.48a8.937,8.937,0,0,1-.66.71c-0.11.11-.21,0.22-0.31,0.33a8.5,8.5,0,0,1-.72.75c-0.17.17-.33,0.33-0.47,0.5-0.28.32-.58,0.62-0.88,0.92l-0.09.09c-0.16.16-.32,0.33-0.49,0.49s-0.33.34-.5,0.51l-0.39.39-0.18.18c-0.09.09-.17,0.18-0.26,0.26l-0.15.15a0.907,0.907,0,0,1-.47.23,1.221,1.221,0,0,1-.5-0.27,2.194,2.194,0,0,1,.37-1.11c0.04-.06.07-0.12,0.1-0.17l0.3-.54c0.06-.1.12-0.21,0.18-0.31,0.12-.21.23-0.42,0.35-0.62,0.2-.36.4-0.71,0.6-1.07,0.26-.48.53-0.96,0.8-1.44,0.03-.05.06-0.11,0.09-0.17,0.15-.26.3-0.53,0.45-0.79,0.06-.1.11-0.19,0.16-0.29l0.21-.36c0.03-.05.06-0.11,0.09-0.16,0.04-.07.04-0.07,0.08-0.15a3,3,0,0,0,.18-0.41,0.7,0.7,0,0,0-.38.32c-0.2.25-.41,0.49-0.64,0.73-0.21.22-.41,0.44-0.6,0.68-0.26.33-.55,0.63-0.84,0.94-0.16.17-.32,0.35-0.47,0.52-0.12.14-.24,0.28-0.37,0.41-0.22.25-.44,0.49-0.66,0.74l-0.11.14a6.234,6.234,0,0,0-1.56,3.53,2.6,2.6,0,0,0,.39.78c0.03,0.06.07,0.12,0.11,0.19,0.08,0.13.15,0.26,0.23,0.39,0.18,0.3.36,0.61,0.54,0.92,0.26,0.45.52,0.91,0.79,1.36,0.57,0.99,1.14,1.97,1.71,2.96,0.25,0.45.5,0.89,0.76,1.33,0.28,0.47.55,0.94,0.82,1.42,0.39,0.68.78,1.35,1.17,2.03,0.2,0.35.41,0.71,0.61,1.07,0.18,0.29.35,0.59,0.52,0.89,0.37,0.64.74,1.29,1.11,1.94,0.27,0.46.53,0.92,0.8,1.39,0.3,0.52.6,1.05,0.91,1.58,0.23,0.41.47,0.82,0.71,1.23,0.1,0.18.2,0.36,0.31,0.54,0.12,0.21.24,0.42,0.36,0.62l0.15,0.27a1.047,1.047,0,0,1,.08.11,0.869,0.869,0,0,1,.14.52,0.406,0.406,0,0,1-.22.35,2.651,2.651,0,0,1-1.78-.83c-0.11-.07-0.22-0.15-0.33-0.23-0.06-.04-0.11-0.07-0.16-0.11-0.17-.12-0.34-0.23-0.52-0.35a8.242,8.242,0,0,1-.83-0.63,0.55,0.55,0,0,1-.09-0.07,12.124,12.124,0,0,1-1.77-1.81c-0.13-.17-0.28-0.32-0.42-0.48-0.19-.2-0.37-0.41-0.55-0.63-0.22-.27-0.46-0.53-0.7-0.79-0.22-.24-0.43-0.48-0.63-0.74-0.2-.24-0.42-0.47-0.64-0.7-0.23-.25-0.46-0.51-0.68-0.78-0.32-.37-0.65-0.74-0.98-1.11-0.23-.24-0.45-0.5-0.67-0.75-0.28-.34-0.57-0.67-0.86-0.99a0.647,0.647,0,0,1-.08-0.09c-0.17-.17-0.34-0.34-0.5-0.51,0.34,0.87.7,1.74,1.07,2.6,0.04,0.11.09,0.22,0.14,0.33a1.111,1.111,0,0,0,.07.16c0.13,0.31.26,0.62,0.38,0.94,0.08,0.18.16,0.37,0.23,0.56,0.04,0.09.07,0.17,0.11,0.26a5.441,5.441,0,0,0,.96,1.58c0.07,0.08.14,0.17,0.2,0.25l0.17,0.2c0.06,0.08.12,0.15,0.18,0.23,0.03,0.03.06,0.07,0.09,0.1,0.13,0.17.27,0.34,0.4,0.5s0.25,0.31.37,0.46c0.28,0.35.56,0.69,0.84,1.05,0.19,0.24.39,0.48,0.58,0.73,0.23,0.27.45,0.54,0.66,0.82,0.33,0.43.68,0.85,1.02,1.26,0.42,0.52.83,1.04,1.24,1.56l0.23,0.29c0.26,0.32.51,0.65,0.76,0.97,0.02,0.03.05,0.06,0.07,0.09a0.837,0.837,0,0,1,.23.72,0.935,0.935,0,0,1-.28.28,1.54,1.54,0,0,1-.91-0.24c-0.05-.03-0.1-0.05-0.15-0.08-0.17-.08-0.34-0.17-0.5-0.25-0.12-.06-0.24-0.12-0.35-0.17l-0.72-.36c-0.43-.22-0.87-0.43-1.3-0.64-0.22-.11-0.44-0.21-0.65-0.32-0.05-.02-0.09-0.04-0.13-0.06-0.28-.13-0.55-0.27-0.83-0.4-0.19-.09-0.38-0.19-0.57-0.28-0.09-.04-0.18-0.09-0.27-0.13-0.48-.24-0.96-0.47-1.45-0.7-0.04-.02-0.09-0.04-0.13-0.06s-0.08-.04-0.13-0.06a1.091,1.091,0,0,0-.11-0.06,1.786,1.786,0,0,0-.26-0.1v0.11a0.487,0.487,0,0,0,.11.04,3.049,3.049,0,0,1,.57.36c0.38,0.27.75,0.53,1.13,0.79,0.48,0.32.96,0.65,1.43,0.99,0.11,0.08.22,0.16,0.33,0.23l0.11,0.08c0.07,0.04.13,0.09,0.2,0.13a1.074,1.074,0,0,1,.41.46,0.763,0.763,0,0,1-.14.49,0.68,0.68,0,0,1-.52.12c-0.15-.06-0.28-0.11-0.42-0.18-0.04-.02-0.08-0.03-0.13-0.05-0.13-.06-0.26-0.12-0.4-0.19-0.09-.04-0.18-0.08-0.28-0.12-0.19-.09-0.38-0.18-0.58-0.27l-1.14-.51c-0.97-.43-1.93-0.86-2.9-1.3l-1.14-.51c-0.37-.17-0.74-0.33-1.11-0.5-0.23-.1-0.46-0.21-0.69-0.31-0.16-.07-0.31-0.14-0.47-0.21-0.05-.02-0.1-0.05-0.16-0.07a0.914,0.914,0,0,1-.14-0.07,1.122,1.122,0,0,1-.13-0.05,0.436,0.436,0,0,1-.2-0.22,3.846,3.846,0,0,1-.08-0.47,0.59,0.59,0,0,1-.02-0.14c-0.03-.16-0.05-0.31-0.07-0.47-0.02-.11-0.03-0.21-0.05-0.32-0.04-.29-0.08-0.57-0.12-0.86s-0.09-.58-0.13-0.87c-0.08-.57-0.17-1.14-0.25-1.71a1.079,1.079,0,0,0-.49.18,0.834,0.834,0,0,0-.12.08,0.913,0.913,0,0,0-.13.08c-0.05.03-.09,0.06-0.14,0.09-0.39.25-.77,0.5-1.16,0.76-0.47.32-.95,0.63-1.43,0.94l-0.27.18a0.527,0.527,0,0,1-.48-0.11,0.809,0.809,0,0,1-.12-0.66,2.253,2.253,0,0,1,.14-0.44l0.04-.12c0.05-.13.09-0.25,0.14-0.38,0.03-.08.06-0.17,0.09-0.25,0.06-.16.11-0.31,0.17-0.47,0.01-.03.03-0.07,0.04-0.1,0.03-.08.06-0.15,0.09-0.23a0.292,0.292,0,1,0-.39-0.29c-0.04.03-.09,0.05-0.13,0.08s-0.09.07-.14,0.1c-0.1.06-.2,0.13-0.3,0.19-0.05.04-.1,0.07-0.15,0.11-0.23.15-.47,0.3-0.7,0.45l-0.27.18c-0.19.12-.37,0.24-0.55,0.36-0.05.03-.09,0.06-0.14,0.09-0.09.06-.18,0.12-0.28,0.18l-0.69.45c-0.23.15-.46,0.29-0.68,0.44-0.13.09-.26,0.17-0.39,0.26-0.2.12-.39,0.25-0.58,0.37l-0.27.18a0.69,0.69,0,0,1-.6.22,0.349,0.349,0,0,1-.27-0.23,1.525,1.525,0,0,1,.33-0.81l0.09-.15c0.1-.16.19-0.31,0.29-0.47,0.03-.05.07-0.1,0.1-0.16,0.14-.21.27-0.43,0.41-0.65,0.34-.54.67-1.08,1-1.63,0.06-.1.12-0.19,0.18-0.29l0.09-.15a1.463,1.463,0,0,0,.09-0.13,0.235,0.235,0,0,0,.03-0.24c-0.01-.03-0.02-0.07-0.03-0.1a1.706,1.706,0,0,0-.84.08,4.586,4.586,0,0,0-.37.39c-0.27.3-.55,0.58-0.83,0.86-0.37.36-.37,0.36-0.72,0.74-0.35.41-.74,0.77-1.11,1.14-0.52.51-.52,0.51-1.01,1.05a2.127,2.127,0,0,1-.3.3l-0.11.09a0.746,0.746,0,0,1-.54.15,0.552,0.552,0,0,1-.24-0.09,2.244,2.244,0,0,1,.01-1.38c0.01-.06.03-0.12,0.04-0.18,0.03-.2.07-0.39,0.1-0.59,0.03-.13.05-0.27,0.08-0.41,0.06-.32.11-0.64,0.17-0.96,0.11-.61.22-1.22,0.34-1.83,0.03-.2.07-0.4,0.1-0.6,0.03-.12.05-0.25,0.07-0.37,0.01-.06.02-0.11,0.03-0.17a0.664,0.664,0,0,0,.03-0.15c0.01-.05.02-0.09,0.03-0.14a1.785,1.785,0,0,0,.01-0.4,6.186,6.186,0,0,0-1.16-.63c-0.07-.03-0.14-0.07-0.21-0.1-0.15-.07-0.29-0.14-0.44-0.21-0.22-.1-0.43-0.21-0.65-0.31-0.03-.02-0.07-0.03-0.1-0.05-0.17-.08-0.34-0.17-0.51-0.25-0.28-.13-0.56-0.27-0.84-0.4-0.08-.04-0.16-0.07-0.24-0.11-0.06-.03-0.13-0.06-0.2-0.09a0.963,0.963,0,0,1-.37-0.43,1.561,1.561,0,0,1,.23-0.96c0.02-.05.05-0.1,0.07-0.15,0.08-.15.16-0.31,0.24-0.46,0.05-.11.1-0.22,0.16-0.33,0.1-.21.21-0.42,0.31-0.63,0.16-.31.31-0.63,0.46-0.94,0.17-.35.34-0.71,0.51-1.06l0.06-.12c0.09-.2.19-0.4,0.29-0.6,0.09-.18.17-0.36,0.26-0.54,0.04-.09.09-0.18,0.13-0.27,0.03-.06.05-0.11,0.08-0.17,0.02-.04.05-0.09,0.07-0.13a0.427,0.427,0,0,0-.02-0.35c-0.54.04-1.08,0.12-1.62,0.2-0.16.02-.32,0.05-0.48,0.07-0.46.07-.91,0.14-1.37,0.2-0.28.05-.56,0.09-0.84,0.13-0.1.02-.21,0.03-0.32,0.05l-0.44.06a0.585,0.585,0,0,1-.13.02,1.288,1.288,0,0,1-.8-0.07,0.759,0.759,0,0,1-.15-0.55,1.723,1.723,0,0,1,.19-0.44c0.02-.04.04-0.08,0.06-0.13,0.07-.13.14-0.26,0.2-0.39,0.05-.09.1-0.19,0.14-0.28,0.09-.18.18-0.36,0.28-0.55,0.15-.29.29-0.6,0.43-0.9,0.05-.1.1-0.2,0.15-0.29a0.689,0.689,0,0,1,.07-0.15c0.15-.32.3-0.63,0.45-0.94a0.467,0.467,0,0,1,.05-0.1c0.1-.21.19-0.41,0.29-0.62,0.15-.3.3-0.6,0.44-0.91a0.313,0.313,0,0,0,.05-0.1c0.25-.51.5-1.02,0.74-1.53,0.15-.32.3-0.63,0.45-0.94,0.06-.11.11-0.22,0.16-0.32l0.15-.3c0.19-.4.37-0.81,0.54-1.22a2.588,2.588,0,0,0-.94.43l-0.18.1c-0.06.03-.11,0.07-0.17,0.1l-0.16.1a1.6,1.6,0,0,0-.63.8c-0.02.04-.03,0.09-0.05,0.13-0.07.14-.13,0.28-0.19,0.43-0.04.1-.08,0.2-0.13,0.3-0.09.21-.18,0.42-0.27,0.64-0.14.32-.28,0.64-0.42,0.95-0.51,1.18-1.02,2.37-1.53,3.55-0.04.09-.07,0.17-0.11,0.26-0.1.24-.2,0.47-0.3,0.71a0.774,0.774,0,0,1-.07.16l-0.12.3a0.931,0.931,0,0,1-.5.71,0.633,0.633,0,0,1-.55-0.11,1.665,1.665,0,0,1,0-1.26,1.38,1.38,0,0,1,.03-0.2c0.03-.18.06-0.36,0.1-0.54s0.07-.38.1-0.57c0.06-.32.11-0.64,0.17-0.96s0.12-.65.18-0.98a0.5,0.5,0,0,1,.02-0.12c0.01-.08.03-0.16,0.04-0.24,0.13-.73.26-1.46,0.4-2.19l0.21-1.2c0.04-.22.08-0.44,0.12-0.67l0.06-.3c0.02-.13.05-0.27,0.07-0.4l0.02-.12a1.32,1.32,0,0,1,.41-0.81c0.16-.16.31-0.32,0.46-0.5a1.267,1.267,0,0,1,.11-0.13,1.48,1.48,0,0,0,.08-0.13l-0.06-.16c-0.05-.01-0.11-0.01-0.16-0.02l-0.23-.03a0.448,0.448,0,0,1-.11-0.01,1.234,1.234,0,0,1-.65-0.22,1.4,1.4,0,0,1,.1-0.9c0.01-.05.03-0.1,0.04-0.15,0.05-.15.11-0.3,0.16-0.45,0.03-.11.07-0.21,0.1-0.32,0.09-.25.17-0.5,0.26-0.76a2.29,2.29,0,0,0-.62.45,1.538,1.538,0,0,0-.13.12,1.661,1.661,0,0,1-.13.14,11.01,11.01,0,0,1-.93.88l-0.15.12a1.1,1.1,0,0,1-.11.1,0.938,0.938,0,0,1-.12.09,0.676,0.676,0,0,1-.39.13,0.747,0.747,0,0,1-.41-0.26,0.774,0.774,0,0,1,.08-0.61c0.08-.12.17-0.23,0.25-0.35a0.642,0.642,0,0,0,.1-0.13c0.07-.09.14-0.18,0.2-0.27,0.14-.17.27-0.35,0.4-0.53,0.06-.08.12-0.17,0.19-0.26,0.21-.29.43-0.59,0.64-0.88,0.28-.39.56-0.77,0.84-1.15,0.25-.33.49-0.67,0.73-1.01,0.19-.26.38-0.52,0.58-0.78a4.466,4.466,0,0,0,.96-1.62,1.189,1.189,0,0,0-.66.33,4.809,4.809,0,0,1-1.6.54l-0.25.06c-0.18.05-.36,0.09-0.54,0.13-0.23.05-.45,0.11-0.68,0.16-0.46.11-.92,0.21-1.39,0.32-0.19.04-.37,0.09-0.56,0.13a2.291,2.291,0,0,0-.28.07l-0.12.03a0.749,0.749,0,0,1-.57-0.07,0.7,0.7,0,0,1-.25-0.44,0.671,0.671,0,0,1,.3-0.44,4.111,4.111,0,0,1,.42-0.21l0.12-.06c0.09-.05.18-0.09,0.27-0.13l0.57-.27,0.3-.15c0.52-.25,1.05-0.51,1.57-0.76l0.3-.15a5.643,5.643,0,0,0,1.74-1.2c0.11-.1.21-0.19,0.32-0.28,0.17-.15.34-0.31,0.5-0.48a4.121,4.121,0,0,1,.31-0.28c0.23-.2.45-0.41,0.68-0.62,0.08-.08.16-0.16,0.24-0.23a1.538,1.538,0,0,1,.13-0.12c0.43-.41.88-0.82,1.32-1.23,0.08-.08.16-0.15,0.24-0.23l0.21-.18a3.02,3.02,0,0,0,.78-1.02c0.07-.12.14-0.25,0.21-0.38,0.04-.06.07-0.12,0.11-0.19,0.18-.32.37-0.63,0.57-0.94,0.03-.04.05-0.09,0.08-0.13s0.04-.07.07-0.11a0.38,0.38,0,0,0,.04-0.32,0.3,0.3,0,0,0-.1-0.02c-0.8-.19-1.61-0.38-2.42-0.57-0.39-.1-0.78-0.19-1.17-0.28l-1.02-.24c-0.18-.04-0.36-0.08-0.54-0.13-0.2-.04-0.4-0.09-0.6-0.14l-0.18-.04a2.7,2.7,0,0,1-.78-0.28,0.85,0.85,0,0,1-.06-0.5,0.9,0.9,0,0,1,.44-0.38c0.11-.03.22-0.05,0.33-0.07l0.21-.03a1.435,1.435,0,0,1,.22-0.04c0.07-.01.15-0.03,0.22-0.04,0.16-.03.32-0.06,0.48-0.08,0.2-.04.4-0.07,0.6-0.11s0.39-.06.58-0.1l0.22-.04c0.46-.07.91-0.14,1.38-0.21v-0.11l-0.16-.03c-0.2-.05-0.41-0.1-0.62-0.15-0.11-.03-0.23-0.05-0.34-0.08l-0.6-.15c-0.07-.01-0.13-0.03-0.2-0.04a0.9,0.9,0,0,1-.78-0.43,0.813,0.813,0,0,1,0-.38,0.849,0.849,0,0,1,.44-0.33h0.33a1.548,1.548,0,0,1,.21.01h0.23a0.487,0.487,0,0,0,.12.01c1.22,0.04,2.43.1,3.65,0.17,0.38,0.02.76,0.03,1.14,0.05,0.29,0.02.59,0.03,0.88,0.05a0.808,0.808,0,0,1,.16.01c0.1,0,.2.01,0.3,0.01l0.46,0.02a2.576,2.576,0,0,0-.49-0.96,0.906,0.906,0,0,1-.11-0.16c-0.12-.16-0.23-0.32-0.34-0.47-0.06-.09-0.12-0.17-0.18-0.26-0.13-.19-0.26-0.38-0.4-0.57-0.08-.11-0.16-0.22-0.24-0.34-0.32-.45-0.64-0.9-0.96-1.34-0.15-.21-0.29-0.41-0.44-0.62l-0.08-.12a0.491,0.491,0,0,1-.06-0.44,1.061,1.061,0,0,1,.27-0.33,0.606,0.606,0,0,1,.49.06,9.674,9.674,0,0,1,.97.85c0.12,0.12.24,0.22,0.36,0.33l1.02,0.93c0.28,0.26.56,0.52,0.84,0.77a1.538,1.538,0,0,1,.13.12c0.11,0.1.22,0.19,0.33,0.29a2.881,2.881,0,0,1,.99,1.67,0.718,0.718,0,0,0,.26.48,0.536,0.536,0,0,0,.43,0,0.219,0.219,0,0,0,.13-0.28,2.6,2.6,0,0,0-.11-0.62l-0.03-.12c-0.03-.13-0.06-0.26-0.1-0.38-0.02-.09-0.05-0.18-0.07-0.27-0.06-.23-0.12-0.47-0.18-0.7s-0.13-.47-0.19-0.71c-0.11-.42-0.22-0.83-0.33-1.25a2.076,2.076,0,0,1-.1-0.89,0.664,0.664,0,0,1,.27-0.28,1.529,1.529,0,0,1,1.05.36c0.06,0.04.12,0.07,0.19,0.11,0.17,0.1.35,0.2,0.52,0.3l0.36,0.21c0.1,0.05.19,0.11,0.28,0.16a0.826,0.826,0,0,0,.3.13,3.434,3.434,0,0,0-.45-0.61c-0.05-.07-0.11-0.13-0.16-0.19a0.9,0.9,0,0,0-.09-0.1c-0.11-.13-0.21-0.26-0.32-0.39-0.18-.23-0.36-0.44-0.55-0.66-0.31-.37-0.61-0.74-0.92-1.11-0.22-.27-0.44-0.55-0.67-0.82-0.27-.31-0.54-0.63-0.8-0.96-0.03-.03-0.05-0.06-0.08-0.09a0.615,0.615,0,0,1-.14-0.47,0.531,0.531,0,0,1,.14-0.32,1.018,1.018,0,0,1,.8.07c0.85,0.41,1.67.9,2.5,1.36l0.54,0.3c0.05,0.03.11,0.06,0.16,0.09a1.276,1.276,0,0,0,.75.27,2.649,2.649,0,0,0,.41-0.41,1.1,1.1,0,0,0,.1-0.11c0.11-.12.21-0.24,0.31-0.36,0.07-.08.14-0.15,0.21-0.23,0.03-.04.06-0.07,0.09-0.11,0.11-.12.22-0.24,0.33-0.37,0.04-.04.08-0.09,0.13-0.14,0.08-.09.17-0.18,0.25-0.28,0.19-.21.38-0.42,0.56-0.63a0.943,0.943,0,0,1,.1-0.1c0.07-.09.14-0.17,0.21-0.25,0.04-.05.08-0.09,0.12-0.14s0.07-.08.11-0.12a0.456,0.456,0,0,1,.38-0.17,3.792,3.792,0,0,1,1,.21l0.22,0.06c0.15,0.05.29,0.09,0.44,0.13,0.19,0.06.38,0.11,0.57,0.17,0.15,0.04.3,0.08,0.44,0.12,0.11,0.03.21,0.06,0.31,0.09a1.146,1.146,0,0,1,.96.55,0.768,0.768,0,0,1-.13.46,3.842,3.842,0,0,1-2.08.19h-0.47a0.66,0.66,0,0,0-.14-0.01,0.684,0.684,0,0,0-.49.12,3.012,3.012,0,0,0-.27.42,1.618,1.618,0,0,0-.1.18,1.178,1.178,0,0,0-.11.19c-0.06.09-.11,0.19-0.17,0.29-0.03.06-.07,0.12-0.11,0.19-0.11.2-.23,0.4-0.35,0.6-0.03.05-.05,0.1-0.08,0.14-0.06.09-.11,0.18-0.16,0.27a0.746,0.746,0,0,0-.07.12c-0.02.03-.04,0.06-0.07,0.1a0.269,0.269,0,0,0-.03.2,0.814,0.814,0,0,0,.42.33c0.04,0.02.07,0.04,0.11,0.06l0.36,0.18,0.24,0.12c0.11,0.06.23,0.12,0.35,0.18,0.18,0.1.36,0.19,0.54,0.29,0.06,0.04.12,0.07,0.18,0.11a0.915,0.915,0,0,0,.17.09,1.531,1.531,0,0,0,1.17-.02,1.471,1.471,0,0,0,.96-1.17,2.416,2.416,0,0,0-.57.44,0.958,0.958,0,0,1-.8.49,0.73,0.73,0,0,1-.49-0.38,0.742,0.742,0,0,1,.22-0.66,0.359,0.359,0,0,1,.07-0.1c0.08-.11.17-0.23,0.26-0.34,0.07-.09.14-0.19,0.21-0.28,0.11-.15.23-0.3,0.34-0.45q0.315-.39.6-0.81c0.26-.37.54-0.73,0.81-1.09,0.29-.38.58-0.76,0.86-1.15a1.822,1.822,0,0,1,.64-0.73,0.738,0.738,0,0,1,.54.1,6.093,6.093,0,0,1,.53.61c0.14,0.18.29,0.35,0.43,0.52,0.21,0.24.41,0.49,0.61,0.75,0.24,0.31.5,0.61,0.76,0.91,0.18,0.21.36,0.42,0.53,0.63,0.07,0.09.15,0.18,0.22,0.28a1.267,1.267,0,0,1,.11.13,1.2,1.2,0,0,0,.11.12,0.481,0.481,0,0,0,.09.11,0.2,0.2,0,0,0,.24.08,0.929,0.929,0,0,1,.05-0.1c0.07-.15.14-0.3,0.21-0.44,0.03-.05.05-0.11,0.08-0.16s0.05-.1.07-0.15a0.826,0.826,0,0,1,.07-0.13,0.735,0.735,0,0,1,.29-0.29,1.477,1.477,0,0,1,.35.05c0.06,0.01.11,0.02,0.18,0.03l0.13,0.03a2.019,2.019,0,0,0-.3-0.56c-0.04-.06-0.08-0.11-0.12-0.17s-0.08-.11-0.12-0.17c-0.08-.11-0.16-0.23-0.24-0.34a1.526,1.526,0,0,0-.11-0.16,3.024,3.024,0,0,1-.21-0.33,0.641,0.641,0,0,0-.44-0.25c-0.15-.01-0.3-0.03-0.45-0.04a2.452,2.452,0,0,1-.27-0.02c-0.14-.01-0.27-0.02-0.41-0.02l-0.4-.03a0.528,0.528,0,0,0-.13-0.01,0.687,0.687,0,0,1-.53-0.21,0.755,0.755,0,0,1,.01-0.59,2.291,2.291,0,0,1,.21-0.23,10.836,10.836,0,0,1,1.97.09l0.31,0.03,0.65,0.06c0.27,0.03.55,0.05,0.82,0.08l0.64,0.06,0.3,0.03a3.74,3.74,0,0,1,1.79.36,0.209,0.209,0,0,0,.22-0.05c0.06-.14.11-0.27,0.16-0.42,0.02-.06.02-0.06,0.04-0.13,0.04-.14.09-0.27,0.13-0.41C1948.67,1370.18,1948.67,1370.18,1949.12,1370.17Zm-58.49,35.14a0.849,0.849,0,0,1,.13.58v3.18a3.58,3.58,0,0,1-.75,2.63c-0.09.09-.18,0.17-0.27,0.25-0.37.32-.71,0.67-1.05,1.01l-0.24.24c-0.17.17-.34,0.35-0.51,0.52l-0.81.81-2.31,2.31c-0.42.43-.85,0.86-1.27,1.28l-0.81.81c-0.16.17-.33,0.34-0.5,0.5-0.08.08-.15,0.16-0.23,0.24a8.539,8.539,0,0,1-6.04,2.73,8.079,8.079,0,0,1-5.5-2.36l-0.12-.1a7.521,7.521,0,0,1-2.14-5.01,7.952,7.952,0,0,1,1.76-5.28l0.12-.15a7.958,7.958,0,0,1,5.46-2.64,7.739,7.739,0,0,1,5.25,1.58,0.55,0.55,0,0,0,.09.07,8.539,8.539,0,0,1,2.71,4.22,0.858,0.858,0,0,0,.52-0.4l0.18-.21a1.063,1.063,0,0,0,.09-0.11c0.14-.17.28-0.33,0.42-0.5,0.03-.03.06-0.07,0.09-0.1,0.17-.2.34-0.39,0.52-0.59s0.35-.39.51-0.59c0.2-.25.41-0.48,0.63-0.72,0.16-.17.32-0.36,0.47-0.54a9.583,9.583,0,0,1,.67-0.76c0.17-.18.33-0.37,0.49-0.57,0.23-.29.49-0.57,0.75-0.85,0.24-.26.47-0.52,0.7-0.8a0.9,0.9,0,0,0,.09-0.1l0.18-.21A0.714,0.714,0,0,1,1890.63,1405.31Zm-16.59,4.89c-0.05.02-.09,0.03-0.14,0.05-0.12.05-.24,0.11-0.36,0.17-0.05.03-.1,0.05-0.15,0.08a4.324,4.324,0,0,0-2.06,2.55,4.409,4.409,0,0,0,.4,3.39,4.457,4.457,0,0,0,.44.63c0.03,0.03.05,0.07,0.08,0.1a4.294,4.294,0,0,0,2.61,1.44,4.548,4.548,0,0,0,3.41-.95,1.1,1.1,0,0,1,.11-0.1c0.04-.03.08-0.07,0.12-0.1a4.347,4.347,0,0,0,.21-6.11,0.524,0.524,0,0,1-.1-0.11,4.114,4.114,0,0,0-2.79-1.28h-0.48A3.883,3.883,0,0,0,1874.04,1410.2Zm127.64-2.36a0.832,0.832,0,0,1,.6.36,6.753,6.753,0,0,0,.54.53c0.33,0.28.62,0.59,0.92,0.89,0.28,0.29.57,0.57,0.87,0.83a3.407,3.407,0,0,1,1.25,2.11c0.01,0.12.01,0.25,0.01,0.37a0.34,0.34,0,0,0,.01.1v0.36c0,0.08.01,0.17,0.01,0.25,0,0.23.01,0.47,0.01,0.7,0,0.19.01,0.39,0.01,0.59,0.01,0.46.02,0.93,0.03,1.4,0,0.42.01,0.84,0.02,1.26q0.06,3.03.08,6.07v0.47a8.377,8.377,0,0,1-1.99,5.85,1.5,1.5,0,0,0-.11.13,7.3,7.3,0,0,1-3.9,2.23c-0.04.01-.08,0.02-0.11,0.03a7.636,7.636,0,0,1-3.74-.08c-0.05-.01-0.09-0.03-0.14-0.04a7.733,7.733,0,0,1-3.21-1.88,0.9,0.9,0,0,0-.1-0.09,7.868,7.868,0,0,1-1.88-2.99l-0.06-.18a7.308,7.308,0,0,1-.11-4.22,0.564,0.564,0,0,0,.04-0.12,8.052,8.052,0,0,1,2.05-3.45,1.538,1.538,0,0,0,.12-0.13,7.566,7.566,0,0,1,4.17-2.12,1.223,1.223,0,0,1,.17-0.03,8.176,8.176,0,0,1,4.71.88,0.339,0.339,0,0,0,.28.08,10.317,10.317,0,0,0-.06-1.36c-0.01-.08-0.01-0.16-0.02-0.24-0.02-.18-0.03-0.35-0.05-0.52-0.02-.28-0.04-0.55-0.07-0.83-0.04-.43-0.07-0.87-0.11-1.3-0.07-.78-0.14-1.56-0.2-2.34-0.03-.27-0.05-0.54-0.07-0.81-0.02-.17-0.03-0.34-0.05-0.51a1.942,1.942,0,0,0-.02-0.24l-0.06-.75c0-.04-0.01-0.08-0.01-0.12-0.01-.13-0.02-0.26-0.03-0.38a0.487,0.487,0,0,1-.01-0.12,0.736,0.736,0,0,1,.16-0.59A0.236,0.236,0,0,0,2001.68,1407.84Zm-7.3,14.23a4.412,4.412,0,0,0-1.05,2.58v0.13a4.535,4.535,0,0,0,1.33,3.3,4.486,4.486,0,0,0,3.03,1.2,4.358,4.358,0,0,0,1.91-.45,0.8,0.8,0,0,1,.16-0.08,4.335,4.335,0,0,0,2.05-2.44,4.342,4.342,0,0,0-3.17-5.64A4.536,4.536,0,0,0,1994.38,1422.07Zm-33.85-8.96a2.941,2.941,0,0,1,.6.83c0.02,0.03.04,0.07,0.07,0.11a7.288,7.288,0,0,1,.41,2.83c0.01,0.21.02,0.41,0.03,0.61,0.02,0.4.04,0.79,0.06,1.19,0.02,0.32.03,0.64,0.05,0.96,0,0.05.01,0.09,0.01,0.14,0,0.09.01,0.19,0.01,0.28,0.03,0.62.07,1.24,0.1,1.86,0.05,1.1.11,2.2,0.17,3.3a0.66,0.66,0,0,0,.01.14v0.14c0.04,0.58.07,1.16,0.1,1.74,0.02,0.42.04,0.85,0.06,1.27l0.06,1.08c0.01,0.19.02,0.37,0.03,0.55l0.03,0.6c0,0.05.01,0.11,0.01,0.17a1.23,1.23,0,0,1-.27.96,1.571,1.571,0,0,1-1.07.16,2.843,2.843,0,0,1-.65-0.18c-0.1-.04-0.19-0.08-0.29-0.11-0.07-.03-0.07-0.03-0.15-0.06-0.25-.08-0.5-0.17-0.75-0.25l-0.31-.09-0.45-.15c-0.15-.05-0.31-0.1-0.46-0.15-0.04-.01-0.09-0.03-0.14-0.04a1.164,1.164,0,0,1-.71-0.56l-0.21-.48c-0.03-.08-0.03-0.08-0.07-0.17a0.9,0.9,0,0,1-.14-0.96,4.128,4.128,0,0,1,1.71-.86,2.029,2.029,0,0,0,.26-0.11,0.5,0.5,0,0,0,.13-0.05c0.09-.03.17-0.07,0.25-0.1,0.19-.08.37-0.15,0.56-0.22,0.06-.02.12-0.05,0.18-0.07s0.1-.03.16-0.05a0.2,0.2,0,0,0,.15-0.22,2.5,2.5,0,0,0-.03-0.61l-0.02-.12c-0.01-.14-0.03-0.27-0.05-0.4-0.02-.1-0.03-0.19-0.04-0.28-0.03-.2-0.06-0.39-0.09-0.58-0.03-.25-0.07-0.5-0.1-0.75-0.03-.19-0.06-0.38-0.09-0.58a2.512,2.512,0,0,0-.04-0.27c-0.01-.13-0.03-0.26-0.05-0.39-0.01-.03-0.01-0.07-0.02-0.11a0.882,0.882,0,0,0-.06-0.28,0.937,0.937,0,0,0-.55-0.16c-0.03-.01-0.07-0.01-0.11-0.02-0.14-.02-0.27-0.03-0.4-0.05l-0.28-.03c-0.21-.03-0.41-0.05-0.62-0.08l-0.96-.12c-0.81-.09-1.61-0.19-2.41-0.29-0.62-.08-1.24-0.15-1.87-0.23l-0.96-.12c-0.2-.02-0.4-0.05-0.6-0.07l-0.27-.03c-0.13-.02-0.26-0.03-0.38-0.05l-0.22-.03a1.225,1.225,0,0,1-.81-0.37,0.874,0.874,0,0,1-.08-0.1,8.178,8.178,0,0,1-.45-0.69c-0.07-.1-0.13-0.21-0.2-0.32a0.864,0.864,0,0,1-.1-0.16l-0.51-.78a2.392,2.392,0,0,0-.13-0.21c-0.05-.07-0.09-0.14-0.14-0.21a0.913,0.913,0,0,1-.23-0.65,2.11,2.11,0,0,1,.3-0.6c0.03-.05.06-0.09,0.09-0.14a2.74,2.74,0,0,1,1.7-1.41,1.244,1.244,0,0,0,.16-0.04c0.18-.04.36-0.09,0.53-0.14,0.13-.03.27-0.06,0.4-0.1,0.26-.07.52-0.14,0.79-0.2l2.05-.54c0.25-.07.49-0.13,0.74-0.2,0.09-.02.09-0.02,0.19-0.04,0.42-.12.85-0.23,1.28-0.34a1.543,1.543,0,0,0,.17-0.05c0.29-.07.58-0.15,0.87-0.22l1.58-.42,0.7-.18,0.33-.09c0.16-.04.31-0.08,0.46-0.12a0.573,0.573,0,0,1,.14-0.04A0.851,0.851,0,0,1,1960.53,1413.11Zm-1.24,21.51h0.16a0.956,0.956,0,0,1,.69.2,3.151,3.151,0,0,1,.24.3,0.271,0.271,0,0,0,.23.11,0.543,0.543,0,0,0,.36-0.27,0.56,0.56,0,0,1,.34-0.3,3.514,3.514,0,0,1,1.64.21,1.706,1.706,0,0,1,.27.72,0.5,0.5,0,0,1,.03.13l0.06,0.27c0.03,0.13.06,0.27,0.09,0.41,0.02,0.08.04,0.17,0.06,0.26l0.03,0.12a0.886,0.886,0,0,1,0,.89,2.436,2.436,0,0,1-.44.19c-0.04.01-.07,0.03-0.11,0.04-0.11.04-.22,0.08-0.33,0.11a0.487,0.487,0,0,1-.11.04c-0.27.1-.55,0.19-0.82,0.28a0.358,0.358,0,0,1-.11.04c-0.22.08-.44,0.15-0.66,0.22-0.09.03-.09,0.03-0.17,0.06a2.427,2.427,0,0,1-1.68-.02,0.5,0.5,0,0,0-.13-0.05c-0.1-.04-0.21-0.08-0.31-0.12-0.21-.08-0.42-0.16-0.63-0.23-0.41-.16-0.82-0.31-1.23-0.46l-0.48-.18c-0.21-.08-0.43-0.16-0.64-0.25a1.587,1.587,0,0,1-.2-0.07,1.336,1.336,0,0,1-.18-0.07c-0.05-.02-0.1-0.03-0.15-0.05a0.728,0.728,0,0,1-.3-0.35,0.606,0.606,0,0,1,.15-0.44,1.877,1.877,0,0,1,.42-0.27l0.18-.09c0.06-.03.13-0.06,0.19-0.09s0.14-.06.2-0.09c0.62-.3,1.25-0.57,1.89-0.83,0.11-.04.22-0.09,0.33-0.14A2.258,2.258,0,0,1,1959.29,1434.62Zm-59.77,1.9a11.247,11.247,0,0,1,7.89,2.76,7.193,7.193,0,0,1,1.73,2.94c0.01,0.03.02,0.07,0.03,0.11a7.809,7.809,0,0,1-.91,5.91,8.994,8.994,0,0,1-.92,1.3c-0.05.06-.09,0.11-0.13,0.16a12.328,12.328,0,0,1-1.96,1.93c-0.07.05-.13,0.11-0.19,0.16a14.973,14.973,0,0,1-1.46,1.05c-0.04.03-.08,0.05-0.12,0.08a24.186,24.186,0,0,1-10.54,3.6c-0.05.01-.11,0.01-0.16,0.02-0.54.05-1.08,0.05-1.62,0.05h-0.15a22,22,0,0,1-9.06-2.05c-0.03-.01-0.07-0.03-0.1-0.04a30.162,30.162,0,0,1-9.13-5.82c-0.1-.1-0.21-0.2-0.31-0.31a12.1,12.1,0,0,1-1.07-1.19l-0.09-.12a4,4,0,0,1-1.22-3.07,2.482,2.482,0,0,1,.67-1.34,1.257,1.257,0,0,1,.77-0.24,2.228,2.228,0,0,1,1.01.76c0.45,0.49.91,0.96,1.38,1.44,0.1,0.09.19,0.19,0.29,0.29l0.42,0.42a1.538,1.538,0,0,1,.12.13,1.358,1.358,0,0,1,.12.12c0.04,0.03.07,0.07,0.11,0.1a0.334,0.334,0,0,0,.57-0.01l0.1-.1a1.141,1.141,0,0,0,.11-0.11c0.08-.08.16-0.15,0.24-0.23l0.12-.12c0.19-.19.38-0.37,0.58-0.55a1.1,1.1,0,0,1,.11-0.1,9.45,9.45,0,0,1,.76-0.66c0.14-.11.26-0.22,0.39-0.34a18.131,18.131,0,0,1,3.58-2.35c0.13-.07.25-0.13,0.37-0.2a36.944,36.944,0,0,1,8.07-3.12l0.18-.04A39.378,39.378,0,0,1,1899.52,1436.52Zm-7.95,6.7c-0.12.03-.23,0.06-0.34,0.09a32.769,32.769,0,0,0-5.76,2.17c-0.05.02-.1,0.05-0.16,0.07-0.76.37-1.49,0.78-2.22,1.21-0.13.08-.26,0.16-0.39,0.23-0.66.37-1.29,0.8-1.91,1.23a4.047,4.047,0,0,1-.34.23l-0.16.12a1.3,1.3,0,0,0-.15.1,0.217,0.217,0,0,0-.13.25c0.01,0.05.01,0.09,0.02,0.13a21.328,21.328,0,0,0,7.52,2.25c0.06,0.01.12,0.01,0.18,0.02a24.258,24.258,0,0,0,4.82-.02,1.1,1.1,0,0,0,.18-0.02,24.371,24.371,0,0,0,4.99-1.13c0.05-.02.11-0.04,0.16-0.06a19.571,19.571,0,0,0,6.71-3.68,1,1,0,0,0,.11-0.1,4.538,4.538,0,0,0,.64-0.75c0.03-.03.05-0.07,0.08-0.1a1.85,1.85,0,0,0,.46-1.17,1.653,1.653,0,0,0-.8-0.91C1901.55,1441.15,1895.37,1442.2,1891.57,1443.22Zm39.25,1.71a3.69,3.69,0,0,1,1.5,2.2c0.07,0.98-.79,1.96-1.29,2.76-0.19.32-.39,0.64-0.58,0.96l-0.06.09c-0.37.61-.73,1.22-1.09,1.83l-0.12.21c-0.02.03-.05,0.07-0.07,0.1-0.14.24-.28,0.49-0.43,0.73-0.23.38-.46,0.77-0.69,1.16-0.02.04-.04,0.07-0.06,0.11q-1.365,2.31-2.64,4.68c-0.1.17-.19,0.34-0.28,0.52q-1.32,2.415-2.45,4.92a1.173,1.173,0,0,1-.05.11c-0.51,1.13-.99,2.26-1.44,3.41-0.01.04-.03,0.08-0.04,0.12a25.771,25.771,0,0,0-2.28,8.55v0.17a2.815,2.815,0,0,0,.18,1.11,0.667,0.667,0,0,0,.55.11,5.647,5.647,0,0,0,2.25-1.98,2.2,2.2,0,0,0,.14-0.18c0.9-1.11,1.7-2.31,2.5-3.49l0.84-1.2c0.2-.3.41-0.6,0.62-0.9,0.35-.52.71-1.03,1.06-1.54,0.12-.16.23-0.33,0.35-0.49a1.629,1.629,0,0,1,.11-0.17c0.07-.1.15-0.21,0.22-0.32,0.17-.23.33-0.47,0.5-0.7a16.164,16.164,0,0,0,1.08-1.73c0.02-.04.05-0.08,0.07-0.12,0.42-.75.76-1.54,1.11-2.33,0.4-.93.81-1.85,1.24-2.77l0.06-.12c0.65-1.42,1.33-2.82,2.11-4.18l0.3-.54c1.26-2.32,1.26-2.32,2.25-2.63a1.958,1.958,0,0,1,1.45.43,1.8,1.8,0,0,1,.81,1.16,2.52,2.52,0,0,1-.32,1.31c-0.03.07-.06,0.15-0.09,0.23-0.1.24-.2,0.48-0.31,0.72-0.01.03-.03,0.07-0.04,0.1-0.16.37-.32,0.73-0.48,1.1-0.22.5-.43,1.01-0.65,1.52-0.02.04-.04,0.09-0.06,0.14-0.16.36-.31,0.73-0.47,1.09a1.417,1.417,0,0,1-.08.18,91.905,91.905,0,0,0-4.43,11.14c-0.01.04-.02,0.09-0.03,0.13a5.319,5.319,0,0,0-.21,1.43v0.13a0.868,0.868,0,0,0,.19.62,0.472,0.472,0,0,0,.44.1,2.671,2.671,0,0,0,.89-0.72c0.1-.1.21-0.19,0.32-0.28a6.058,6.058,0,0,0,.6-0.64c0.05-.05.1-0.11,0.15-0.16a21.949,21.949,0,0,0,3.01-4.83c0.09-.18.18-0.36,0.26-0.54,0.12-.24.24-0.47,0.35-0.71a15.785,15.785,0,0,1,2.99-4.53c0.04-.05.09-0.09,0.13-0.14a1.857,1.857,0,0,1,1.44-.53,2.577,2.577,0,0,1,1.61.83,2.316,2.316,0,0,1,.45,1.76,6.664,6.664,0,0,1-.18.8c-0.02.08-.04,0.15-0.06,0.23-0.55,2.07-1.24,4.11-1.93,6.14a8.487,8.487,0,0,0-.7,4.7,0.262,0.262,0,0,0,.19.19,1.217,1.217,0,0,0,.96-0.18,5.008,5.008,0,0,0,1.37-1.22c0.11-.14.23-0.28,0.34-0.41a20.522,20.522,0,0,0,2.85-4.56c0.08-.16.16-0.32,0.24-0.47a116.515,116.515,0,0,0,4.65-11.55,0.381,0.381,0,0,1,.03-0.1c0.14-.37.27-0.74,0.4-1.1,0.02-.07.05-0.13,0.07-0.19,0.04-.12.08-0.23,0.12-0.35a3.6,3.6,0,0,1,1.29-1.96,1.913,1.913,0,0,1,1.52.02,2.433,2.433,0,0,1,1.42,1.44,4.981,4.981,0,0,1-.6,3.24,0.865,0.865,0,0,0-.07.17q-1.02,2.43-2.13,4.82c-0.04.08-.07,0.16-0.11,0.24-0.56,1.22-1.15,2.42-1.75,3.62-0.06.11-.11,0.22-0.17,0.33-0.37.76-.75,1.51-1.16,2.24-0.08.14-.15,0.27-0.22,0.4l-0.08.14c-0.04.08-.04,0.08-0.08,0.15a0.826,0.826,0,0,1-.07.13,0.608,0.608,0,0,0,.01.4,4.1,4.1,0,0,0,3.02-.82,3.992,3.992,0,0,0,1.57-2.3,16.421,16.421,0,0,1,1.57-3.47c0.02-.04.05-0.08,0.07-0.13a20.315,20.315,0,0,1,1.85-2.56c0.02-.03.05-0.06,0.07-0.09,0.44-.51.89-1,1.37-1.48,0.11-.1.21-0.21,0.32-0.32a13.9,13.9,0,0,1,1.21-1.08l0.21-.18a22.021,22.021,0,0,1,6.55-3.67,0.784,0.784,0,0,0,.14-0.05,18.6,18.6,0,0,1,3.59-.94l0.22-.03a6.355,6.355,0,0,1,4.55.8c0.14,0.1.27,0.22,0.4,0.33,0.04,0.04.09,0.08,0.14,0.13a3.494,3.494,0,0,1,1.19,2.21v0.22a1.62,1.62,0,0,1,.01.22,2.666,2.666,0,0,1-.58,1.37c-0.03.05-.06,0.1-0.09,0.14l-0.21.3c-0.17.26-.35,0.52-0.52,0.78-0.04.05-.07,0.1-0.11,0.15-0.32.49-.63,0.99-0.92,1.5-0.11.21-.24,0.41-0.37,0.61-0.34.56-.66,1.15-0.99,1.73-0.07.12-.14,0.25-0.21,0.37-0.38.66-.71,1.34-1.05,2.02l-0.33.66c-0.98,1.94-2.09,4.33-1.42,6.54a1.7,1.7,0,0,0,.87,1.04,1.574,1.574,0,0,0,1.15-.02,1.965,1.965,0,0,0,.25-0.13l0.14-.08a7.517,7.517,0,0,0,1-.66l0.12-.09a6.864,6.864,0,0,0,.64-0.57,3.584,3.584,0,0,1,.29-0.26,10.069,10.069,0,0,0,1.27-1.42,1.826,1.826,0,0,0,.13-0.16,24.791,24.791,0,0,0,1.74-2.58,1.48,1.48,0,0,1,.08-0.13,37.476,37.476,0,0,0,1.91-3.8c0.25-.55.51-1.1,0.76-1.64l0.06-.12,0.06-.12a1.627,1.627,0,0,1,.11-0.23,0.612,0.612,0,0,1,.05-0.12l0.42-.9c0.42-.9.85-1.8,1.29-2.69,0.14-.28.28-0.57,0.41-0.85,0.09-.19.18-0.37,0.28-0.56,0.04-.09.08-0.17,0.12-0.26a5.9,5.9,0,0,1,2.85-3.05,1.836,1.836,0,0,1,1.47.15,2.005,2.005,0,0,1,.74,1.18c0.01,0.05.02,0.09,0.03,0.14a5.027,5.027,0,0,1-.47,2.44,1.393,1.393,0,0,0,.43-0.3,1.2,1.2,0,0,1,.11-0.12c0.1-.11.2-0.22,0.29-0.33a12.242,12.242,0,0,1,3.23-2.49c0.03-.02.07-0.04,0.1-0.06a5.9,5.9,0,0,1,4.02-.89,3.143,3.143,0,0,1,1.91,1.55,5.376,5.376,0,0,1,.25,4.11,14.768,14.768,0,0,1-1,2.27c-0.04.07-.04,0.07-0.08,0.15-0.38.71-.78,1.41-1.17,2.11-0.18.31-.35,0.63-0.52,0.94-0.13.23-.26,0.46-0.39,0.68a4.827,4.827,0,0,0-.97,3.1,2.23,2.23,0,0,0,1.69-.54,8.059,8.059,0,0,0,1.07-.86l0.24-.21a13.458,13.458,0,0,0,1.5-1.52,1.344,1.344,0,0,0,.11-0.14,1.741,1.741,0,0,0,.12-0.14c0.04-.04.07-0.08,0.11-0.12a3.464,3.464,0,0,0,.47-1.12,15.221,15.221,0,0,1,1.99-4.31,1.047,1.047,0,0,0,.08-0.11,11.974,11.974,0,0,1,2.29-2.58c0.05-.05.11-0.1,0.17-0.15a9.87,9.87,0,0,1,7.04-2.3,10.38,10.38,0,0,1,4.88,1.74l0.09,0.06a14.479,14.479,0,0,1,1.39,1.09,0.481,0.481,0,0,0,.11.09,11.5,11.5,0,0,1,.87.84,1.1,1.1,0,0,1,.1.11,0.812,0.812,0,0,1,.1.09,0.356,0.356,0,0,0,.25.13,3.293,3.293,0,0,0,.54-0.69l0.09-.15c0.07-.1.14-0.2,0.2-0.3l0.3-.45c0.56-.86,1.12-1.73,1.66-2.61,0.07-.13.15-0.25,0.22-0.37,0.04-.06.08-0.12,0.12-0.19,0.11-.18.22-0.36,0.33-0.55,0.32-.51.64-1.03,0.95-1.55s0.63-1.02.95-1.52c0.25-.38.48-0.76,0.72-1.14,0.25-.41.51-0.81,0.77-1.21,0.19-.29.38-0.59,0.56-0.88,0.31-.49.63-0.97,0.95-1.45,0.11-.17.22-0.34,0.33-0.5,0.09-.14.18-0.27,0.27-0.41,0.04-.06.09-0.13,0.13-0.2,0.72-1.08.72-1.08,1.37-1.34a2.526,2.526,0,0,1,1.96.51,3.322,3.322,0,0,1,1.34,1.98,2.673,2.673,0,0,1-.57,1.89,1.373,1.373,0,0,1-.13.2c-0.1.17-.21,0.34-0.31,0.51s-0.22.36-.33,0.53c-0.06.1-.12,0.19-0.17,0.28-1.8,2.9-3.57,5.84-5.19,8.85-0.08.16-.17,0.32-0.26,0.47-0.29.53-.57,1.06-0.83,1.6-0.13.25-.26,0.51-0.39,0.76a54.666,54.666,0,0,0-5.2,13.87l-0.03.15a6.627,6.627,0,0,0-.1,1.26v0.19a2.27,2.27,0,0,0,.19,1.09,0.582,0.582,0,0,0,.39.19,2.541,2.541,0,0,0,1.2-.68,1.059,1.059,0,0,1,.12-0.1,6.051,6.051,0,0,0,.74-0.78c0.11-.14.23-0.28,0.34-0.41a22.965,22.965,0,0,0,1.71-2.34c0.12-.17.23-0.33,0.34-0.5a0.6,0.6,0,0,0,.09-0.13c0.28-.4.56-0.8,0.84-1.21,0.32-.46.64-0.93,0.96-1.39,0.37-.54.74-1.08,1.11-1.61l0.87-1.26c0.29-.43.58-0.86,0.88-1.28,0.03-.06.07-0.11,0.1-0.16a2.452,2.452,0,0,1,1.61-1.24,1.634,1.634,0,0,1,1.06.21,1.252,1.252,0,0,1,.44.66,1.4,1.4,0,0,1-.18.85,0.612,0.612,0,0,1-.05.12c-0.23.46-.49,0.9-0.74,1.34l-0.51.93c-0.26.47-.53,0.94-0.8,1.41-0.18.29-.35,0.59-0.52,0.89-0.67,1.19-1.38,2.34-2.15,3.47-0.03.05-.03,0.05-0.07,0.11a35.178,35.178,0,0,1-3.23,4.17c-0.09.1-.18,0.21-0.27,0.32a10.272,10.272,0,0,1-1.59,1.5,0.607,0.607,0,0,0-.1.07,3.957,3.957,0,0,1-2.7.97,0.708,0.708,0,0,1-.15-0.01,5.025,5.025,0,0,1-3.13-2.01,7,7,0,0,1-1.25-5.45,28.1,28.1,0,0,1,1.29-4.84,1.062,1.062,0,0,0-.48.48l-0.08.12c-0.05.08-.1,0.15-0.15,0.23-0.14.21-.28,0.42-0.41,0.63l-0.09.12q-0.3.48-.63,0.93c-0.03.04-.06,0.09-0.09,0.13-0.06.08-.12,0.17-0.18,0.25-0.14.2-.28,0.41-0.42,0.61a39.5,39.5,0,0,1-2.59,3.43,1.059,1.059,0,0,1-.1.12c-0.09.1-.18,0.21-0.28,0.32-0.07.07-.07,0.07-0.14,0.15a8.668,8.668,0,0,1-1.01,1c-0.03.03-.06,0.05-0.09,0.08a6.972,6.972,0,0,1-4.97,1.68,6.66,6.66,0,0,1-.88-0.22c-0.05-.02-0.1-0.03-0.15-0.05a4.944,4.944,0,0,1-2.43-2.26,0.879,0.879,0,0,1-.06-0.1,15.618,15.618,0,0,1-1.75-7.87,2.755,2.755,0,0,0-.72.55,3.982,3.982,0,0,1-.43.39l-0.41.38c-1.06.96-2.28,1.98-3.78,1.95a3.391,3.391,0,0,1-2.14-1.07c-0.03-.03-0.06-0.05-0.09-0.08a4.616,4.616,0,0,1-.91-3.4,6.082,6.082,0,0,1,.23-1.52c0.01-.04.03-0.08,0.04-0.12a13.345,13.345,0,0,1,1.56-3.28c0.03-.06.06-0.11,0.09-0.16,0.31-.5.62-1,0.94-1.49a5.015,5.015,0,0,0,1.11-3.14,0.693,0.693,0,0,0-.27-0.49,2.067,2.067,0,0,0-1.58.43,4.026,4.026,0,0,0-1.01.88c-0.1.12-.21,0.23-0.32,0.35a26.989,26.989,0,0,0-3.25,4.66,1.4,1.4,0,0,1-.1.16c-0.46.77-.9,1.56-1.33,2.35-0.11.2-.23,0.41-0.34,0.61-0.28.49-.54,0.98-0.8,1.47-0.05.08-.09,0.17-0.13,0.25-0.09.16-.17,0.32-0.26,0.49-0.1.19-.2,0.38-0.31,0.58-0.31.6-.61,1.2-0.9,1.82-0.13.26-.25,0.51-0.38,0.77-0.67,1.37-1.27,2.75-1.83,4.17-1.17,2.94-1.17,2.94-2.02,3.37a2.022,2.022,0,0,1-1.6-.01,2.646,2.646,0,0,1-1.44-1.53,7.314,7.314,0,0,1-.21-2.19h-0.16a1.572,1.572,0,0,0-.2.23,7.871,7.871,0,0,1-3.05,2.46,1.586,1.586,0,0,1-.18.08,4.416,4.416,0,0,1-3.35.07,4.214,4.214,0,0,1-2.29-2.29,7.241,7.241,0,0,1-.38-2.26H1968l-0.04.1a7.147,7.147,0,0,1-1.94,2.05c-0.06.05-.12,0.09-0.18,0.14a8.312,8.312,0,0,1-5.89,1.77,5.675,5.675,0,0,1-.69-0.15c-0.06-.02-0.13-0.04-0.19-0.06a5.669,5.669,0,0,1-2.22-1.21,1.47,1.47,0,0,1-.13-0.1,7.835,7.835,0,0,1-2.35-4.9,1.344,1.344,0,0,0-.62.28,4.815,4.815,0,0,1-3.56.9c-0.18-.04-0.36-0.08-0.54-0.13a0.919,0.919,0,0,0-.61-0.06,2.142,2.142,0,0,0-.16.27c-0.03.06-.07,0.12-0.1,0.18s-0.07.12-.1,0.19a18.227,18.227,0,0,1-2.68,3.72c-0.09.1-.18,0.19-0.27,0.28a6.576,6.576,0,0,1-4.25,2.31,2.821,2.821,0,0,1-2.03-1.03,4.143,4.143,0,0,1-.57-0.86c-0.02-.04-0.04-0.07-0.06-0.11a7.272,7.272,0,0,1-.54-1.33l-0.03-.12a12.384,12.384,0,0,1-.29-2.2,2.458,2.458,0,0,0-.02-0.28c-0.02-.23-0.03-0.46-0.05-0.69a0.506,0.506,0,0,0-.33.26l-0.09.12a0.71,0.71,0,0,1-.1.14c-0.07.1-.14,0.19-0.2,0.29a1.431,1.431,0,0,0-.11.15c-0.58.79-1.2,1.56-1.84,2.3-0.07.08-.13,0.15-0.19,0.23a14.381,14.381,0,0,1-2.03,1.95c-0.05.04-.1,0.08-0.16,0.12a4.834,4.834,0,0,1-3.3,1.31,2.723,2.723,0,0,1-1.75-1.12,8.364,8.364,0,0,1-1.28-4.27,3.756,3.756,0,0,0-.56.69,1.882,1.882,0,0,1-.16.23,0.834,0.834,0,0,1-.08.12,25.02,25.02,0,0,1-1.78,2.32,1.27,1.27,0,0,0-.1.12,14.514,14.514,0,0,1-1.93,1.91,1.826,1.826,0,0,0-.16.13,4.282,4.282,0,0,1-3.15,1.11,5.294,5.294,0,0,1-3.2-2.22,7.244,7.244,0,0,1-1.02-5.61c0.24-1.3.63-2.58,0.99-3.85a0.983,0.983,0,0,0,.05-0.16c0.01-.05.03-0.1,0.04-0.15,0.02-.07.02-0.07,0.04-0.13a0.683,0.683,0,0,1,.09-0.22h-0.17a0.564,0.564,0,0,1-.04.12,2.848,2.848,0,0,1-.25.45l-0.12.16-0.12.18a1.629,1.629,0,0,1-.11.17c-0.08.11-.15,0.23-0.23,0.34-0.12.17-.23,0.35-0.35,0.52-0.16.24-.32,0.48-0.49,0.72a1.054,1.054,0,0,1-.07.11c-0.08.12-.17,0.24-0.25,0.36a1.463,1.463,0,0,1-.09.13,34.151,34.151,0,0,1-2.82,3.65c-0.1.11-.2,0.22-0.3,0.34-0.24.27-.48,0.54-0.73,0.8-0.06.07-.13,0.14-0.19,0.21a7.129,7.129,0,0,1-3.07,1.85c-0.03.01-.07,0.02-0.11,0.03a4.813,4.813,0,0,1-3.07-.03c-0.06-.02-0.11-0.04-0.17-0.06a5.977,5.977,0,0,1-2.33-2.05l-0.06-.09a8.575,8.575,0,0,1-.82-1.95l-0.04-.12a19.609,19.609,0,0,1-.87-3.86c-0.01-.05-0.01-0.1-0.02-0.15a16.253,16.253,0,0,1,2.97-11.96,11.831,11.831,0,0,1,1.77-1.9l0.18-.15a11.291,11.291,0,0,1,1.53-1.06,1.054,1.054,0,0,1,.11-0.07,9.6,9.6,0,0,1,7.23-.93,11.9,11.9,0,0,1,5.45,3.41c0.05,0.05.09,0.1,0.14,0.15a1.661,1.661,0,0,0,.13.14,0.5,0.5,0,0,0,.46.1,0.658,0.658,0,0,0,.17-0.23c0.03-.06.06-0.11,0.09-0.16s0.06-.11.09-0.17c0.07-.11.14-0.23,0.21-0.35,0.03-.06.07-0.12,0.1-0.18,0.16-.26.32-0.51,0.48-0.77,0.33-.5.64-1.01,0.95-1.52,0.22-.35.43-0.7,0.65-1.04,0.26-.41.52-0.83,0.77-1.24,0.28-.46.57-0.91,0.85-1.37,0.23-.35.44-0.7,0.66-1.05,0.58-.92,1.16-1.84,1.74-2.75,0.1-.16.2-0.31,0.29-0.46,0.46-.72.92-1.42,1.39-2.13,0.07-.1.14-0.2,0.21-0.31,0.09-.14.19-0.29,0.29-0.44a1.463,1.463,0,0,0,.09-0.13c0.59-.89.59-0.89,0.92-1.03,0.05-.02.09-0.04,0.14-0.06A2.2,2.2,0,0,1,1930.82,1444.93Zm41.6,15.16c-0.1.03-.1,0.03-0.19,0.06-0.07.03-.14,0.05-0.21,0.08l-0.1.04c-0.66.23-1.3,0.48-1.94,0.76l-0.15.06a21.876,21.876,0,0,0-4.41,2.52l-0.31.22a22.268,22.268,0,0,0-1.78,1.43c-0.05.04-.1,0.09-0.15,0.13a11.278,11.278,0,0,0-1.39,1.46l-0.09.12a12.046,12.046,0,0,0-1.23,1.92,0.37,0.37,0,0,0-.05.11,6.627,6.627,0,0,0-.55,1.42c-0.02.07-.02,0.07-0.04,0.15a3.653,3.653,0,0,0,.37,2.71,2.262,2.262,0,0,0,1.42,1.03,4.08,4.08,0,0,0,2.89-.95,14.332,14.332,0,0,0,3.2-4.13c0.08-.15.17-0.29,0.25-0.44,0.94-1.6,1.79-3.25,2.63-4.91a20.752,20.752,0,0,1,2.06-3.41,1.059,1.059,0,0,1,.1-0.12,0.7,0.7,0,0,1,.08-0.1,0.254,0.254,0,0,0,.06-0.27A1.291,1.291,0,0,0,1972.42,1460.09Zm-65.93,4.54c-0.15.17-.28,0.34-0.42,0.52-0.05.06-.09,0.12-0.14,0.18-1.54,1.9-2.87,4.5-2.7,7.01a2.72,2.72,0,0,0,.31,1.05c0.04,0.06.07,0.12,0.1,0.17a1.673,1.673,0,0,0,1,.71,4.97,4.97,0,0,0,3.5-1.5c0.21-.16.4-0.34,0.6-0.52,0.07-.07.15-0.13,0.22-0.2,0.34-.29.66-0.6,0.98-0.92,0.09-.1.19-0.19,0.28-0.29,0.32-.31.62-0.63,0.91-0.97,0.05-.05.1-0.11,0.15-0.17,0.36-.43.71-0.86,1.06-1.31,0.06-.08.12-0.15,0.18-0.23,0.13-.17.26-0.34,0.39-0.5s0.26-.35.4-0.52c0.32-.41.63-0.82,0.94-1.23,0.15-.19.29-0.38,0.44-0.57,0.37-.48.74-0.97,1.11-1.45a0.642,0.642,0,0,1,.1-0.13c0.46-.61.46-0.61,0.89-1.25a1.682,1.682,0,0,0-.65-0.43l-0.12-.06C1912.48,1460.42,1908.94,1461.92,1906.49,1464.63Zm103.88-1.9c-0.05.03-.1,0.07-0.15,0.1a9.35,9.35,0,0,0-1.17,1c-0.04.03-.07,0.07-0.11,0.1a12.73,12.73,0,0,0-1.21,1.33c-0.05.06-.1,0.12-0.15,0.19-1.46,1.86-2.84,4.51-2.58,6.95a2.392,2.392,0,0,0,.81,1.6,1.837,1.837,0,0,0,1.41.24,7.932,7.932,0,0,0,3.35-2.05c0.1-.1.21-0.19,0.32-0.29,0.27-.23.52-0.48,0.77-0.73l0.24-.24c0.29-.29.57-0.58,0.83-0.89l0.17-.2c0.37-.42.73-0.85,1.07-1.3,0.13-.16.27-0.33,0.4-0.5,0.49-.6.95-1.22,1.42-1.84l0.75-.99c0.23-.3.47-0.61,0.71-0.92,0.07-.09.14-0.18,0.21-0.28,0.12-.15.23-0.31,0.35-0.46a1.431,1.431,0,0,0,.11-0.15l0.21-.27c0.06-.08.12-0.16,0.18-0.23a0.881,0.881,0,0,0,.21-0.42,0.986,0.986,0,0,0-.55-0.38c-0.04-.02-0.09-0.04-0.14-0.07A7.606,7.606,0,0,0,2010.37,1462.73Zm-138.15-11.76a1.518,1.518,0,0,1,.63.21c0.08,0.05.08,0.05,0.17,0.1a1.739,1.739,0,0,0,.18.11c0.09,0.06.19,0.11,0.29,0.17a2.755,2.755,0,0,0,.29.17c0.26,0.15.51,0.3,0.77,0.45,0.45,0.26.91,0.52,1.36,0.79l0.09,0.06a1.2,1.2,0,0,1,.34.25,1.417,1.417,0,0,1-.05.58,3.179,3.179,0,0,0,.32,2.34,6.031,6.031,0,0,0,3.95,2.23c0.46,0.1.92,0.18,1.39,0.24,0.04,0,.09.01,0.14,0.01a25.374,25.374,0,0,0,4.93.01c1.11-.08,1.11-0.08,1.61.35a3.942,3.942,0,0,1,.86,2.75,2.032,2.032,0,0,1-.51,1.38,2.069,2.069,0,0,1-.7.34l-0.11.03c-0.12.03-.24,0.07-0.36,0.1-0.09.02-.17,0.05-0.26,0.07l-0.55.15c-0.3.08-.59,0.16-0.88,0.24s-0.6.17-.9,0.25c-0.93.26-1.86,0.51-2.78,0.77-0.16.05-.32,0.1-0.48,0.14a43.013,43.013,0,0,0-6.9,2.4,3.389,3.389,0,0,1-.39.18c-0.65.3-1.27,0.64-1.9,0.99l-0.15.09c-1.98,1.09-3.87,2.45-4.57,4.7a4.014,4.014,0,0,0,.31,3,4.936,4.936,0,0,0,1.94,1.77l0.1,0.06a9.336,9.336,0,0,0,4.56,1h0.14a15.967,15.967,0,0,0,2.07-.12,0.858,0.858,0,0,1,.17-0.03,20.507,20.507,0,0,0,9.66-4.42c0.04-.03.07-0.06,0.11-0.09,0.44-.35.87-0.71,1.28-1.09,0.15-.14.29-0.27,0.44-0.39,0.28-.26.55-0.53,0.81-0.8l0.45-.45a10.352,10.352,0,0,0,1.09-1.2c0.06-.07.12-0.14,0.18-0.22,0.33-.42.66-0.86,0.98-1.29a21.658,21.658,0,0,1,1.48-1.84l0.11-.13c0.22-.24.44-0.48,0.67-0.72,0.04-.04.08-0.09,0.13-0.14a0.944,0.944,0,0,1,.6-0.22,1.384,1.384,0,0,1,1.03.58,3.845,3.845,0,0,1,.65,2.61,9.485,9.485,0,0,1-1.65,3.3,0.607,0.607,0,0,0-.07.1,21.606,21.606,0,0,1-2.05,2.61c-0.11.11-.21,0.23-0.31,0.35-0.25.28-.52,0.55-0.78,0.81-0.05.05-.1,0.1-0.15,0.16-0.29.28-.57,0.55-0.87,0.8-0.07.06-.14,0.12-0.2,0.18-0.4.35-.81,0.69-1.24,1.01-0.07.05-.14,0.11-0.21,0.16-0.73.55-1.49,1.06-2.26,1.57-0.04.02-.08,0.05-0.13,0.08a26.58,26.58,0,0,1-5.47,2.72c-0.05.02-.11,0.04-0.16,0.06a21.763,21.763,0,0,1-6.82,1.26h-0.21a13.259,13.259,0,0,1-4.95-.88c-0.05-.02-0.09-0.03-0.13-0.05a9.207,9.207,0,0,1-2.83-1.82,2.746,2.746,0,0,0-.26-0.22,3.388,3.388,0,0,1-.52-0.55c-0.04-.04-0.08-0.09-0.12-0.13a9.188,9.188,0,0,1-2.02-4.76l-0.03-.18a12.187,12.187,0,0,1,2.75-8.73c0.11-.15.23-0.29,0.35-0.43a1.063,1.063,0,0,1,.09-0.11,2,2,0,0,1,.19-0.22h0.11c0.01-.03.03-0.07,0.04-0.1a1.278,1.278,0,0,1,.23-0.29l0.09-.09a144493472551.633,144493472551.633,0,0,1,.22-0.2,18.231,18.231,0,0,1,3.59-2.45,1.093,1.093,0,0,1,.15-0.08,43.591,43.591,0,0,1,3.98-1.85,0.493,0.493,0,0,0-.06-0.27c-0.12-.11-0.23-0.2-0.36-0.3a4.789,4.789,0,0,1-1.14-1.15,1.463,1.463,0,0,1-.09-0.13,10.854,10.854,0,0,1-.83-1.39c-0.03-.06-0.06-0.11-0.09-0.17a9.5,9.5,0,0,1-.95-3.84c0-.07-0.01-0.14-0.01-0.21a9.939,9.939,0,0,1,.34-3.03C1872.19,1451.01,1872.2,1450.99,1872.22,1450.97Zm59.65,40.04a0.533,0.533,0,0,1,.19.35,2.628,2.628,0,0,1-1.01,1.26,0.938,0.938,0,0,1-.5-0.17,3.3,3.3,0,0,0-1.95-.38,0.563,0.563,0,0,0-.29.21,0.7,0.7,0,0,0,.02.45,3.511,3.511,0,0,0,1.41.54c1.84,0.48,1.84.48,2.32,1.17a2.474,2.474,0,0,1,.13,1.96,2.2,2.2,0,0,1-1.17,1.28,5.251,5.251,0,0,1-4.06-.17,1.684,1.684,0,0,1-1-.6,0.567,0.567,0,0,1,.07-0.44c0.09-.13.18-0.25,0.28-0.37a1.059,1.059,0,0,1,.1-0.12,1.941,1.941,0,0,1,.49-0.5,1.274,1.274,0,0,1,.73.3,3.183,3.183,0,0,0,1.73.43h0.39a0.868,0.868,0,0,0,.34-0.12,0.856,0.856,0,0,0,.05-0.5,1.127,1.127,0,0,0-.71-0.41c-0.04-.01-0.08-0.02-0.13-0.03-0.13-.04-0.27-0.07-0.4-0.11-1.97-.51-1.97-0.51-2.5-1.32a2.308,2.308,0,0,1,1.13-3.2A5.192,5.192,0,0,1,1931.87,1491.01Zm19.65-.2a1.111,1.111,0,0,1,.16.07,0.489,0.489,0,0,1,.39.37,1.124,1.124,0,0,1-.37.73c-0.04.04-.07,0.09-0.11,0.13a1.438,1.438,0,0,1-.51.51,2.682,2.682,0,0,1-.68-0.27,3.274,3.274,0,0,0-1.34-.3h-0.13a0.833,0.833,0,0,0-.49.12,0.336,0.336,0,0,0-.15.32,0.3,0.3,0,0,0,.16.3,1.777,1.777,0,0,0,.5.24l0.1,0.03c0.29,0.09.58,0.17,0.87,0.26,1.8,0.51,1.8.51,2.2,1.17a2.681,2.681,0,0,1-.01,2.15,2.107,2.107,0,0,1-1.25,1.09,5.532,5.532,0,0,1-4.2-.38c-0.08-.04-0.08-0.04-0.15-0.07-0.05-.03-0.1-0.05-0.14-0.07s-0.09-.04-0.13-0.06a0.824,0.824,0,0,1-.27-0.29,1.174,1.174,0,0,1,.37-0.78l0.09-.12a2.914,2.914,0,0,1,.41-0.48,1.045,1.045,0,0,1,.64.21,3.5,3.5,0,0,0,1.89.52h0.13a0.865,0.865,0,0,0,.64-0.18,0.555,0.555,0,0,0,.02-0.42,0.723,0.723,0,0,0-.5-0.36c-0.08-.02-0.16-0.05-0.24-0.07-0.1-.02-0.19-0.05-0.28-0.07l-0.42-.12a3.566,3.566,0,0,1-2.28-1.27,2.332,2.332,0,0,1-.19-1.68,2.252,2.252,0,0,1,1.13-1.41c0.04-.02.07-0.04,0.11-0.06a0.37,0.37,0,0,0,.11-0.05A4.848,4.848,0,0,1,1951.52,1490.81Zm60.65,0.24,0.23,0.2c0.04,0.04.08,0.07,0.12,0.11a3.565,3.565,0,0,1,1.15,2.27,4.141,4.141,0,0,1-1.06,3.17,4.069,4.069,0,0,1-2.84,1.23,4.3,4.3,0,0,1-3.06-1.2,4.248,4.248,0,0,1-.9-1.46l-0.06-.14a3.923,3.923,0,0,1,.31-2.89,4.23,4.23,0,0,1,2.55-2A4.3,4.3,0,0,1,2012.17,1491.05Zm-3.89,1.63a2.215,2.215,0,0,0-.55,1.65,2.323,2.323,0,0,0,.82,1.48,2.266,2.266,0,0,0,1.63.31,2.111,2.111,0,0,0,1.23-1.08,2.211,2.211,0,0,0,.06-1.62,2.162,2.162,0,0,0-1.08-1.2A2,2,0,0,0,2008.28,1492.68Zm-120.43-2.33h1.12a0.4,0.4,0,0,1,.4.13c0.01,0.15.01,0.3,0.01,0.45v0.6c0,0.11,0,.22.01,0.32v0.68c-0.01.29,0,.57,0,0.86v0.99a4.008,4.008,0,0,1-.74,2.86,3.277,3.277,0,0,1-2.53.73,2.826,2.826,0,0,1-1.92-.84,0.987,0.987,0,0,1-.19-0.4,0.818,0.818,0,0,1,.36-0.48,0.7,0.7,0,0,0,.1-0.08c0.06-.06.13-0.12,0.19-0.17,0.08-.07.15-0.13,0.22-0.2a1.342,1.342,0,0,1,.26-0.21,0.961,0.961,0,0,1,.55.25,1.277,1.277,0,0,0,.99.25,0.6,0.6,0,0,0,.38-0.17,3.53,3.53,0,0,0,.19-1.55v-1.64c0-.33,0-0.66.01-1v-0.88a0.5,0.5,0,0,1,.09-0.42A0.871,0.871,0,0,1,1887.85,1490.35Zm6.15,0.01h1.12a0.7,0.7,0,0,1,.46.12,1.511,1.511,0,0,1,.01.38v0.76c0,0.24-.01.48-0.01,0.71,0,0.38,0,.75-0.01,1.13v0.39a2.94,2.94,0,0,0,.39,1.91,1.533,1.533,0,0,0,1.09.34,1.445,1.445,0,0,0,.92-0.41,3.019,3.019,0,0,0,.33-1.78v-1.08c0.01-.41.01-0.83,0.01-1.24v-0.44c0-.09.01-0.17,0.01-0.26v-0.13c0-.27,0-0.27.06-0.33,0.15-.01.29-0.01,0.44-0.01h1.23c0.3,0,.3,0,0.36.06,0.01,0.13.01,0.26,0.01,0.4v2.21c0.01,0.2.01,0.4,0.01,0.6v0.29a4.343,4.343,0,0,1-.84,3.09,3.84,3.84,0,0,1-2.85.95,3.618,3.618,0,0,1-2.56-1.06c-0.98-1.18-.75-2.98-0.75-4.42v-0.15c0-.66.02-1.31,0.06-1.96A0.978,0.978,0,0,1,1894,1490.36Zm11.11,0h1.12a0.368,0.368,0,0,1,.39.12c0.01,0.14.02,0.27,0.02,0.41v0.85c0,0.42.01,0.84,0.01,1.25v1.06a2.364,2.364,0,0,0,.43,1.74,1.5,1.5,0,0,0,1.06.31,1.383,1.383,0,0,0,.9-0.4,3.427,3.427,0,0,0,.34-2v-0.27c0-.24,0-0.48-0.01-0.72v-1.55a1.927,1.927,0,0,0-.01-0.24v-0.22a0.515,0.515,0,0,1,.06-0.27,2.864,2.864,0,0,1,.92-0.07c0.13,0,.25,0,0.38-0.01h0.45a0.41,0.41,0,0,1,.27.08,0.638,0.638,0,0,1,.09.45v1.82c-0.01,1.44-.01,1.44-0.04,2.13a0.487,0.487,0,0,1-.01.12,3.3,3.3,0,0,1-1.01,2.29,3.929,3.929,0,0,1-2.8.78,3.552,3.552,0,0,1-2.37-1.01,4.709,4.709,0,0,1-.78-3.19v-2.26a2.62,2.62,0,0,0-.01-0.28v-0.52a1.634,1.634,0,0,1,.02-0.28A0.9,0.9,0,0,1,1905.11,1490.36Zm11.5-.01h0.82a0.359,0.359,0,0,1,.27.09,0.455,0.455,0,0,1,.1.36v0.33a1.087,1.087,0,0,1,.01.18v0.56c0.01,0.12.01,0.25,0.01,0.37,0,0.31.01,0.62,0.01,0.93,0.06-.05.12-0.1,0.19-0.15a0.9,0.9,0,0,1,.1-0.09,3.763,3.763,0,0,0,.34-0.35,1.741,1.741,0,0,0,.12-0.14,0.934,0.934,0,0,0,.13-0.15,3.329,3.329,0,0,0,.25-0.28c0.18-.19.36-0.39,0.53-0.59l0.48-.54c0.09-.1.18-0.21,0.27-0.32a0.49,0.49,0,0,1,.28-0.19c0.16,0,.32-0.01.48,0h1.61a0.709,0.709,0,0,1,.06.22,1.122,1.122,0,0,1-.15.19,0.943,0.943,0,0,0-.1.1l-0.11.11c-0.07.07-.14,0.15-0.22,0.22a1,1,0,0,1-.1.11l-0.3.33-0.42.48-0.54.6a2.725,2.725,0,0,1-.23.25c-0.04.05-.09,0.1-0.13,0.15a0.8,0.8,0,0,0-.13.13,0.649,0.649,0,0,0-.16.46,2.3,2.3,0,0,0,.23.37c0.03,0.04.05,0.07,0.08,0.11,0.05,0.07.1,0.15,0.16,0.23,0.12,0.16.23,0.33,0.34,0.49,0.09,0.14.18,0.27,0.27,0.4,0.21,0.31.42,0.62,0.63,0.92,0.16,0.23.32,0.46,0.47,0.69a0.71,0.71,0,0,1,.1.14c0.07,0.09.13,0.19,0.19,0.28l0.09,0.12c0.03,0.04.05,0.07,0.08,0.11a0.806,0.806,0,0,1,.11.26c-0.33.02-.66,0.04-1,0.05-0.11,0-.22.01-0.34,0.02-0.91.05-.91,0.05-1.19-0.14a3.229,3.229,0,0,1-.44-0.65,3.656,3.656,0,0,0-.26-0.42c-0.11-.15-0.21-0.31-0.31-0.47-0.1-.14-0.19-0.29-0.29-0.43-0.03-.05-0.06-0.09-0.09-0.14s-0.06-.09-0.09-0.13-0.05-.08-0.08-0.12a0.369,0.369,0,0,0-.3-0.15,1.417,1.417,0,0,0-.61.88c-0.02.16-.02,0.16-0.03,0.33-0.01.06-.01,0.12-0.02,0.18v0.54c0.01,0.1.01,0.21,0.02,0.31a0.408,0.408,0,0,1-.11.3,0.668,0.668,0,0,1-.5.13h-0.21a0.448,0.448,0,0,1-.11-0.01h-0.33c-0.61,0-.61,0-0.8-0.19a1.325,1.325,0,0,1-.06-0.45v-2.62c0-.42-0.01-0.85-0.01-1.28v-2.78a0.5,0.5,0,0,1,.02-0.12A1.588,1.588,0,0,1,1916.61,1490.35Zm22.04,0.01h3.28a0.388,0.388,0,0,1,.41.12c0.01,0.16.01,0.16,0.01,0.36v0.67c0,0.56,0,.56-0.07.62-0.11.01-.23,0.01-0.34,0.01h-0.35c-0.12,0-.25,0-0.37.01-0.36,0-.71,0-1.07.01h-0.89c-0.12,0-.24.01-0.35,0.01h-0.2a0.374,0.374,0,0,0-.33.12,3.418,3.418,0,0,0-.01.45v0.12a0.437,0.437,0,0,0,.07.37c0.1,0,.21.01,0.31,0.01h0.64c0.32,0.01.64,0.01,0.96,0.01,0.19,0,.39,0,0.58.01h0.71a0.338,0.338,0,0,1,.25.1,0.578,0.578,0,0,1,.08.39v0.54a0.753,0.753,0,0,1-.13.64,2.5,2.5,0,0,1-.33.03h-0.67c-0.2.01-.4,0.01-0.61,0.01s-0.41,0-.62.01c-0.41,0-.82,0-1.23.01v0.59a0.867,0.867,0,0,0,.06.45h0.14c0.45,0.01.89,0.01,1.33,0.02,0.23,0,.46.01,0.69,0.01s0.44,0,.66.01h0.61a1.34,1.34,0,0,0,.2.01,0.515,0.515,0,0,1,.27.06v1.28a1.477,1.477,0,0,0,.01.21c-0.01.16-.01,0.16-0.07,0.21a1.7,1.7,0,0,1-.23.01h-2.28c-0.35,0-.71.01-1.06,0.01h-2.2a0.291,0.291,0,0,1-.22-0.13,2.267,2.267,0,0,1-.01-0.28v-3.97c0-.37,0-0.75.01-1.12v-1.7a0.322,0.322,0,0,1,.06-0.23C1937.12,1490.38,1937.88,1490.36,1938.65,1490.36Zm19.58,0h3.51a1.354,1.354,0,0,1,.49.07,1.976,1.976,0,0,1,.07.84v0.6a0.424,0.424,0,0,1-.12.31,3.553,3.553,0,0,1-.46.03h-0.71c-0.14,0-.28.01-0.42,0.01h-0.13a2.073,2.073,0,0,0-.32.02,0.52,0.52,0,0,0-.12.39v0.29a0.808,0.808,0,0,0-.01.16v0.88c-0.01.32-.01,0.63-0.01,0.95s-0.01.65-.01,0.97c0,0.64-.01,1.27-0.01,1.91a1.311,1.311,0,0,1-.52.07h-1.12a1.8,1.8,0,0,1-.29-0.02,0.5,0.5,0,0,1-.12-0.38v-0.45c-0.01-.18-0.01-0.35-0.01-0.52v-0.37c0-.31-0.01-0.63-0.01-0.95s0-.65-0.01-0.97c0-.63-0.01-1.27-0.01-1.91a1.515,1.515,0,0,0-.56-0.07h-0.14c-0.19,0-.38-0.01-0.58-0.01-0.14,0-.28-0.01-0.42-0.01h-0.13c-0.31-.01-0.31-0.01-0.37-0.07,0-.12-0.01-0.24-0.01-0.36v-1.13c0.01-.16.01-0.16,0.07-0.21a1.942,1.942,0,0,1,.24-0.02c0.05,0,.1-0.01.15-0.01h0.17a0.915,0.915,0,0,1,.17-0.01C1957.06,1490.37,1957.65,1490.36,1958.23,1490.36Zm8.36-.01h1.12a0.466,0.466,0,0,1,.38.08,0.749,0.749,0,0,1,.09.49v0.78c-0.01.24-.01,0.48-0.01,0.72,0,0.38-.01.77-0.01,1.15v0.39a2.807,2.807,0,0,0,.33,1.74,1.5,1.5,0,0,0,2.07-.01,2.939,2.939,0,0,0,.32-1.78v-0.3c0.01-.26.01-0.51,0.01-0.77v-1.25c0.01-.14.01-0.29,0.01-0.43v-0.39a0.378,0.378,0,0,1,.12-0.4c0.14-.01.27-0.01,0.4-0.01h1.12a0.682,0.682,0,0,1,.46.12,2.614,2.614,0,0,1,.02.39v3.01a10.7,10.7,0,0,1-.07,1.39c0,0.04-.01.08-0.01,0.12a2.937,2.937,0,0,1-1.03,1.93,4.243,4.243,0,0,1-3.05.66,3.382,3.382,0,0,1-2.18-1.12c-0.88-1.2-.67-2.91-0.67-4.32v-0.63c-0.01-.16-0.01-0.32-0.01-0.49v-0.73a0.428,0.428,0,0,1,.09-0.26A0.871,0.871,0,0,1,1966.59,1490.35Zm11.11,0.01h1.12a0.368,0.368,0,0,1,.39.12,2.946,2.946,0,0,1,.01.42,0.57,0.57,0,0,1,.01.13v0.73c0,0.42,0,.85.01,1.27v1.07a2.253,2.253,0,0,0,.43,1.69,1.61,1.61,0,0,0,1.07.31,1.439,1.439,0,0,0,.77-0.3,1.849,1.849,0,0,0,.4-1.24v-0.14a2.528,2.528,0,0,0,.01-0.28v-0.44c0-.37.01-0.74,0.01-1.11,0-.31.01-0.62,0.01-0.93v-0.44a2.437,2.437,0,0,0,.01-0.27v-0.12a0.624,0.624,0,0,1,.06-0.4c0.28-.01.56-0.01,0.84-0.01h0.83c0.11,0,.21,0,0.31.01a1.455,1.455,0,0,1,.12.86v1.07c-0.01,3.82-.01,3.82-0.97,4.81a3.878,3.878,0,0,1-2.88.85,3.094,3.094,0,0,1-3.15-3.5v-2.29c-0.01-.21-0.01-0.42-0.01-0.62v-0.83a1.847,1.847,0,0,1,.02-0.3A0.9,0.9,0,0,1,1977.7,1490.36Zm11,0h2.45a4.4,4.4,0,0,1,3.28,1.27l0.09,0.09a3.6,3.6,0,0,1,.87,2.56,3.426,3.426,0,0,1-1.07,2.41c-0.03.03-.06,0.07-0.09,0.1a3.668,3.668,0,0,1-2.27,1.05c-0.29.02-.57,0.02-0.85,0.02h-0.74c-0.22-.01-0.43-0.01-0.65-0.01h-1.25a0.2,0.2,0,0,1-.19-0.06,2.715,2.715,0,0,1-.01-0.28v-4.03c-0.01-.34-0.01-0.68-0.01-1.02v-1.85C1988.29,1490.34,1988.46,1490.36,1988.7,1490.36Zm1.66,1.93v1.04c-0.01.17-.01,0.34-0.01,0.51v1.93a0.229,0.229,0,0,0,.12.26,3.414,3.414,0,0,0,.55.02h0.16a2.169,2.169,0,0,0,1.6-.62,1.879,1.879,0,0,0,.51-1.43,1.949,1.949,0,0,0-.58-1.26,2.092,2.092,0,0,0-1.32-.51h-0.85A0.169,0.169,0,0,0,1990.36,1492.29Zm9.64-1.93h1.12a0.549,0.549,0,0,1,.4.07v7.41h-2.03v-7.41A0.978,0.978,0,0,1,2000,1490.36Zm-127.23,2.04c0.1,0.08.1,0.08,0.2,0.17,0.04,0.03.08,0.07,0.12,0.1l0.67,0.64,0.14,0.14,0.14,0.14a1.358,1.358,0,0,1,.12.12,0.617,0.617,0,0,1,.15.45,1.608,1.608,0,0,1-.44.7l-0.08.08c-0.06.06-.12,0.11-0.17,0.17-0.09.09-.18,0.17-0.26,0.26l-0.17.17-0.15.15a0.973,0.973,0,0,1-.54.23,1.541,1.541,0,0,1-.7-0.45l-0.08-.08c-0.06-.06-0.11-0.12-0.17-0.17-0.09-.09-0.17-0.18-0.26-0.27-0.55-.55-0.55-0.55-0.55-0.86a3.263,3.263,0,0,1,.98-1.19,1.848,1.848,0,0,1,.14-0.14c0.04-.05.09-0.09,0.13-0.14a1.538,1.538,0,0,1,.13-0.12A0.594,0.594,0,0,1,1872.77,1492.4Zm152.65,0a2.5,2.5,0,0,1,.34.31l0.09,0.09a3.833,3.833,0,0,1,.28.29c0.07,0.06.13,0.13,0.19,0.19a1.086,1.086,0,0,1,.56.83,0.648,0.648,0,0,1-.19.48l-0.11.11c-0.04.04-.07,0.08-0.11,0.12l-0.12.12c-0.11.12-.23,0.25-0.35,0.37a1.538,1.538,0,0,1-.13.12,1.123,1.123,0,0,1-.67.49,1.17,1.17,0,0,1-.78-0.42l-0.09-.09c-0.09-.09-0.19-0.19-0.28-0.29l-0.19-.19a1.059,1.059,0,0,1-.54-0.78,1.831,1.831,0,0,1,.73-1.05c0.08-.08.16-0.16,0.23-0.24,0.05-.05.1-0.1,0.16-0.15a1.788,1.788,0,0,0,.13-0.14A0.83,0.83,0,0,1,2025.42,1492.4Z" transform="translate(-1863.5 -1366.03)"/>
</svg>
