<svg xmlns="http://www.w3.org/2000/svg" width="106.312" height="30" viewBox="0 0 106.312 30">
  <defs>
    <style>
      .cls-1 {
        fill: #472c3d;
        fill-rule: evenodd;
      }
    </style>
  </defs>
  <path id="logo" class="cls-1" d="M23.418-.01a7,7,0,0,1,4.915,1.724,4.472,4.472,0,0,1,1.081,1.832l0.02,0.068A4.867,4.867,0,0,1,28.863,7.3a5.588,5.588,0,0,1-.574.814l-0.081.1a7.63,7.63,0,0,1-1.221,1.2l-0.119.1a8.842,8.842,0,0,1-.909.656l-0.074.047a15.063,15.063,0,0,1-6.573,2.249l-0.1.01c-0.337.03-.673,0.033-1.01,0.033H18.108a13.792,13.792,0,0,1-5.648-1.276L12.4,11.2A18.774,18.774,0,0,1,6.706,7.576L6.513,7.383A7.868,7.868,0,0,1,5.847,6.64L5.786,6.562a2.488,2.488,0,0,1-.761-1.91,1.545,1.545,0,0,1,.422-0.835,0.759,0.759,0,0,1,.479-0.15,1.364,1.364,0,0,1,.629.471c0.279,0.308.571,0.6,0.864,0.9L7.6,5.215l0.26,0.262,0.08,0.082L8.011,5.633,8.076,5.7a0.4,0.4,0,0,0,.239.085,0.289,0.289,0,0,0,.117-0.091L8.5,5.63l0.068-.069,0.147-.143,0.076-.075c0.118-.116.239-0.23,0.36-0.344l0.069-.065c0.154-.144.312-0.281,0.478-0.411,0.082-.067.16-0.136,0.239-0.207a11.161,11.161,0,0,1,2.236-1.468L12.4,2.724A22.8,22.8,0,0,1,17.428.781l0.113-.031A24.79,24.79,0,0,1,23.418-.01ZM18.456,4.173l-0.209.054a20.62,20.62,0,0,0-3.594,1.351l-0.1.045c-0.477.228-.934,0.486-1.388,0.756q-0.121.072-.244,0.141c-0.41.233-.8,0.5-1.186,0.768q-0.105.073-.212,0.144l-0.1.071-0.095.063a0.141,0.141,0,0,0-.078.16L11.261,7.8a13.322,13.322,0,0,0,4.694,1.4l0.112,0.01a15.16,15.16,0,0,0,3.006-.01L19.184,9.2a15.026,15.026,0,0,0,3.11-.707l0.1-.034a12.319,12.319,0,0,0,4.181-2.3l0.07-.062a3.405,3.405,0,0,0,.4-0.469L27.1,5.565a1.114,1.114,0,0,0,.286-0.726,1,1,0,0,0-.5-0.568C24.682,2.878,20.829,3.537,18.456,4.173ZM42.93,5.236a2.28,2.28,0,0,1,.934,1.372,3.329,3.329,0,0,1-.8,1.722q-0.183.3-.364,0.6l-0.036.059q-0.345.567-.682,1.14l-0.077.13-0.038.064q-0.134.226-.27,0.452-0.218.362-.431,0.727l-0.038.064c-0.565.965-1.119,1.935-1.648,2.92l-0.175.323c-0.546,1-1.057,2.03-1.527,3.073l-0.03.067c-0.317.7-.619,1.407-0.895,2.126l-0.028.074a16.124,16.124,0,0,0-1.419,5.331c0,0.053,0,.053,0,0.106a1.676,1.676,0,0,0,.114.691,0.4,0.4,0,0,0,.343.069,3.489,3.489,0,0,0,1.4-1.233L37.354,25c0.558-.7,1.056-1.442,1.56-2.18,0.171-.251.345-0.5,0.519-0.749q0.195-.279.387-0.56c0.22-.321.442-0.64,0.665-0.959l0.215-.309,0.07-.1,0.139-.2c0.1-.147.2-0.293,0.309-0.437a10.367,10.367,0,0,0,.675-1.077l0.044-.077a15.247,15.247,0,0,0,.689-1.455c0.249-.578.51-1.151,0.775-1.722l0.035-.076c0.411-.886.831-1.762,1.318-2.609,0.063-.111.124-0.223,0.186-0.335,0.79-1.448.79-1.448,1.408-1.64a1.215,1.215,0,0,1,.9.27,1.111,1.111,0,0,1,.5.724,1.583,1.583,0,0,1-.195.812l-0.061.147q-0.093.223-.189,0.446l-0.028.066q-0.147.342-.3,0.684-0.206.472-.408,0.947l-0.038.09-0.291.681-0.047.109a56.969,56.969,0,0,0-2.763,6.949l-0.023.08a3.4,3.4,0,0,0-.13.89c0,0.027,0,.054,0,0.083a0.549,0.549,0,0,0,.119.386,0.291,0.291,0,0,0,.273.059,1.624,1.624,0,0,0,.558-0.445c0.063-.063.129-0.12,0.2-0.178a3.468,3.468,0,0,0,.377-0.4l0.091-.1A13.406,13.406,0,0,0,46.772,19.8l0.166-.335,0.218-.441A9.772,9.772,0,0,1,49.019,16.2l0.081-.09a1.176,1.176,0,0,1,.9-0.331A1.615,1.615,0,0,1,51,16.3a1.455,1.455,0,0,1,.276,1.1,4.72,4.72,0,0,1-.111.5l-0.037.142c-0.34,1.292-.775,2.563-1.206,3.827a5.292,5.292,0,0,0-.433,2.932,0.156,0.156,0,0,0,.12.116,0.747,0.747,0,0,0,.6-0.111,3.2,3.2,0,0,0,.854-0.76c0.068-.087.139-0.171,0.212-0.255a12.881,12.881,0,0,0,1.778-2.845c0.048-.1.1-0.2,0.145-0.293a71.444,71.444,0,0,0,2.9-7.2l0.024-.065q0.125-.343.248-0.687l0.042-.118,0.078-.217a2.235,2.235,0,0,1,.8-1.222,1.189,1.189,0,0,1,.944.013,1.53,1.53,0,0,1,.888.9,3.1,3.1,0,0,1-.377,2.021l-0.042.1q-0.633,1.519-1.328,3.011l-0.069.149c-0.35.758-.719,1.507-1.092,2.255l-0.1.208c-0.234.47-.471,0.939-0.726,1.4l-0.135.246-0.051.091-0.049.091-0.044.081a0.354,0.354,0,0,0,.007.251A2.553,2.553,0,0,0,57,21.441a2.49,2.49,0,0,0,.977-1.433,10.2,10.2,0,0,1,.977-2.165L59,17.766a12.3,12.3,0,0,1,1.152-1.6l0.046-.054c0.271-.321.554-0.625,0.852-0.921l0.2-.2A8.3,8.3,0,0,1,62,14.315l0.136-.113a13.6,13.6,0,0,1,4.078-2.285l0.092-.034a11.728,11.728,0,0,1,2.238-.583l0.133-.021a3.972,3.972,0,0,1,2.84.5c0.086,0.067.167,0.136,0.248,0.21l0.086,0.077a2.179,2.179,0,0,1,.744,1.383q0,0.069,0,.138l0,0.136a1.666,1.666,0,0,1-.359.853l-0.06.089-0.127.186q-0.165.241-.328,0.484l-0.064.095c-0.2.305-.393,0.618-0.574,0.938-0.074.128-.152,0.253-0.23,0.378-0.217.352-.416,0.714-0.617,1.076q-0.066.119-.134,0.236c-0.237.409-.444,0.834-0.653,1.258q-0.1.206-.206,0.41c-0.614,1.21-1.3,2.7-.885,4.077a1.064,1.064,0,0,0,.542.65,1.017,1.017,0,0,0,.717-0.011q0.078-.04.154-0.084l0.09-.047a4.952,4.952,0,0,0,.623-0.416l0.073-.055a3.736,3.736,0,0,0,.4-0.355,2.34,2.34,0,0,1,.182-0.164,6.411,6.411,0,0,0,.794-0.882l0.08-.1a14.743,14.743,0,0,0,1.085-1.613l0.048-.08a23.282,23.282,0,0,0,1.2-2.366q0.232-.515.474-1.025l0.035-.074,0.035-.074,0.069-.146L75,16.885q0.132-.28.261-0.561c0.26-.564.53-1.122,0.8-1.679q0.13-.264.258-0.529,0.085-.175.171-0.35l0.079-.164a3.666,3.666,0,0,1,1.778-1.9,1.114,1.114,0,0,1,.914.1,1.215,1.215,0,0,1,.458.734l0.024,0.086a3.185,3.185,0,0,1-.3,1.525,0.8,0.8,0,0,0,.268-0.193l0.073-.075c0.063-.067.123-0.136,0.182-0.206a7.7,7.7,0,0,1,2.013-1.548l0.062-.036a3.662,3.662,0,0,1,2.508-.557,1.946,1.946,0,0,1,1.189.967,3.34,3.34,0,0,1,.154,2.558,8.578,8.578,0,0,1-.624,1.419l-0.049.093c-0.237.442-.483,0.879-0.728,1.316q-0.165.293-.327,0.588-0.118.214-.242,0.425a2.988,2.988,0,0,0-.607,1.93,1.4,1.4,0,0,0,1.057-.335,5.334,5.334,0,0,0,.669-0.539c0.049-.044.1-0.088,0.148-0.132a8.4,8.4,0,0,0,.935-0.947l0.07-.083,0.073-.088,0.066-.079a2.041,2.041,0,0,0,.3-0.7,9.307,9.307,0,0,1,1.242-2.683l0.046-.07a7.41,7.41,0,0,1,1.427-1.609l0.109-.092a6.13,6.13,0,0,1,4.39-1.434,6.462,6.462,0,0,1,3.039,1.081l0.058,0.039a9.2,9.2,0,0,1,.868.681l0.071,0.059a7.434,7.434,0,0,1,.54.521l0.065,0.066,0.058,0.06a0.234,0.234,0,0,0,.157.082,2.043,2.043,0,0,0,.338-0.435L99.1,14.1l0.123-.188,0.184-.28q0.53-.808,1.035-1.631l0.14-.229,0.071-.116,0.211-.343q0.3-.483.593-0.968t0.592-.952c0.151-.235.3-0.471,0.446-0.708,0.159-.254.318-0.507,0.481-0.757q0.177-.272.351-0.545c0.194-.3.388-0.607,0.589-0.906,0.07-.1.14-0.208,0.209-0.313,0.055-.084.11-0.167,0.166-0.251l0.083-.125a1.4,1.4,0,0,1,.854-0.84,1.551,1.551,0,0,1,1.218.321,2.075,2.075,0,0,1,.84,1.233,1.687,1.687,0,0,1-.356,1.178l-0.079.128c-0.065.106-.131,0.211-0.2,0.316s-0.138.222-.207,0.332l-0.105.17c-1.124,1.811-2.227,3.643-3.235,5.521-0.053.1-.106,0.2-0.16,0.292-0.18.328-.356,0.658-0.522,0.994q-0.118.24-.244,0.476a34.216,34.216,0,0,0-3.238,8.649l-0.019.095a4.164,4.164,0,0,0-.06.783c0,0.039,0,.079,0,0.119a1.451,1.451,0,0,0,.115.681,0.378,0.378,0,0,0,.246.12,1.55,1.55,0,0,0,.747-0.428l0.077-.063a3.29,3.29,0,0,0,.458-0.487c0.07-.087.141-0.171,0.215-0.255a15.681,15.681,0,0,0,1.066-1.456L102,23.358l0.055-.082q0.26-.378.522-0.754,0.3-.434.6-0.871c0.229-.336.461-0.67,0.693-1q0.272-.39.54-0.784t0.548-.8l0.067-.1a1.511,1.511,0,0,1,1-.773,0.994,0.994,0,0,1,.663.13,0.8,0.8,0,0,1,.274.411,0.911,0.911,0,0,1-.109.533l-0.036.075c-0.142.284-.3,0.559-0.459,0.835-0.109.191-.214,0.383-0.319,0.577-0.16.3-.328,0.589-0.5,0.88-0.109.185-.217,0.371-0.322,0.558-0.418.739-.862,1.459-1.339,2.162l-0.047.069a22.088,22.088,0,0,1-2.012,2.6c-0.059.065-.116,0.131-0.173,0.2a6.034,6.034,0,0,1-.989.936l-0.062.045a2.469,2.469,0,0,1-1.685.606L98.812,28.8a3.135,3.135,0,0,1-1.952-1.257,4.342,4.342,0,0,1-.777-3.393,18.108,18.108,0,0,1,.8-3.017,0.657,0.657,0,0,0-.3.3l-0.046.07-0.1.149c-0.085.13-.171,0.26-0.256,0.39l-0.051.077q-0.193.293-.395,0.578l-0.056.079-0.112.158c-0.089.126-.177,0.253-0.264,0.38A24.574,24.574,0,0,1,93.7,25.45l-0.063.074c-0.058.067-.117,0.134-0.176,0.2l-0.086.1a5.953,5.953,0,0,1-.633.622l-0.057.047a4.326,4.326,0,0,1-3.1,1.049,3.416,3.416,0,0,1-.548-0.137l-0.094-.029a3.089,3.089,0,0,1-1.516-1.41L87.391,25.9A9.782,9.782,0,0,1,86.3,21a1.538,1.538,0,0,0-.445.34c-0.085.087-.176,0.166-0.268,0.245s-0.172.154-.257,0.232a3.577,3.577,0,0,1-2.359,1.215,2.1,2.1,0,0,1-1.331-.663l-0.057-.054a2.88,2.88,0,0,1-.569-2.115,3.739,3.739,0,0,1,.147-0.949l0.022-.077a8.5,8.5,0,0,1,.972-2.047l0.059-.1q0.286-.469.586-0.928a3.159,3.159,0,0,0,.692-1.955,0.435,0.435,0,0,0-.171-0.308,1.267,1.267,0,0,0-.98.268,2.6,2.6,0,0,0-.634.546c-0.063.075-.129,0.147-0.2,0.218a16.836,16.836,0,0,0-2.027,2.908l-0.061.1c-0.289.481-.562,0.97-0.831,1.462q-0.106.193-.215,0.385c-0.171.3-.335,0.608-0.5,0.916l-0.081.154-0.16.3-0.192.362q-0.3.561-.566,1.134-0.115.243-.234,0.484c-0.418.851-.794,1.715-1.144,2.6-0.73,1.838-.73,1.838-1.259,2.107a1.265,1.265,0,0,1-1-.006,1.663,1.663,0,0,1-.9-0.957,4.606,4.606,0,0,1-.127-1.366h-0.1a0.826,0.826,0,0,0-.12.146,4.929,4.929,0,0,1-1.9,1.533l-0.112.051a2.776,2.776,0,0,1-2.089.043,2.624,2.624,0,0,1-1.43-1.43,4.613,4.613,0,0,1-.24-1.4h-0.1l-0.026.058a4.417,4.417,0,0,1-1.207,1.278l-0.116.09a5.172,5.172,0,0,1-3.669,1.1,2.889,2.889,0,0,1-.429-0.1l-0.122-.033a3.609,3.609,0,0,1-1.386-.755l-0.078-.065a4.88,4.88,0,0,1-1.464-3.053,0.8,0.8,0,0,0-.386.174,3.025,3.025,0,0,1-2.222.559c-0.114-.024-0.227-0.051-0.339-0.082a0.59,0.59,0,0,0-.377-0.034,0.958,0.958,0,0,0-.1.169l-0.061.109-0.065.118A11.147,11.147,0,0,1,52.4,26.252l-0.165.173a4.1,4.1,0,0,1-2.649,1.439,1.759,1.759,0,0,1-1.27-.639,2.94,2.94,0,0,1-.355-0.54l-0.036-.067a4.31,4.31,0,0,1-.337-0.83l-0.02-.07a7.753,7.753,0,0,1-.177-1.375l-0.014-.177q-0.017-.214-0.033-0.427a0.31,0.31,0,0,0-.2.16l-0.058.08-0.061.086-0.13.179-0.066.092q-0.544.744-1.148,1.439l-0.12.139a8.616,8.616,0,0,1-1.264,1.218l-0.1.076a3.037,3.037,0,0,1-2.063.815,1.7,1.7,0,0,1-1.091-.7,5.18,5.18,0,0,1-.794-2.658,2.314,2.314,0,0,0-.349.426l-0.1.147-0.05.074a16.053,16.053,0,0,1-1.111,1.442l-0.064.074a8.838,8.838,0,0,1-1.2,1.193l-0.1.078a2.683,2.683,0,0,1-1.964.7,3.3,3.3,0,0,1-1.993-1.387,4.528,4.528,0,0,1-.638-3.5c0.153-.81.4-1.6,0.62-2.4l0.029-.1,0.027-.094,0.023-.082a0.605,0.605,0,0,1,.055-0.135h-0.1l-0.027.074a1.645,1.645,0,0,1-.159.279l-0.071.105L33,21.666l-0.071.106-0.143.213-0.216.323q-0.151.227-.306,0.452l-0.047.068-0.154.223L32,23.134a21.624,21.624,0,0,1-1.755,2.27c-0.064.07-.126,0.141-0.188,0.212q-0.223.256-.456,0.5l-0.12.131A4.477,4.477,0,0,1,27.57,27.4l-0.07.022a3.045,3.045,0,0,1-1.917-.022l-0.1-.039a3.738,3.738,0,0,1-1.452-1.276l-0.039-.057a5.242,5.242,0,0,1-.511-1.217l-0.024-.074a12.639,12.639,0,0,1-.543-2.408L22.9,22.24a10.137,10.137,0,0,1,1.854-7.46,7.2,7.2,0,0,1,1.1-1.185l0.112-.094a6.847,6.847,0,0,1,.95-0.66l0.069-.04a5.987,5.987,0,0,1,4.506-.583,7.422,7.422,0,0,1,3.4,2.128l0.09,0.1,0.078,0.086a0.307,0.307,0,0,0,.286.062,0.347,0.347,0,0,0,.108-0.146l0.056-.1,0.059-.105,0.128-.219,0.065-.113c0.1-.163.2-0.321,0.3-0.48,0.2-.314.4-0.632,0.593-0.95q0.2-.326.4-0.65c0.162-.255.321-0.513,0.48-0.771q0.263-.428.531-0.852,0.207-.327.411-0.655,0.538-.862,1.086-1.718l0.181-.285c0.282-.446.572-0.886,0.864-1.325l0.128-.193,0.183-.275,0.055-.082a1.166,1.166,0,0,1,.577-0.644l0.085-.039A1.372,1.372,0,0,1,42.93,5.236Zm25.939,9.451-0.118.042-0.127.046-0.065.024c-0.408.147-.811,0.3-1.209,0.476l-0.093.04a13.587,13.587,0,0,0-2.751,1.57l-0.191.137c-0.385.281-.753,0.576-1.111,0.891l-0.1.084a6.673,6.673,0,0,0-.864.91l-0.055.07a7.431,7.431,0,0,0-.768,1.2l-0.035.07a4.4,4.4,0,0,0-.342.89l-0.023.089a2.3,2.3,0,0,0,.229,1.693,1.4,1.4,0,0,0,.886.638,2.533,2.533,0,0,0,1.8-.588,8.954,8.954,0,0,0,2-2.579l0.158-.271c0.584-1,1.11-2.029,1.635-3.061a12.858,12.858,0,0,1,1.289-2.129l0.057-.073,0.053-.066a0.159,0.159,0,0,0,.038-0.163A0.8,0.8,0,0,0,68.869,14.687ZM27.76,17.522c-0.09.1-.175,0.213-0.259,0.322l-0.09.111a6.711,6.711,0,0,0-1.683,4.374,1.677,1.677,0,0,0,.2.654l0.06,0.107a1.062,1.062,0,0,0,.625.441,3.12,3.12,0,0,0,2.182-.934c0.128-.1.251-0.213,0.372-0.325,0.046-.042.092-0.084,0.14-0.124,0.213-.182.41-0.378,0.607-0.577l0.178-.178c0.2-.2.386-0.392,0.564-0.6l0.093-.107c0.228-.267.446-0.54,0.661-0.818l0.114-.146,0.242-.311,0.25-.322c0.2-.255.4-0.51,0.589-0.769,0.089-.119.18-0.237,0.271-0.354q0.348-.452.693-0.907l0.062-.081c0.289-.38.289-0.38,0.555-0.776a1.065,1.065,0,0,0-.4-0.272L33.7,15.891C31.5,14.9,29.289,15.829,27.76,17.522Zm64.773-1.186-0.091.061a5.95,5.95,0,0,0-.731.624l-0.065.063a7.6,7.6,0,0,0-.757.828l-0.093.117a6.534,6.534,0,0,0-1.609,4.335,1.5,1.5,0,0,0,.5,1,1.155,1.155,0,0,0,.884.154,4.974,4.974,0,0,0,2.085-1.28c0.066-.061.134-0.12,0.2-0.179,0.167-.146.324-0.3,0.481-0.46l0.149-.148c0.179-.179.351-0.362,0.516-0.554l0.108-.122c0.231-.264.453-0.533,0.667-0.811,0.082-.1.165-0.208,0.249-0.311,0.3-.377.594-0.763,0.883-1.15,0.155-.206.312-0.41,0.469-0.615l0.441-.577,0.132-.173,0.221-.289,0.07-.091,0.129-.17q0.056-.074.114-0.146a0.5,0.5,0,0,0,.128-0.262,0.619,0.619,0,0,0-.34-0.235l-0.089-.04A4.735,4.735,0,0,0,92.533,16.336ZM6.4,9a0.862,0.862,0,0,1,.389.132L6.891,9.2,7,9.265l0.179,0.1L7.368,9.479c0.159,0.094.319,0.185,0.479,0.277,0.282,0.162.565,0.325,0.844,0.492l0.062,0.037a1.033,1.033,0,0,1,.212.158,0.974,0.974,0,0,1-.034.363,1.983,1.983,0,0,0,.2,1.459,3.787,3.787,0,0,0,2.465,1.389c0.287,0.061.575,0.11,0.867,0.147l0.086,0.011a16.053,16.053,0,0,0,3.073,0,0.941,0.941,0,0,1,1,.216,2.46,2.46,0,0,1,.538,1.719,1.289,1.289,0,0,1-.316.859,1.229,1.229,0,0,1-.439.211l-0.068.019-0.225.061-0.161.045-0.346.095-0.546.15-0.564.155q-0.866.238-1.73,0.482l-0.3.085a26.942,26.942,0,0,0-4.3,1.5l-0.244.112c-0.405.185-.794,0.4-1.182,0.615l-0.095.053a5.4,5.4,0,0,0-2.853,2.936,2.525,2.525,0,0,0,.193,1.866A3.116,3.116,0,0,0,5.2,26.1l0.061,0.035a5.784,5.784,0,0,0,2.844.623H8.188a8.788,8.788,0,0,0,1.291-.075l0.108-.016a12.837,12.837,0,0,0,6.025-2.759l0.065-.052c0.275-.219.543-0.443,0.8-0.683,0.089-.083.179-0.163,0.269-0.244,0.177-.158.343-0.326,0.51-0.495q0.14-.141.282-0.28a7.4,7.4,0,0,0,.677-0.748l0.108-.138q0.314-.4.613-0.809a14.392,14.392,0,0,1,.923-1.144l0.071-.08q0.2-.229.415-0.451l0.081-.085a0.578,0.578,0,0,1,.378-0.142,0.87,0.87,0,0,1,.641.366,2.376,2.376,0,0,1,.4,1.626,5.82,5.82,0,0,1-1.028,2.056l-0.043.064A13.108,13.108,0,0,1,19.5,24.3c-0.065.071-.128,0.142-0.19,0.215-0.155.178-.323,0.344-0.49,0.511l-0.094.094c-0.175.175-.354,0.343-0.542,0.5l-0.123.109c-0.251.22-.505,0.433-0.773,0.633l-0.132.1c-0.455.344-.926,0.663-1.4,0.975l-0.084.055a16.509,16.509,0,0,1-3.411,1.692l-0.1.037a13.455,13.455,0,0,1-4.251.785l-0.135,0a8.243,8.243,0,0,1-3.086-.552L4.6,29.429A5.568,5.568,0,0,1,2.84,28.294c-0.053-.048-0.108-0.094-0.164-0.139a2.444,2.444,0,0,1-.323-0.341l-0.072-.082a5.726,5.726,0,0,1-1.264-2.967L1,24.653a7.6,7.6,0,0,1,1.712-5.444q0.11-.135.222-0.268l0.055-.069c0.037-.047.077-0.092,0.117-0.137H3.175L3.2,18.673a0.643,0.643,0,0,1,.139-0.178l0.06-.057,0.066-.061,0.069-.064a11.413,11.413,0,0,1,2.241-1.531l0.091-.05a27.255,27.255,0,0,1,2.479-1.149,0.327,0.327,0,0,0-.034-0.171,2.475,2.475,0,0,0-.227-0.184,3.09,3.09,0,0,1-.709-0.717l-0.058-.081a7.234,7.234,0,0,1-.514-0.868L6.75,13.452a5.859,5.859,0,0,1-.594-2.392L6.15,10.929a6.263,6.263,0,0,1,.211-1.89Z" transform="translate(-0.969)"/>
</svg>
