<svg xmlns="http://www.w3.org/2000/svg" width="91.6" height="70" viewBox="0 0 91.6 70">
  <defs>
    <style>
      .cls-1 {
        fill: #ac9fa2;
        fill-rule: evenodd;
      }
    </style>
  </defs>
  <path id="logo_footer" class="cls-1" d="M1408.82,1776.02a0.715,0.715,0,0,1,.22.44v0.26c-0.01.37-.04,0.73-0.07,1.1l-0.03.33c-0.01.2-.02,0.39-0.04,0.58-0.02.29-.04,0.58-0.06,0.86l-0.12,1.5c-0.03.44-.06,0.87-0.1,1.3v0.09c-0.01.11-.02,0.23-0.03,0.34-0.21,2.76-.41,5.51-0.63,8.34a2.286,2.286,0,0,0-.02.25c-0.02.23-.04,0.45-0.05,0.68a2.105,2.105,0,0,0-.02.25c-0.01.06-.01,0.12-0.02,0.17a0.41,0.41,0,0,1-.01.11v0.08a0.615,0.615,0,0,0-.01.13l0.06,0.03a0.085,0.085,0,0,1,.03-0.05,0.657,0.657,0,0,1,.12-0.17l0.05-.05a0.265,0.265,0,0,0,.05-0.06l0.12-.12,0.05-.05c0.07-.08.14-0.15,0.2-0.23,0.13-.14.26-0.28,0.38-0.42,0.1-.11.2-0.22,0.3-0.34,0.14-.16.29-0.32,0.43-0.48,0.1-.11.2-0.22,0.29-0.33l0.33-.36,0.22-.25c0.13-.15.26-0.29,0.38-0.43l0.3-.33c0.14-.16.29-0.32,0.43-0.48,0.1-.11.2-0.23,0.3-0.34,0.14-.16.29-0.32,0.43-0.48l0.3-.33c0.14-.17.28-0.33,0.43-0.49,0.1-.11.2-0.22,0.29-0.33l0.33-.36,0.22-.25c0.13-.14.26-0.28,0.38-0.43l0.3-.33c0.14-.16.29-0.32,0.43-0.48l0.3-.33c0.14-.17.29-0.33,0.43-0.49l0.3-.33c0.14-.16.28-0.32,0.43-0.48,0.1-.11.2-0.22,0.29-0.34,0.15-.16.29-0.32,0.44-0.48,0.1-.11.2-0.22,0.29-0.33,0.15-.16.29-0.32,0.44-0.48,0.09-.12.19-0.23,0.29-0.34,0.14-.16.29-0.32,0.43-0.48a0.5,0.5,0,0,0,.07-0.08,0.462,0.462,0,0,0,.07-0.07c0.06-.07.13-0.15,0.19-0.23a0.381,0.381,0,0,1,.24-0.11,0.323,0.323,0,0,1,.24.13,0.924,0.924,0,0,1-.07.69,0.351,0.351,0,0,1-.05.08,1.037,1.037,0,0,1-.04.1c-0.04.07-.07,0.14-0.11,0.21-0.05.12-.11,0.23-0.17,0.35-0.08.17-.16,0.33-0.24,0.5s-0.18.37-.27,0.56l-0.42.87c-0.13.26-.25,0.52-0.38,0.79-0.19.39-.38,0.79-0.57,1.19-0.13.26-.26,0.53-0.39,0.8l-0.06.12a0.169,0.169,0,0,1-.03.06c-0.06.12-.12,0.24-0.17,0.36a0.539,0.539,0,0,0-.07.13c-0.04.1-.09,0.2-0.14,0.3-0.09.19-.18,0.37-0.27,0.56a1.037,1.037,0,0,0-.04.1l-0.09.18a3.43,3.43,0,0,1-.71.86,0.474,0.474,0,0,0-.1.1c-0.09.09-.18,0.17-0.27,0.26a3.967,3.967,0,0,1-.29.29c-0.16.17-.33,0.33-0.5,0.5l-0.72.72-1.17,1.17a0.462,0.462,0,0,1-.07.07c-0.33.34-.67,0.67-1,1a0.462,0.462,0,0,1-.07.07l-0.07.07-1.17,1.17-0.72.72-0.49.49c-0.1.1-.19,0.19-0.29,0.28a3.189,3.189,0,0,1-.26.26,0.9,0.9,0,0,1-.09.1,0.8,0.8,0,0,0-.13.13,0.462,0.462,0,0,0-.07.07,0.663,0.663,0,0,0-.15.43,0.17,0.17,0,0,1-.01.07c-0.02.28-.04,0.55-0.06,0.83-0.01.06-.01,0.11-0.02,0.17-0.01.15-.02,0.31-0.03,0.46s-0.02.32-.04,0.48c-0.02.27-.04,0.55-0.06,0.82-0.02.31-.04,0.62-0.07,0.93s-0.04.61-.07,0.91c-0.01.12-.01,0.25-0.02,0.38-0.02.15-.03,0.3-0.04,0.45,0,0.06-.01.11-0.01,0.17s-0.01.15-.02,0.22v0.07a2.018,2.018,0,0,0-.01.35c0.1-.04.2-0.07,0.3-0.11a5.962,5.962,0,0,1,1.01-.33c0.02-.01.05-0.01,0.07-0.02a3.208,3.208,0,0,1,.69-0.05h0.07a4.013,4.013,0,0,1,2.61.91,0.462,0.462,0,0,0,.07.07,4.233,4.233,0,0,1,1.41,2.7,4.3,4.3,0,0,1-1.06,3.22,4.642,4.642,0,0,1-.4.36,2.986,2.986,0,0,0-.28.24c-0.14.12-.28,0.23-0.43,0.34a2.643,2.643,0,0,0-.39.36l-0.05.05c-0.05.06-.1,0.12-0.16,0.18a0.55,0.55,0,0,1-.07.09,7.065,7.065,0,0,0-.72.98,0.284,0.284,0,0,1-.14.16h-1.16a0.275,0.275,0,0,1,.02-0.25,1.81,1.81,0,0,0,.15-0.92,0.768,0.768,0,0,0-.49-0.39,0.363,0.363,0,0,0-.07-0.03c-0.13-.05-0.27-0.1-0.4-0.14a3.773,3.773,0,0,1-1.31-.84c-0.03-.02-0.05-0.05-0.08-0.07a4.2,4.2,0,0,1-1.2-2.99c-0.01-.14-0.01-0.27-0.01-0.41v-0.06c0-.59.02-1.19,0.03-1.78,0-.35.01-0.71,0.02-1.06v-0.17c0.02-.88.03-1.76,0.04-2.64v-0.18c0.01-.44.02-0.87,0.02-1.31,0.01-.32.01-0.64,0.02-0.95v-0.4c0.01-.22.01-0.44,0.01-0.66v-0.07l0.03-1.56v-0.07c0-.18,0-0.36.01-0.55,0-.53.01-1.06,0.02-1.58v-0.07c0.01-.53.02-1.05,0.02-1.57v-0.07c0.01-.22.01-0.44,0.01-0.66,0.01-.47.02-0.94,0.02-1.4,0.01-.34.01-0.68,0.02-1.02,0-.19,0-0.37.01-0.55v-0.31c0-.26.01-0.51,0.01-0.77,0.01-.2.01-0.41,0.01-0.61,0-.14,0-0.28.01-0.43v-0.2a13.779,13.779,0,0,1,1.13-4.53c0.08-.21.16-0.43,0.24-0.65,0.27-.77.56-1.53,0.84-2.3l0.03-.06a0.142,0.142,0,0,1,.02-0.06,0.257,0.257,0,0,1,.02-0.05,0.564,0.564,0,0,0,.04-0.12c0.09-.23.18-0.47,0.26-0.7a0.363,0.363,0,0,0,.03-0.07c0.04-.11.08-0.21,0.11-0.31a5.547,5.547,0,0,1,.24-0.56,0.169,0.169,0,0,1,.03-0.06C1408.54,1775.99,1408.54,1775.99,1408.82,1776.02Zm-1.16,29.69a2.485,2.485,0,0,0-.46,1.85,2.314,2.314,0,0,0,.9,1.44,2.408,2.408,0,0,0,1.82.4,2.373,2.373,0,0,0,1.5-1,0.8,0.8,0,0,0,.08-0.16,0.435,0.435,0,0,0,.04-0.07,2.266,2.266,0,0,0-.36-2.58,0.265,0.265,0,0,0-.05-0.06,2.4,2.4,0,0,0-1.58-.7A2.341,2.341,0,0,0,1407.66,1805.71Zm54.34-29.66a0.567,0.567,0,0,1,.28.31c0.01,0.02.01,0.04,0.02,0.06,0.09,0.2.16,0.4,0.24,0.6,0.01,0.03.03,0.07,0.04,0.11,0.04,0.11.08,0.21,0.12,0.31l0.12,0.33c0.07,0.2.14,0.4,0.22,0.6s0.15,0.41.23,0.61c0.13,0.36.26,0.71,0.39,1.06,0.04,0.11.08,0.23,0.12,0.34,0.19,0.5.37,1,.56,1.5,0.02,0.06.02,0.06,0.04,0.11,0.06,0.18.13,0.36,0.2,0.54,0.11,0.31.22,0.61,0.34,0.92a1.213,1.213,0,0,0,.05.14c0.03,0.08.06,0.16,0.09,0.25a5.734,5.734,0,0,1,.27,2.14c0,0.11.01,0.23,0.01,0.34v0.57c0.01,0.52.02,1.04,0.02,1.56v0.08c0.02,1.29.04,2.58,0.06,3.86,0.01,0.17.01,0.34,0.01,0.5,0.01,0.26.01,0.53,0.01,0.79a2.62,2.62,0,0,1,.01.28c0,0.24.01,0.48,0.01,0.72,0.01,0.13.01,0.27,0.01,0.4v0.28a0.66,0.66,0,0,1,.01.14,0.964,0.964,0,0,0,.18.68l0.05,0.05a1.336,1.336,0,0,1,.2.21c0.09,0.09.17,0.19,0.26,0.28,0.1,0.11.2,0.22,0.29,0.34,0.11,0.11.21,0.23,0.32,0.35,0.25,0.27.25,0.27,0.36,0.4,0.08,0.1.17,0.19,0.25,0.28l0.3,0.33c0.1,0.12.21,0.24,0.31,0.35,0.25,0.28.25,0.28,0.36,0.41,0.09,0.09.17,0.19,0.25,0.28l0.3,0.33c0.11,0.12.21,0.24,0.32,0.35,0.15,0.18.31,0.35,0.46,0.53,0.04,0.04.08,0.09,0.12,0.13s0.06,0.07.09,0.1a0.8,0.8,0,0,0,.13-0.24,0.261,0.261,0,0,0,.03-0.08,0.689,0.689,0,0,0,.03-0.08,4.1,4.1,0,0,1,2.09-2.33,4.39,4.39,0,0,1,3.32-.13,4.183,4.183,0,0,1,2.24,2.1,4.241,4.241,0,0,1,.35,2.17,8.89,8.89,0,0,0,.05,2.47c0.01,0.02.01,0.05,0.02,0.08a4.215,4.215,0,0,0,.83,1.9,0.27,0.27,0,0,0,.07.08,3.387,3.387,0,0,0,1.82,1.02,1.043,1.043,0,0,1,.76.33,0.667,0.667,0,0,1,0,.2,2.219,2.219,0,0,1-1.68.04,4.46,4.46,0,0,1-1.91-1.09,0.5,0.5,0,0,0-.07-0.08,3.19,3.19,0,0,1-.64-1.08,1.823,1.823,0,0,0-.59-0.85,0.944,0.944,0,0,0-.76.15,3.675,3.675,0,0,1-1.12.41c-0.03.01-.05,0.01-0.08,0.02a4.1,4.1,0,0,1-3-.54,7.7,7.7,0,0,1-.76-0.63c-0.06-.06-0.12-0.11-0.19-0.17-0.15-.13-0.3-0.28-0.44-0.42l-0.09-.09c-0.07-.07-0.13-0.14-0.2-0.2-0.1-.11-0.21-0.21-0.31-0.31l-0.72-.72-0.66-.66c-0.1-.11-0.2-0.21-0.31-0.31-0.06-.07-0.12-0.13-0.19-0.2l-0.09-.09c-0.18-.18-0.18-0.18-0.38-0.36-0.15-.13-0.29-0.28-0.44-0.42l-0.09-.09c-0.07-.07-0.13-0.14-0.2-0.2-0.1-.11-0.21-0.21-0.32-0.32-0.22-.22-0.44-0.45-0.67-0.67-0.24-.25-0.48-0.49-0.72-0.73l-0.32-.32-0.19-.19-0.09-.09-0.13-.13-0.07-.07a0.284,0.284,0,0,0-.11-0.08v-0.06a0.076,0.076,0,0,1-.05-0.02,0.742,0.742,0,0,1-.2-0.16l-0.07-.07-0.08-.08-0.09-.09c-0.06-.07-0.13-0.13-0.19-0.19l-0.3-.3c-0.16-.16-0.31-0.32-0.47-0.48-0.28-.28-0.56-0.56-0.85-0.84-0.09-.1-0.19-0.2-0.29-0.3l-0.19-.19-0.12-.12c-0.13-.13-0.26-0.25-0.39-0.37-0.12-.1-0.23-0.21-0.34-0.32l-0.12-.12a0.8,0.8,0,0,0-.13-0.13l-0.27-.27c-0.21-.21-0.41-0.42-0.62-0.63l-0.57-.57-0.27-.27-0.13-.13-0.15-.15a4.144,4.144,0,0,0-.38-0.35c-0.1-.09-0.19-0.18-0.28-0.27l-0.06-.06c-0.07-.07-0.14-0.14-0.2-0.21a0.5,0.5,0,0,1-.08-0.07c-0.12-.12-0.24-0.25-0.37-0.37l-0.38-.38-0.3-.3-0.14-.14a7.6,7.6,0,0,1-.75-0.85,0.179,0.179,0,0,1-.05-0.07,16.207,16.207,0,0,1-1.57-2.86c-0.12-.26-0.25-0.51-0.38-0.77-0.15-.29-0.29-0.59-0.43-0.89-0.09-.19-0.18-0.38-0.28-0.56l-0.04-.08a1.3,1.3,0,0,0-.08-0.17c-0.21-.44-0.43-0.88-0.63-1.33l-0.21-.45c-0.03-.06-0.06-0.13-0.09-0.19l-0.06-.12a1.149,1.149,0,0,1-.23-0.84,0.269,0.269,0,0,1,.14-0.12,0.888,0.888,0,0,1,.59.26c0.21,0.2.41,0.42,0.61,0.65,0.04,0.04.08,0.09,0.13,0.14,0.02,0.02.04,0.05,0.06,0.07a0.5,0.5,0,0,1,.07.08c0.14,0.15.28,0.31,0.42,0.46,0.1,0.12.2,0.24,0.31,0.35,0.14,0.16.28,0.31,0.41,0.47l0.32,0.35c0.25,0.28.25,0.28,0.36,0.41,0.08,0.09.17,0.18,0.25,0.27,0.1,0.11.2,0.23,0.3,0.34s0.21,0.23.31,0.35c0.25,0.28.25,0.28,0.36,0.4l0.25,0.28c0.1,0.11.2,0.23,0.3,0.34l0.32,0.35c0.13,0.15.27,0.31,0.41,0.46,0.1,0.12.21,0.24,0.31,0.35,0.07,0.08.14,0.15,0.2,0.22a1.738,1.738,0,0,1,.13.15c0.12,0.13.24,0.26,0.35,0.39s0.21,0.23.32,0.35c0.13,0.16.27,0.31,0.41,0.47,0.1,0.11.21,0.23,0.31,0.35l0.37,0.4a3.728,3.728,0,0,0,.32.36l0.22,0.25,0.2,0.23,0.3,0.33c0.06,0.07.13,0.15,0.2,0.22,0.1,0.11.2,0.22,0.29,0.33,0.11,0.12.21,0.24,0.32,0.35,0.25,0.28.25,0.28,0.36,0.41l0.33,0.36c0.07,0.08.14,0.17,0.22,0.25,0.09,0.1.18,0.21,0.27,0.31a0.934,0.934,0,0,1,.13.15,0.15,0.15,0,0,0,.14.1v-0.08q-0.33-4.05-.64-8.11c-0.01-.18-0.02-0.36-0.04-0.55v-0.06c-0.05-.66-0.11-1.32-0.16-1.98-0.05-.69-0.1-1.37-0.16-2.06-0.03-.44-0.06-0.88-0.1-1.32-0.02-.28-0.04-0.57-0.07-0.85-0.01-.17-0.02-0.33-0.03-0.5-0.02-.15-0.03-0.3-0.04-0.45,0-.05-0.01-0.11-0.01-0.16-0.01-.08-0.01-0.15-0.02-0.23v-0.06a0.817,0.817,0,0,1,.05-0.38A0.386,0.386,0,0,1,1462,1776.05Zm10.69,23.95-0.05.05a2.211,2.211,0,0,0-.69,1.46,2.336,2.336,0,0,0,.6,1.75,0.265,0.265,0,0,0,.05.06,2.191,2.191,0,0,0,.94.58c0.03,0.01.05,0.02,0.08,0.03a2.338,2.338,0,0,0,1.74-.2,3.649,3.649,0,0,0,.45-0.32c0.02-.02.04-0.03,0.06-0.05a2.245,2.245,0,0,0,.68-1.42v-0.31a2.162,2.162,0,0,0-.13-0.7c-0.01-.03-0.01-0.05-0.02-0.08a2.4,2.4,0,0,0-1.17-1.24A2.328,2.328,0,0,0,1472.69,1800Zm-37.22-21.78h0.06a0.356,0.356,0,0,1,.22.16c0.04,0.08.07,0.16,0.11,0.25a0.145,0.145,0,0,0,.02.07,0.909,0.909,0,0,1,.02.74,1,1,0,0,1-.18.24,0.138,0.138,0,0,0-.03.04l0.03,0.09,2.08-.45c0.17-.04.33-0.07,0.49-0.11,0.02,0,.05-0.01.07-0.01,0.1-.02.19-0.05,0.29-0.07,0.27-.06.53-0.11,0.8-0.17l0.65-.15c0.11-.02.23-0.05,0.34-0.07a3.205,3.205,0,0,1,1.31-.17c0.09,0,.19.01,0.28,0.01,0.07,0,.14.01,0.21,0.01a0.448,0.448,0,0,1,.11.01,1.927,1.927,0,0,1,.24.01c0.1,0,.2.01,0.3,0.01s0.19,0.01.29,0.02h0.11c0.1,0.01.2,0.01,0.29,0.02h0.1a0.34,0.34,0,0,0,.1.01,0.22,0.22,0,0,1,.08.01,0.318,0.318,0,0,1,.25.15,0.645,0.645,0,0,1,0,.24,0.422,0.422,0,0,1-.27.16c-0.04.01-.07,0.01-0.1,0.02l-0.49.09-0.22.03-0.35.06c-0.11.02-.23,0.04-0.34,0.05a0.355,0.355,0,0,1-.1.02,1.53,1.53,0,0,0-.61.24,0.209,0.209,0,0,0-.06.04,1.4,1.4,0,0,0-.16.1,0.372,0.372,0,0,1-.24.12v0.09h0.05c0.43-.02.86-0.03,1.29-0.05,0.2-.01.41-0.01,0.62-0.02,0.18-.01.36-0.01,0.54-0.02a2.81,2.81,0,0,0,.29-0.01c0.2-.01.41-0.01,0.61-0.02a2.175,2.175,0,0,0,.26-0.01h0.22a0.294,0.294,0,0,1,.25.08,0.261,0.261,0,0,1,.07.25,0.3,0.3,0,0,1-.12.2,1.719,1.719,0,0,1-.39.1h-0.06a0.5,0.5,0,0,1-.12.02l-0.21.03c-0.19.03-.38,0.05-0.57,0.08-0.12.01-.24,0.03-0.36,0.05a0.585,0.585,0,0,0-.13.02,1.225,1.225,0,0,0-.19.02c-0.03.01-.07,0.01-0.11,0.02a0.162,0.162,0,0,0-.14.07V1781a0.148,0.148,0,0,1,.07.01c0.45,0.02.89,0.05,1.34,0.09h0.06c0.19,0.02.38,0.03,0.57,0.05,0.11,0,.21.01,0.32,0.02,0.06,0,.11.01,0.17,0.01a1,1,0,0,0,.62-0.03,1.711,1.711,0,0,0,.18-0.2c0.11-.12.22-0.24,0.34-0.36l0.06-.06,0.13-.13c0.04-.05.09-0.09,0.13-0.14,0.07-.06.13-0.13,0.2-0.19a0.265,0.265,0,0,1,.05-0.06l0.06-.06a0.121,0.121,0,0,0,.05-0.05,0.3,0.3,0,0,1,.2-0.06,0.314,0.314,0,0,1,.23.17,0.572,0.572,0,0,1,.01.14v0.29c0,0.28-.01.56-0.02,0.83a0.487,0.487,0,0,0-.01.12c-0.01.19-.01,0.37-0.02,0.56a1.548,1.548,0,0,0-.01.22c0,0.03-.01.06-0.01,0.09a0.557,0.557,0,0,0,.14.48,0.121,0.121,0,0,0,.05.05,0.236,0.236,0,0,0,.05.05,0.265,0.265,0,0,0,.06.05l0.06,0.06c0.11,0.1.23,0.2,0.35,0.31,0.14,0.12.28,0.25,0.42,0.37,0.25,0.23.25,0.23,0.5,0.45l0.06,0.04a0.176,0.176,0,0,0,.05.04,0.72,0.72,0,0,1,.13.45,4.67,4.67,0,0,0,.62.24c0.05,0.02.05,0.02,0.11,0.04l0.27,0.09,0.27,0.09a0.358,0.358,0,0,1,.11.04,1.866,1.866,0,0,1,.22.07c0.16,0.05.33,0.11,0.49,0.16,0.06,0.02.11,0.03,0.17,0.05s0.13,0.05.2,0.07a0.239,0.239,0,0,1,.09.03c0.03,0.01.06,0.01,0.09,0.02a0.441,0.441,0,0,1,.18.15,0.292,0.292,0,0,1,.01.16v0.1c-0.01.14-.02,0.29-0.04,0.43l-0.02.1c-0.01.09-.02,0.19-0.03,0.29a2.886,2.886,0,0,0-.04.29,1.1,1.1,0,0,0-.02.18,1.843,1.843,0,0,0-.03.41,0.916,0.916,0,0,0,.32.18,0.142,0.142,0,0,0,.06.02l0.12,0.06c0.07,0.03.14,0.06,0.2,0.09,0.16,0.07.32,0.14,0.47,0.21,0.08,0.04.16,0.07,0.24,0.11l0.06,0.03a0.652,0.652,0,0,1,.31.26,0.305,0.305,0,0,1-.05.26l-0.08.08a0.219,0.219,0,0,1-.03.05c-0.14.17-.28,0.33-0.43,0.5-0.08.1-.17,0.2-0.25,0.31-0.07.08-.14,0.17-0.21,0.25-0.16.19-.31,0.38-0.47,0.58-0.01.02-.03,0.04-0.04,0.06a0.281,0.281,0,0,0-.1.21,0.721,0.721,0,0,0,.19.24,0.218,0.218,0,0,1,.04.05l0.35,0.35c0.07,0.07.14,0.15,0.21,0.23s0.12,0.13.18,0.19a4.121,4.121,0,0,1,.28.31,3.07,3.07,0,0,0,.26.25c0.07,0.08.14,0.16,0.21,0.25,0.07,0.07.14,0.14,0.21,0.2,0.05,0.06.1,0.11,0.15,0.17,0.07,0.08.14,0.16,0.22,0.24s0.18,0.19.27,0.29c0.06,0.07.13,0.14,0.2,0.21s0.14,0.15.21,0.22a1.137,1.137,0,0,0,.15.16c0.09,0.09.17,0.19,0.25,0.28,0.07,0.07.14,0.14,0.2,0.21a1.137,1.137,0,0,1,.15.16c0.11,0.13.23,0.25,0.34,0.37a1.084,1.084,0,0,1,.51.67,0.249,0.249,0,0,1-.07.19,0.384,0.384,0,0,1-.18.09,1.13,1.13,0,0,1-.43-0.26c-0.03-.03-0.07-0.05-0.1-0.08-0.05-.04-0.1-0.08-0.16-0.12-0.11-.09-0.22-0.17-0.33-0.26-0.02-.02-0.05-0.04-0.07-0.06a0.215,0.215,0,0,0-.16-0.04,0.169,0.169,0,0,1,.02.05,1.178,1.178,0,0,1,.1.45,0.3,0.3,0,0,1-.23.16,0.8,0.8,0,0,1-.46-0.37c-0.06-.08-0.13-0.15-0.2-0.23a3.467,3.467,0,0,1-.25-0.29,5.823,5.823,0,0,0-.4-0.45c-0.09-.1-0.18-0.19-0.26-0.29a1.619,1.619,0,0,0-.33-0.31,0.689,0.689,0,0,1-.08.03c0.02,0.2.05,0.4,0.07,0.6,0.01,0.1.03,0.2,0.04,0.3,0.02,0.16.04,0.32,0.06,0.49,0.01,0.07.02,0.13,0.03,0.2a3.417,3.417,0,0,0,.4,1.28l0.18,0.36c0.02,0.04.04,0.08,0.06,0.13a12.826,12.826,0,0,1,1,2.76c0.03,0.1.05,0.2,0.08,0.31s0.06,0.24.09,0.37c0.06,0.24.12,0.47,0.18,0.71,0.01,0.06.03,0.11,0.04,0.17s0.04,0.15.06,0.22,0.03,0.13.05,0.2c0.01,0.03.02,0.07,0.03,0.11a0.759,0.759,0,0,1-.01.3,0.329,0.329,0,0,1-.24.16,0.446,0.446,0,0,1-.23-0.13,1.29,1.29,0,0,1-.09-0.16c-0.02-.03-0.04-0.07-0.06-0.1a0.467,0.467,0,0,0-.05-0.1,1.091,1.091,0,0,0-.06-0.11c-0.04-.08-0.08-0.15-0.12-0.23-0.09-.17-0.18-0.35-0.27-0.52a1.194,1.194,0,0,1-.08-0.16c-0.02-.03-0.04-0.07-0.06-0.1s-0.03-.06-0.04-0.09a0.128,0.128,0,0,0-.1-0.09c0,0.03.01,0.05,0.01,0.08,0.02,0.1.03,0.21,0.05,0.31,0.01,0.05.01,0.09,0.02,0.13a1.034,1.034,0,0,1,.02.84,0.553,0.553,0,0,1-.25.07,0.527,0.527,0,0,1-.25-0.26,0.219,0.219,0,0,0-.03-0.05c-0.03-.05-0.06-0.11-0.09-0.16s-0.04-.07-0.06-0.11a1.858,1.858,0,0,0-.11-0.19,1.505,1.505,0,0,0-.1-0.17c0.05,0.42.12,0.83,0.19,1.24,0.02,0.1.03,0.2,0.05,0.3,0.03,0.19.07,0.38,0.1,0.57,0.03,0.21.07,0.43,0.11,0.64,0.01,0.08.03,0.16,0.04,0.25,0.03,0.16.06,0.33,0.08,0.49,0.02,0.1.04,0.2,0.05,0.3a0.09,0.09,0,0,1,.01.05c0.04,0.23.08,0.45,0.12,0.67,0.02,0.12.04,0.23,0.06,0.34,0.01,0.07.03,0.14,0.04,0.22a1.367,1.367,0,0,1,.05.7,0.4,0.4,0,0,1-.19.15,1.279,1.279,0,0,1-.64-0.31l-0.63-.39c-0.27-.16-0.54-0.33-0.81-0.5a1.07,1.07,0,0,0-.52-0.26c-0.2.4-.4,0.79-0.59,1.19-0.09.2-.19,0.4-0.28,0.6-0.13.26-.26,0.53-0.39,0.79s-0.24.51-.36,0.76a0.974,0.974,0,0,0-.05.11c-0.06.12-.11,0.23-0.17,0.34-0.01.02-.02,0.05-0.03,0.07a1.7,1.7,0,0,1-.58.61c-0.11.09-.21,0.17-0.32,0.25-0.15.12-.3,0.24-0.45,0.35-0.24.19-.48,0.37-0.72,0.56-0.26.2-.53,0.41-0.8,0.62-0.12.09-.24,0.18-0.35,0.27a0.3,0.3,0,0,1-.07.05c-0.11.09-.23,0.18-0.34,0.27s-0.22.17-.33,0.26a0.763,0.763,0,0,0-.11.08l-0.13.1a0.3,0.3,0,0,1-.07.05,0.42,0.42,0,0,1-.24.07,0.346,0.346,0,0,1-.21-0.2,2.709,2.709,0,0,1,.16-0.79,0.833,0.833,0,0,1,.04-0.15c0.03-.13.07-0.27,0.11-0.4,0.03-.15.07-0.3,0.11-0.44,0.07-.25.14-0.5,0.2-0.76,0.11-.39.21-0.78,0.31-1.17l0.27-.99a0.355,0.355,0,0,1,.02-0.1c0.07-.24.13-0.48,0.19-0.72l0.03-.09c0.11-.44.23-0.88,0.35-1.31,0.01-.04.02-0.07,0.03-0.11a0.471,0.471,0,0,1,.03-0.09c0.02-.07.03-0.15,0.05-0.22h-0.1l-0.89.03c-0.15.01-.3,0.01-0.46,0.02-0.14,0-.29.01-0.44,0.01-0.06,0-.11.01-0.17,0.01-0.15,0-.31.01-0.46,0.01a0.757,0.757,0,0,0-.15.01h-0.3a0.6,0.6,0,0,1-.46-0.19,0.763,0.763,0,0,1-.36-0.69l0.06-.27a0.188,0.188,0,0,0,.02-0.08,2.335,2.335,0,0,0,.07-0.25c0.02-.06.03-0.12,0.05-0.18,0.03-.13.07-0.26,0.1-0.38,0.04-.16.09-0.32,0.13-0.48,0.03-.13.07-0.25,0.1-0.38,0.02-.05.03-0.11,0.05-0.17a2.035,2.035,0,0,1,.56-1.31,1.2,1.2,0,0,1,.11-0.12c0.07-.08.15-0.17,0.23-0.25l0.05-.05a0.326,0.326,0,0,1,.27-0.08,1.223,1.223,0,0,1,.36.14c0.03,0.02.06,0.03,0.09,0.05,0.09,0.04.18,0.09,0.27,0.13l0.18,0.09c0.09,0.05.18,0.09,0.26,0.13,0.22,0.11.43,0.21,0.64,0.31a0.3,0.3,0,0,0,.08.04,3.76,3.76,0,0,0,.46.2,1.188,1.188,0,0,0,.06-0.42v-0.1c0.01-.1.02-0.2,0.02-0.3a0.34,0.34,0,0,0,.01-0.1,2.134,2.134,0,0,0-.2-0.93c-0.02-.05-0.04-0.11-0.06-0.17-0.04-.11-0.08-0.23-0.12-0.35-0.06-.16-0.12-0.32-0.17-0.48-0.01-.03-0.02-0.05-0.03-0.08-0.02-.05-0.03-0.1-0.05-0.15-0.05-.13-0.09-0.26-0.14-0.39-0.11-.31-0.22-0.63-0.33-0.95-0.09-.26-0.18-0.53-0.28-0.8l-0.03-.09c-0.06-.17-0.12-0.34-0.17-0.51-0.02-.05-0.04-0.11-0.06-0.16-0.04-.12-0.08-0.23-0.12-0.35-0.04-.1-0.07-0.2-0.1-0.3a0.88,0.88,0,0,1-.05-0.15,0.488,0.488,0,0,0-.03-0.07,0.276,0.276,0,0,0-.17-0.22,3,3,0,0,0-.43-0.03c-0.03,0-.06-0.01-0.09-0.01-0.1,0-.2,0-0.3-0.01h-0.1c-0.24-.01-0.47-0.02-0.71-0.02a0.249,0.249,0,0,1-.08-0.01h-0.42a1.087,1.087,0,0,0-.18-0.01,1.4,1.4,0,0,0-.66.16c-0.02.01-.05,0.03-0.07,0.04-0.08.04-.15,0.08-0.22,0.11a9.1,9.1,0,0,1-1.49.6,2.88,2.88,0,0,0-.31.13,5.321,5.321,0,0,0,.06.56c0.01,0.06.01,0.13,0.02,0.19a0.2,0.2,0,0,1,.01.07,0.751,0.751,0,0,1-.26.53c-0.06.07-.12,0.14-0.19,0.21-0.08.1-.17,0.2-0.25,0.31l-0.25.31c-0.02.02-.03,0.04-0.05,0.06-0.11.14-.22,0.28-0.34,0.41s-0.23.29-.35,0.43c-0.06.08-.13,0.16-0.19,0.24-0.15.19-.3,0.37-0.45,0.56-0.11.15-.23,0.29-0.35,0.43-0.1.11-.19,0.23-0.28,0.34-0.15.2-.31,0.4-0.48,0.59-0.06.07-.11,0.14-0.17,0.22a0.545,0.545,0,0,1-.45.35,0.3,0.3,0,0,1-.23-0.16,1.031,1.031,0,0,1,.13-0.42l0.03-.06c0.03-.07.07-0.14,0.1-0.21a0.611,0.611,0,0,0,.07-0.14c0.07-.12.13-0.25,0.2-0.38,0.1-.19.2-0.39,0.3-0.59,0.02-.05.05-0.1,0.07-0.15,0.15-.29.3-0.59,0.44-0.89,0.11-.25.24-0.49,0.36-0.73a0.363,0.363,0,0,1,.03-0.07c0.07-.15.15-0.3,0.23-0.45s0.15-.3.23-0.46l0.09-.18a1.173,1.173,0,0,0,.05-0.11c0.02-.03.03-0.06,0.05-0.09a0.682,0.682,0,0,0,.07-0.37,1.323,1.323,0,0,0-.15-0.29l-0.03-.06c-0.04-.07-0.07-0.13-0.11-0.2-0.01-.02-0.03-0.04-0.04-0.06a0.334,0.334,0,0,0-.19-0.18,0.528,0.528,0,0,0-.28.27,1.431,1.431,0,0,0-.11.15,0.555,0.555,0,0,1-.06.08c-0.08.12-.17,0.24-0.26,0.36a1.213,1.213,0,0,1-.1.14c-0.07.09-.13,0.18-0.2,0.27-0.02.03-.04,0.05-0.05,0.07a1.71,1.71,0,0,1-.11.14c-0.08.12-.16,0.23-0.25,0.35a14.151,14.151,0,0,1-1.04,1.34c-0.08.09-.15,0.17-0.22,0.26a3.153,3.153,0,0,1-.35.38c-0.05.05-.11,0.11-0.16,0.17-0.12.14-.25,0.27-0.38,0.4a3.2,3.2,0,0,0-.25.27c-0.15.16-.31,0.32-0.47,0.48a0.236,0.236,0,0,1-.05.05c-0.08.09-.17,0.17-0.25,0.26l-0.27.27-0.2.2-0.1.1a1.848,1.848,0,0,1-.14.14l-0.08.08a0.452,0.452,0,0,1-.25.12,0.51,0.51,0,0,1-.26-0.14,1.117,1.117,0,0,1,.19-0.59l0.06-.09c0.05-.1.1-0.19,0.16-0.29,0.03-.05.06-0.11,0.09-0.16,0.06-.11.12-0.22,0.19-0.33,0.1-.19.21-0.38,0.31-0.57,0.14-.25.28-0.51,0.43-0.76a0.405,0.405,0,0,1,.05-0.09c0.08-.14.15-0.28,0.23-0.42l0.09-.15c0.04-.07.07-0.13,0.11-0.19a0.405,0.405,0,0,1,.05-0.09l0.04-.08a2,2,0,0,0,.1-0.21,0.336,0.336,0,0,0-.21.16c-0.1.14-.22,0.26-0.33,0.39s-0.22.23-.32,0.36c-0.14.18-.3,0.34-0.45,0.5-0.08.09-.17,0.18-0.25,0.28-0.06.07-.13,0.14-0.19,0.21-0.12.13-.24,0.26-0.35,0.4l-0.07.07a3.346,3.346,0,0,0-.82,1.87,1.3,1.3,0,0,0,.2.41,0.879,0.879,0,0,0,.06.1,2.392,2.392,0,0,1,.13.21c0.09,0.16.19,0.32,0.28,0.49l0.42,0.72c0.31,0.52.61,1.05,0.91,1.57,0.13,0.24.27,0.47,0.4,0.7,0.15,0.26.29,0.51,0.44,0.76,0.2,0.36.41,0.72,0.62,1.07,0.1,0.19.21,0.38,0.32,0.57,0.09,0.16.18,0.32,0.27,0.47,0.2,0.35.4,0.69,0.6,1.03,0.14,0.25.28,0.49,0.42,0.74l0.48,0.84c0.12,0.22.25,0.43,0.38,0.65,0.05,0.1.11,0.19,0.16,0.29s0.13,0.22.19,0.33c0.03,0.04.06,0.09,0.09,0.14l0.03,0.06a0.441,0.441,0,0,1,.08.28,0.226,0.226,0,0,1-.11.18,1.43,1.43,0,0,1-.95-0.44l-0.18-.12c-0.03-.02-0.05-0.04-0.08-0.06-0.09-.06-0.18-0.13-0.28-0.19-0.15-.1-0.29-0.21-0.44-0.33l-0.04-.04a6.088,6.088,0,0,1-.94-0.96,2.725,2.725,0,0,0-.23-0.25c-0.1-.11-0.19-0.22-0.28-0.33-0.12-.15-0.25-0.29-0.38-0.43a3.092,3.092,0,0,1-.33-0.39l-0.34-.37c-0.12-.13-0.24-0.27-0.36-0.41-0.17-.2-0.35-0.4-0.52-0.59-0.12-.13-0.24-0.27-0.36-0.4-0.15-.18-0.3-0.35-0.46-0.52a0.176,0.176,0,0,0-.04-0.05c-0.08-.09-0.17-0.18-0.26-0.27,0.18,0.46.37,0.92,0.56,1.37,0.03,0.06.05,0.12,0.08,0.18a0.793,0.793,0,0,1,.04.09c0.07,0.16.13,0.33,0.2,0.49l0.12,0.3c0.02,0.05.04,0.09,0.06,0.14a2.705,2.705,0,0,0,.51.84,1.5,1.5,0,0,1,.11.13,0.444,0.444,0,0,1,.08.11,1.059,1.059,0,0,1,.1.12,0.236,0.236,0,0,1,.05.05l0.21,0.27c0.06,0.08.13,0.16,0.2,0.24,0.15,0.18.29,0.37,0.44,0.55,0.1,0.13.21,0.26,0.31,0.39,0.12,0.15.24,0.29,0.35,0.44,0.18,0.22.36,0.45,0.54,0.67,0.22,0.27.44,0.55,0.66,0.82,0.04,0.05.08,0.1,0.12,0.16,0.13,0.17.27,0.34,0.4,0.51a0.176,0.176,0,0,1,.04.05,0.452,0.452,0,0,1,.12.38,0.362,0.362,0,0,1-.15.15,0.829,0.829,0,0,1-.48-0.13c-0.03-.01-0.05-0.03-0.08-0.04-0.09-.04-0.18-0.09-0.27-0.13a1.618,1.618,0,0,1-.18-0.1c-0.13-.06-0.25-0.12-0.38-0.18-0.23-.12-0.46-0.23-0.69-0.34-0.12-.06-0.23-0.11-0.35-0.17a0.488,0.488,0,0,0-.07-0.03c-0.14-.07-0.29-0.15-0.43-0.22-0.1-.05-0.21-0.1-0.31-0.15-0.04-.02-0.09-0.04-0.14-0.07-0.25-.12-0.51-0.24-0.77-0.37a0.488,0.488,0,0,0-.07-0.03l-0.06-.03-0.06-.03a0.457,0.457,0,0,0-.14-0.05v0.06a0.142,0.142,0,0,1,.06.02,1.375,1.375,0,0,1,.3.19c0.2,0.14.4,0.28,0.6,0.41,0.25,0.18.51,0.35,0.76,0.53,0.06,0.04.11,0.08,0.17,0.12a0.209,0.209,0,0,0,.06.04,0.607,0.607,0,0,0,.1.07,0.59,0.59,0,0,1,.22.25,0.41,0.41,0,0,1-.07.26,0.347,0.347,0,0,1-.28.06c-0.08-.03-0.15-0.06-0.22-0.09-0.02-.01-0.05-0.02-0.07-0.03-0.07-.03-0.14-0.07-0.21-0.1a1.009,1.009,0,0,1-.15-0.07c-0.1-.04-0.2-0.09-0.31-0.14l-0.6-.27c-0.52-.23-1.03-0.46-1.54-0.69-0.2-.09-0.4-0.18-0.61-0.27-0.19-.09-0.39-0.18-0.58-0.26-0.12-.06-0.25-0.11-0.37-0.17-0.08-.03-0.16-0.07-0.25-0.11a0.59,0.59,0,0,1-.08-0.04c-0.03-.01-0.05-0.02-0.08-0.03a0.169,0.169,0,0,0-.06-0.03,0.188,0.188,0,0,1-.11-0.12c-0.02-.08-0.03-0.16-0.05-0.24a0.22,0.22,0,0,0-.01-0.08c-0.01-.08-0.02-0.17-0.03-0.25-0.01-.06-0.02-0.11-0.03-0.17l-0.06-.45c-0.03-.16-0.05-0.31-0.07-0.47-0.05-.3-0.09-0.6-0.13-0.9a0.729,0.729,0,0,0-.26.09c-0.02.01-.05,0.03-0.07,0.04a0.423,0.423,0,0,1-.07.05c-0.02.01-.05,0.03-0.07,0.04-0.21.14-.41,0.27-0.61,0.41-0.26.17-.51,0.33-0.76,0.5l-0.15.09a0.256,0.256,0,0,1-.25-0.06,0.428,0.428,0,0,1-.07-0.35,2.094,2.094,0,0,1,.08-0.23,0.637,0.637,0,0,0,.02-0.07c0.02-.06.05-0.13,0.07-0.19a0.784,0.784,0,0,0,.05-0.14l0.09-.24a0.142,0.142,0,0,0,.02-0.06c0.02-.04.03-0.08,0.05-0.12a0.616,0.616,0,0,0,.06-0.26,0.682,0.682,0,0,0-.27.1c-0.02.02-.04,0.03-0.06,0.05s-0.05.03-.08,0.05c-0.05.03-.1,0.07-0.16,0.1a0.555,0.555,0,0,1-.08.06c-0.12.08-.24,0.16-0.37,0.24-0.05.03-.1,0.06-0.14,0.09-0.1.07-.2,0.13-0.3,0.19a0.423,0.423,0,0,1-.07.05c-0.05.03-.1,0.06-0.14,0.09-0.13.08-.25,0.16-0.37,0.24s-0.24.16-.37,0.24a1.373,1.373,0,0,1-.2.13c-0.1.07-.21,0.14-0.31,0.2a1.213,1.213,0,0,0-.14.1,0.372,0.372,0,0,1-.32.11,0.172,0.172,0,0,1-.14-0.12,0.85,0.85,0,0,1,.17-0.43,0.218,0.218,0,0,0,.05-0.08l0.15-.24,0.06-.09c0.07-.11.14-0.23,0.21-0.35,0.18-.28.36-0.57,0.53-0.86a1.3,1.3,0,0,0,.1-0.15c0.02-.03.03-0.05,0.05-0.08s0.03-.05.05-0.07a0.121,0.121,0,0,0,.01-0.13c0-.02-0.01-0.03-0.01-0.05a0.859,0.859,0,0,0-.45.04c-0.07.07-.13,0.13-0.2,0.21-0.14.16-.29,0.3-0.44,0.45-0.19.19-.19,0.19-0.38,0.4s-0.39.4-.59,0.6c-0.27.27-.27,0.27-0.53,0.56a1.209,1.209,0,0,1-.16.16,0.265,0.265,0,0,0-.06.05,0.352,0.352,0,0,1-.28.07,0.382,0.382,0,0,1-.13-0.04,1.107,1.107,0,0,1,.01-0.74c0-.03.01-0.06,0.01-0.09,0.02-.11.04-0.21,0.06-0.31,0.01-.07.03-0.15,0.04-0.22l0.09-.51c0.06-.32.12-0.65,0.18-0.97,0.02-.11.04-0.21,0.06-0.32,0.01-.06.02-0.13,0.03-0.19,0.01-.03.01-0.06,0.02-0.09a0.248,0.248,0,0,0,.01-0.09,0.637,0.637,0,0,0,.02-0.07,0.739,0.739,0,0,0,0-.21,3.251,3.251,0,0,0-.61-0.33,1.091,1.091,0,0,1-.11-0.06c-0.08-.04-0.16-0.07-0.24-0.11-0.11-.05-0.23-0.11-0.34-0.16l-0.06-.03c-0.09-.04-0.18-0.09-0.27-0.13-0.14-.07-0.29-0.14-0.44-0.21-0.04-.02-0.08-0.04-0.13-0.06a0.467,0.467,0,0,0-.1-0.05,0.5,0.5,0,0,1-.2-0.23,0.84,0.84,0,0,1,.12-0.51,0.594,0.594,0,0,0,.04-0.08l0.12-.24,0.09-.18c0.06-.11.11-0.22,0.17-0.33,0.08-.17.16-0.33,0.24-0.5,0.09-.19.18-0.37,0.27-0.56l0.03-.06a3.182,3.182,0,0,1,.16-0.32c0.04-.1.09-0.19,0.13-0.29,0.03-.05.05-0.1,0.07-0.14s0.03-.06.05-0.09,0.02-.05.03-0.07a0.213,0.213,0,0,0-.01-0.19,8.426,8.426,0,0,0-.86.11,2.166,2.166,0,0,0-.25.04c-0.24.03-.49,0.07-0.73,0.1-0.15.03-.29,0.05-0.44,0.07l-0.17.03-0.24.03c-0.02,0-.04.01-0.07,0.01a0.672,0.672,0,0,1-.42-0.04,0.37,0.37,0,0,1-.08-0.29,0.943,0.943,0,0,1,.1-0.23c0.01-.02.02-0.05,0.03-0.07a2.116,2.116,0,0,0,.11-0.21,1.009,1.009,0,0,0,.07-0.15c0.05-.09.1-0.19,0.15-0.29,0.08-.15.16-0.31,0.23-0.48,0.03-.05.05-0.1,0.08-0.15l0.04-.08c0.07-.17.15-0.33,0.23-0.5a0.085,0.085,0,0,0,.03-0.05c0.05-.11.1-0.22,0.16-0.33,0.08-.16.15-0.32,0.23-0.48a0.219,0.219,0,0,1,.03-0.05c0.13-.27.26-0.55,0.39-0.82,0.08-.16.16-0.33,0.24-0.5,0.03-.05.05-0.11,0.08-0.17s0.05-.1.08-0.16c0.1-.21.2-0.42,0.28-0.64a1.372,1.372,0,0,0-.49.23,0.467,0.467,0,0,0-.1.05l-0.09.06-0.08.04a0.867,0.867,0,0,0-.33.43,0.488,0.488,0,0,1-.03.07,2.288,2.288,0,0,0-.1.23c-0.02.05-.05,0.1-0.07,0.16-0.05.11-.1,0.22-0.15,0.34-0.07.16-.14,0.33-0.22,0.5-0.27.63-.54,1.26-0.81,1.88-0.02.05-.04,0.09-0.06,0.14-0.05.13-.1,0.25-0.16,0.38-0.01.03-.02,0.05-0.03,0.08-0.02.06-.05,0.11-0.07,0.16a0.5,0.5,0,0,1-.26.38,0.362,0.362,0,0,1-.29-0.06,0.911,0.911,0,0,1-.01-0.67c0.01-.05.01-0.05,0.02-0.11a2.741,2.741,0,0,0,.05-0.28l0.06-.3,0.09-.51c0.03-.18.06-0.35,0.09-0.52a0.127,0.127,0,0,0,.01-0.06c0.01-.05.02-0.09,0.03-0.13,0.07-.39.14-0.78,0.21-1.16,0.03-.22.07-0.43,0.11-0.64,0.02-.12.04-0.24,0.06-0.35,0.01-.06.02-0.11,0.03-0.16a2.069,2.069,0,0,0,.04-0.22,0.127,0.127,0,0,0,.01-0.06,0.717,0.717,0,0,1,.22-0.43,2.956,2.956,0,0,0,.24-0.26c0.02-.03.04-0.05,0.06-0.08a0.209,0.209,0,0,0,.04-0.06,0.471,0.471,0,0,0-.03-0.09,0.308,0.308,0,0,1-.09-0.01c-0.03,0-.07-0.01-0.11-0.01-0.02,0-.04-0.01-0.06-0.01a0.338,0.338,0,0,1-.3-0.59c0.01-.03.02-0.05,0.03-0.08,0.03-.08.05-0.16,0.08-0.24,0.02-.06.04-0.11,0.06-0.17,0.04-.13.09-0.27,0.13-0.4a1.227,1.227,0,0,0-.33.23c-0.02.02-.04,0.05-0.06,0.07a0.462,0.462,0,0,0-.07.07c-0.16.16-.32,0.32-0.5,0.47-0.02.02-.05,0.04-0.07,0.06-0.04.03-.04,0.03-0.07,0.05a0.265,0.265,0,0,1-.06.05,0.314,0.314,0,0,1-.21.07,0.27,0.27,0,0,1-.17-0.46c0.04-.06.09-0.12,0.13-0.18a0.435,0.435,0,0,1,.06-0.07c0.03-.05.07-0.1,0.1-0.15,0.07-.09.14-0.18,0.21-0.28l0.1-.13c0.12-.16.23-0.32,0.34-0.47,0.15-.21.3-0.41,0.45-0.61l0.39-.54c0.1-.14.2-0.27,0.3-0.41a2.366,2.366,0,0,0,.51-0.86,0.694,0.694,0,0,0-.35.18,2.5,2.5,0,0,1-.85.28l-0.13.03c-0.1.03-.19,0.05-0.29,0.07l-0.35.09c-0.25.05-.5,0.11-0.74,0.17-0.1.02-.2,0.04-0.3,0.07l-0.15.03c-0.02.01-.04,0.01-0.06,0.02a0.388,0.388,0,0,1-.3-0.04,0.374,0.374,0,0,1-.14-0.23,0.36,0.36,0,0,1,.16-0.24c0.08-.04.15-0.07,0.22-0.11a0.488,0.488,0,0,0,.07-0.03c0.05-.02.09-0.05,0.14-0.07,0.1-.05.2-0.09,0.3-0.14,0.06-.03.11-0.05,0.16-0.08,0.28-.13.56-0.27,0.84-0.41,0.05-.02.1-0.05,0.15-0.07a3.026,3.026,0,0,0,.93-0.64c0.05-.05.11-0.1,0.17-0.15a3.07,3.07,0,0,0,.26-0.25c0.06-.05.11-0.1,0.17-0.15l0.36-.33a1.538,1.538,0,0,1,.13-0.12,0.435,0.435,0,0,0,.06-0.07c0.23-.21.47-0.43,0.7-0.65a1.538,1.538,0,0,0,.13-0.12,1.063,1.063,0,0,0,.11-0.09,1.831,1.831,0,0,0,.42-0.54,2.116,2.116,0,0,1,.11-0.21,0.879,0.879,0,0,0,.06-0.1c0.09-.17.19-0.33,0.3-0.5,0.01-.02.03-0.04,0.04-0.06a0.209,0.209,0,0,1,.04-0.06,0.215,0.215,0,0,0,.02-0.17c-0.02-.01-0.03-0.01-0.05-0.02l-1.29-.3c-0.2-.05-0.41-0.1-0.62-0.14-0.18-.05-0.36-0.09-0.54-0.13-0.09-.02-0.19-0.05-0.28-0.07-0.11-.02-0.22-0.05-0.32-0.07a0.381,0.381,0,0,0-.1-0.03,1.19,1.19,0,0,1-.41-0.15,0.387,0.387,0,0,1-.03-0.26,0.411,0.411,0,0,1,.23-0.2,1.163,1.163,0,0,1,.18-0.04,0.355,0.355,0,0,0,.1-0.02,380705416360.819,380705416360.819,0,0,1,.24-0.04c0.08-.01.17-0.03,0.25-0.04l0.32-.06c0.1-.01.21-0.03,0.31-0.05l0.11-.02c0.25-.04.49-0.08,0.73-0.11v-0.06c-0.02-.01-0.05-0.01-0.08-0.02-0.11-.02-0.22-0.05-0.33-0.08-0.06-.01-0.12-0.03-0.18-0.04-0.1-.02-0.21-0.05-0.32-0.08a0.44,0.44,0,0,1-.1-0.02,0.458,0.458,0,0,1-.41-0.23,0.341,0.341,0,0,1,0-.2,0.392,0.392,0,0,1,.23-0.17,0.485,0.485,0,0,1,.17,0h0.24a0.127,0.127,0,0,1,.06.01c0.65,0.02,1.29.05,1.94,0.08l0.6,0.03,0.47,0.03h0.08a0.915,0.915,0,0,0,.16.01,1.927,1.927,0,0,0,.24.01,1.3,1.3,0,0,0-.26-0.51,0.555,0.555,0,0,1-.06-0.08c-0.05-.09-0.11-0.17-0.17-0.26a1.47,1.47,0,0,1-.1-0.13l-0.21-.3c-0.04-.06-0.09-0.12-0.13-0.18l-0.51-.72c-0.08-.1-0.15-0.21-0.23-0.32l-0.04-.06a0.292,0.292,0,0,1-.04-0.24,0.413,0.413,0,0,1,.15-0.17,0.3,0.3,0,0,1,.26.03,5.3,5.3,0,0,1,.51.45c0.06,0.06.13,0.12,0.19,0.18,0.18,0.16.36,0.32,0.54,0.49,0.15,0.13.3,0.27,0.45,0.4a0.462,0.462,0,0,0,.07.07l0.18,0.15a1.585,1.585,0,0,1,.52.89,0.34,0.34,0,0,0,.14.25,0.244,0.244,0,0,0,.22,0c0.08-.05.08-0.05,0.07-0.15a1.257,1.257,0,0,0-.05-0.33c-0.01-.02-0.01-0.04-0.02-0.06a1.462,1.462,0,0,1-.05-0.2,1.026,1.026,0,0,1-.04-0.14c-0.03-.13-0.07-0.25-0.1-0.37s-0.06-.26-0.1-0.38c-0.06-.22-0.11-0.44-0.17-0.66a1.3,1.3,0,0,1-.06-0.48,0.292,0.292,0,0,1,.15-0.14,0.8,0.8,0,0,1,.56.19c0.03,0.02.06,0.03,0.09,0.05,0.1,0.06.19,0.11,0.28,0.17a1.178,1.178,0,0,1,.19.11,1.093,1.093,0,0,1,.15.08,0.593,0.593,0,0,0,.16.07,2.52,2.52,0,0,0-.24-0.33,0.9,0.9,0,0,1-.09-0.1c-0.01-.01-0.02-0.03-0.04-0.05-0.06-.07-0.11-0.14-0.17-0.21-0.1-.11-0.19-0.23-0.29-0.35-0.17-.19-0.33-0.39-0.49-0.58-0.12-.15-0.24-0.29-0.36-0.44q-0.21-.24-0.42-0.51a0.218,0.218,0,0,1-.04-0.05,0.307,0.307,0,0,1-.08-0.24,0.3,0.3,0,0,1,.08-0.17,0.48,0.48,0,0,1,.42.04c0.45,0.21.89,0.47,1.33,0.71,0.09,0.06.19,0.11,0.28,0.16a0.405,0.405,0,0,0,.09.05,0.611,0.611,0,0,0,.4.14,1.045,1.045,0,0,0,.21-0.21l0.06-.06c0.05-.07.11-0.13,0.16-0.19a1.2,1.2,0,0,0,.11-0.12c0.02-.02.03-0.04,0.05-0.06,0.06-.07.12-0.13,0.18-0.2,0.02-.02.04-0.05,0.06-0.07,0.05-.05.09-0.1,0.14-0.15,0.1-.11.2-0.22,0.3-0.34a0.218,0.218,0,0,0,.04-0.05c0.04-.04.08-0.09,0.12-0.13a0.435,0.435,0,0,1,.06-0.07,0.435,0.435,0,0,1,.06-0.07,0.252,0.252,0,0,1,.2-0.09,1.852,1.852,0,0,1,.53.11,0.564,0.564,0,0,1,.12.04l0.23,0.06,0.3,0.09c0.08,0.02.16,0.05,0.24,0.07a0.983,0.983,0,0,1,.16.05,0.593,0.593,0,0,1,.51.29,0.42,0.42,0,0,1-.07.24,2.043,2.043,0,0,1-1.1.1h-0.33a0.3,0.3,0,0,0-.26.06,1.644,1.644,0,0,0-.14.22,0.929,0.929,0,0,0-.05.1,0.879,0.879,0,0,0-.06.1l-0.09.15c-0.02.03-.04,0.07-0.06,0.1-0.06.11-.12,0.22-0.18,0.32-0.02.03-.03,0.05-0.05,0.08s-0.05.09-.08,0.14c-0.01.02-.03,0.04-0.04,0.06s-0.02.03-.03,0.05a0.2,0.2,0,0,0-.02.11,0.372,0.372,0,0,0,.22.17,0.209,0.209,0,0,1,.06.04c0.06,0.03.13,0.06,0.19,0.09a0.826,0.826,0,0,0,.13.07l0.18,0.09c0.1,0.05.19,0.1,0.29,0.16a0.929,0.929,0,0,0,.1.05,0.351,0.351,0,0,0,.08.05,0.785,0.785,0,0,0,.62-0.01,0.923,0.923,0,0,0,.49-0.5l0.03-.12a1.78,1.78,0,0,0-.31.23c-0.28.27-.28,0.27-0.42,0.27a0.4,0.4,0,0,1-.26-0.21,0.415,0.415,0,0,1,.11-0.35,0.176,0.176,0,0,0,.04-0.05c0.05-.06.09-0.12,0.14-0.18s0.07-.1.11-0.15l0.18-.24c0.11-.14.22-0.28,0.32-0.43,0.14-.19.29-0.38,0.43-0.58,0.16-.2.31-0.4,0.46-0.6a0.8,0.8,0,0,1,.33-0.39,0.412,0.412,0,0,1,.29.05,2.22,2.22,0,0,1,.28.33c0.08,0.09.15,0.18,0.23,0.27,0.11,0.13.22,0.26,0.32,0.4,0.13,0.16.27,0.32,0.41,0.48,0.09,0.11.19,0.22,0.28,0.33l0.12,0.15c0.02,0.02.04,0.05,0.06,0.07s0.02,0.03.05,0.07a0.121,0.121,0,0,0,.05.05c0.04,0.05.04,0.05,0.13,0.04a0.076,0.076,0,0,0,.02-0.05c0.04-.08.08-0.15,0.12-0.23a0.2,0.2,0,0,1,.04-0.08,0.689,0.689,0,0,1,.03-0.08,0.3,0.3,0,0,0,.04-0.08,0.389,0.389,0,0,1,.16-0.15,1.676,1.676,0,0,1,.18.03,0.292,0.292,0,0,1,.09.02c0.03,0,.05.01,0.08,0.01a1.283,1.283,0,0,0-.17-0.3l-0.06-.09-0.06-.09c-0.04-.06-0.09-0.12-0.13-0.18l-0.06-.08c-0.04-.06-0.07-0.12-0.11-0.18a0.337,0.337,0,0,0-.23-0.13c-0.08-.01-0.16-0.01-0.24-0.02-0.05,0-.1-0.01-0.14-0.01-0.08,0-.15-0.01-0.22-0.01s-0.14-.01-0.21-0.02h-0.07a0.391,0.391,0,0,1-.29-0.11,0.441,0.441,0,0,1,.01-0.32,1.2,1.2,0,0,1,.11-0.12,6.157,6.157,0,0,1,1.05.05c0.06,0.01.11,0.01,0.17,0.02l0.34,0.03c0.14,0.01.29,0.02,0.43,0.04l0.34,0.03c0.06,0,.11.01,0.16,0.01a1.954,1.954,0,0,1,.95.2,0.114,0.114,0,0,0,.12-0.03,1.427,1.427,0,0,0,.08-0.22,0.637,0.637,0,0,1,.02-0.07,1.416,1.416,0,0,0,.07-0.22C1435.23,1778.22,1435.23,1778.22,1435.47,1778.22Zm-31.02,18.63a0.491,0.491,0,0,1,.07.31v1.69a1.837,1.837,0,0,1-.4,1.39,0.864,0.864,0,0,1-.14.13c-0.2.17-.38,0.36-0.56,0.54-0.04.04-.08,0.09-0.12,0.13l-0.27.27c-0.15.14-.29,0.29-0.43,0.43l-1.23,1.23c-0.22.22-.45,0.45-0.67,0.68-0.15.14-.29,0.28-0.43,0.42l-0.27.27-0.12.12a4.494,4.494,0,0,1-3.2,1.45,4.233,4.233,0,0,1-2.92-1.25,0.265,0.265,0,0,0-.06-0.05,4.008,4.008,0,0,1-1.14-2.66,4.238,4.238,0,0,1,.94-2.8c0.02-.02.04-0.05,0.06-0.07a4.166,4.166,0,0,1,2.9-1.4,4.091,4.091,0,0,1,2.78.83,0.1,0.1,0,0,0,.05.04,4.567,4.567,0,0,1,1.43,2.24,0.461,0.461,0,0,0,.28-0.21l0.09-.12a0.236,0.236,0,0,0,.05-0.05c0.08-.09.15-0.18,0.23-0.27a0.218,0.218,0,0,1,.04-0.05c0.09-.11.19-0.21,0.28-0.32s0.18-.2.27-0.31c0.11-.13.22-0.26,0.33-0.38a3.467,3.467,0,0,0,.25-0.29,4.482,4.482,0,0,1,.36-0.4c0.09-.1.17-0.2,0.26-0.3a5.6,5.6,0,0,1,.4-0.45c0.12-.14.25-0.28,0.37-0.42a0.265,0.265,0,0,1,.05-0.06c0.03-.04.06-0.07,0.09-0.11A0.385,0.385,0,0,1,1404.45,1796.85Zm-8.8,2.59a0.488,0.488,0,0,1-.07.03c-0.06.03-.13,0.06-0.19,0.09a0.3,0.3,0,0,1-.08.04,2.3,2.3,0,0,0-.88,3.15,2.538,2.538,0,0,0,.23.34l0.05,0.05a2.2,2.2,0,0,0,1.38.76,2.4,2.4,0,0,0,1.81-.5,0.265,0.265,0,0,0,.06-0.05l0.06-.06a2.295,2.295,0,0,0,.11-3.23c-0.02-.02-0.03-0.04-0.05-0.06a2.2,2.2,0,0,0-1.48-.68h-0.25A2.1,2.1,0,0,0,1395.65,1799.44Zm67.69-1.25a0.447,0.447,0,0,1,.32.2,3.569,3.569,0,0,0,.28.27c0.18,0.15.33,0.32,0.49,0.48s0.3,0.3.46,0.44a1.739,1.739,0,0,1,.66,1.12,1.21,1.21,0,0,1,.01.19v0.06a1.275,1.275,0,0,0,.01.19v0.13c0,0.12,0,.25.01,0.37v0.31c0.01,0.25.01,0.5,0.01,0.74s0.01,0.45.02,0.67c0.02,1.07.04,2.15,0.04,3.22v0.25a4.38,4.38,0,0,1-1.06,3.1,0.423,0.423,0,0,1-.05.07,3.914,3.914,0,0,1-2.07,1.19c-0.02,0-.04.01-0.06,0.01a4.022,4.022,0,0,1-1.98-.04,0.235,0.235,0,0,0-.08-0.02,4.126,4.126,0,0,1-1.7-1l-0.05-.05a4.171,4.171,0,0,1-1-1.58c-0.01-.03-0.02-0.06-0.03-0.1a3.852,3.852,0,0,1-.06-2.23,0.637,0.637,0,0,1,.02-0.07,4.286,4.286,0,0,1,1.09-1.83,0.435,0.435,0,0,0,.06-0.07,4.009,4.009,0,0,1,2.21-1.12l0.1-.02a4.308,4.308,0,0,1,2.49.47,0.163,0.163,0,0,0,.15.04,5.781,5.781,0,0,0-.03-0.72,0.57,0.57,0,0,1-.01-0.13l-0.03-.27c-0.01-.15-0.02-0.3-0.04-0.44l-0.06-.69c-0.03-.42-0.07-0.83-0.1-1.24-0.02-.15-0.03-0.29-0.04-0.43a2.635,2.635,0,0,1-.02-0.28,0.487,0.487,0,0,1-.01-0.12c-0.02-.13-0.03-0.27-0.04-0.4v-0.06c-0.01-.07-0.01-0.14-0.02-0.2a0.148,0.148,0,0,0-.01-0.07,0.4,0.4,0,0,1,.09-0.31Zm-3.88,7.55a2.374,2.374,0,0,0-.55,1.37v0.07a2.416,2.416,0,0,0,.71,1.75,2.369,2.369,0,0,0,1.6.63,2.209,2.209,0,0,0,1.01-.24c0.03-.01.06-0.03,0.09-0.04a2.31,2.31,0,0,0,1.09-1.29,2.3,2.3,0,0,0-1.69-2.99A2.406,2.406,0,0,0,1459.46,1805.74Zm-17.94-4.75a1.555,1.555,0,0,1,.32.44l0.03,0.06a3.627,3.627,0,0,1,.22,1.5c0.01,0.11.01,0.21,0.02,0.32l0.03,0.63c0.01,0.17.02,0.34,0.02,0.51a0.22,0.22,0,0,1,.01.08,0.708,0.708,0,0,0,.01.14c0.01,0.33.03,0.66,0.05,0.99,0.03,0.58.06,1.17,0.09,1.75v0.07a0.22,0.22,0,0,0,.01.08c0.01,0.3.03,0.61,0.04,0.92,0.02,0.22.03,0.45,0.04,0.68l0.03,0.57c0.01,0.1.01,0.19,0.02,0.29s0.01,0.21.01,0.32c0,0.03.01,0.06,0.01,0.09a0.647,0.647,0,0,1-.15.51,0.827,0.827,0,0,1-.56.08,1.08,1.08,0,0,1-.35-0.1c-0.05-.02-0.1-0.03-0.15-0.05a0.261,0.261,0,0,0-.08-0.03c-0.13-.05-0.27-0.09-0.4-0.14a0.983,0.983,0,0,1-.16-0.05,2.25,2.25,0,0,1-.24-0.08c-0.08-.02-0.16-0.05-0.24-0.07-0.03-.01-0.05-0.02-0.08-0.03a0.567,0.567,0,0,1-.37-0.29c-0.04-.09-0.08-0.17-0.12-0.26a0.793,0.793,0,0,1-.04-0.09,0.479,0.479,0,0,1-.07-0.51,2.165,2.165,0,0,1,.91-0.45c0.05-.02.09-0.04,0.14-0.06a0.488,0.488,0,0,1,.07-0.03,1.122,1.122,0,0,0,.13-0.05c0.1-.04.19-0.08,0.29-0.12,0.04-.01.07-0.02,0.1-0.03s0.05-.02.08-0.03a0.11,0.11,0,0,0,.08-0.12,1.713,1.713,0,0,0-.01-0.32,0.148,0.148,0,0,1-.01-0.07l-0.03-.21a0.772,0.772,0,0,1-.02-0.15c-0.02-.1-0.03-0.2-0.05-0.3-0.02-.14-0.03-0.27-0.05-0.4-0.02-.1-0.03-0.2-0.05-0.31a0.784,0.784,0,0,0-.02-0.14l-0.03-.21a0.127,0.127,0,0,0-.01-0.06,0.272,0.272,0,0,0-.03-0.14,0.5,0.5,0,0,0-.29-0.09c-0.02,0-.04-0.01-0.06-0.01a1.492,1.492,0,0,0-.21-0.02,0.772,0.772,0,0,0-.15-0.02c-0.11-.02-0.22-0.03-0.33-0.04-0.17-.02-0.34-0.04-0.51-0.07l-1.27-.15-1-.12c-0.16-.02-0.33-0.05-0.5-0.07l-0.32-.03a0.772,0.772,0,0,0-.15-0.02l-0.2-.03c-0.04,0-.08-0.01-0.11-0.01a0.718,0.718,0,0,1-.44-0.2,0.176,0.176,0,0,0-.04-0.05c-0.08-.12-0.16-0.24-0.24-0.37-0.03-.05-0.07-0.11-0.1-0.17a0.555,0.555,0,0,1-.06-0.08c-0.08-.14-0.17-0.28-0.26-0.42a0.413,0.413,0,0,1-.07-0.11,1.047,1.047,0,0,1-.08-0.11,0.483,0.483,0,0,1-.12-0.35,0.916,0.916,0,0,1,.16-0.31,0.574,0.574,0,0,0,.04-0.07,1.444,1.444,0,0,1,.91-0.75,0.235,0.235,0,0,1,.08-0.02c0.1-.03.19-0.05,0.29-0.08a1.945,1.945,0,0,0,.2-0.05c0.14-.04.28-0.07,0.42-0.11,0.37-.09.73-0.19,1.09-0.28,0.13-.04.26-0.07,0.39-0.11l0.1-.02c0.23-.06.46-0.12,0.68-0.18l0.09-.03,0.47-.12c0.28-.07.55-0.14,0.83-0.22,0.13-.03.25-0.06,0.37-0.1,0.06-.01.12-0.03,0.18-0.04,0.08-.02.16-0.05,0.24-0.07a0.145,0.145,0,0,0,.07-0.02A0.472,0.472,0,0,1,1441.52,1800.99Zm-0.66,11.41h0.08a0.478,0.478,0,0,1,.37.1,1.01,1.01,0,0,1,.13.16,0.143,0.143,0,0,0,.12.06,0.285,0.285,0,0,0,.19-0.15,0.319,0.319,0,0,1,.18-0.15,1.708,1.708,0,0,1,.87.11,1.257,1.257,0,0,1,.15.38,0.2,0.2,0,0,0,.01.07c0.01,0.04.02,0.09,0.03,0.14,0.02,0.07.03,0.14,0.05,0.22,0.01,0.04.02,0.09,0.03,0.14,0.01,0.02.01,0.04,0.02,0.06a0.489,0.489,0,0,1,0,.47,1.014,1.014,0,0,1-.24.1,0.106,0.106,0,0,1-.05.02l-0.18.06-0.06.03c-0.14.05-.29,0.09-0.43,0.14a0.142,0.142,0,0,1-.06.02c-0.12.04-.23,0.08-0.35,0.12a0.239,0.239,0,0,0-.09.03,1.3,1.3,0,0,1-.89-0.01c-0.02-.01-0.05-0.02-0.07-0.03-0.06-.02-0.11-0.04-0.17-0.06l-0.33-.12c-0.22-.08-0.43-0.17-0.65-0.25-0.09-.03-0.17-0.06-0.26-0.09-0.11-.04-0.22-0.09-0.34-0.13-0.03-.01-0.07-0.03-0.1-0.04a0.689,0.689,0,0,1-.1-0.04,0.689,0.689,0,0,0-.08-0.03,0.335,0.335,0,0,1-.15-0.18,0.3,0.3,0,0,1,.08-0.24,0.826,0.826,0,0,1,.22-0.14c0.03-.01.06-0.03,0.09-0.04a0.929,0.929,0,0,0,.1-0.05c0.04-.02.07-0.03,0.11-0.05,0.33-.16.66-0.3,1-0.44,0.06-.02.12-0.05,0.17-0.07A1.137,1.137,0,0,1,1440.86,1812.4Zm-31.69,1a5.968,5.968,0,0,1,4.18,1.46,3.987,3.987,0,0,1,.92,1.56c0,0.02.01,0.04,0.01,0.06a4.1,4.1,0,0,1-.48,3.13,4.2,4.2,0,0,1-.49.7,0.5,0.5,0,0,1-.07.08,5.9,5.9,0,0,1-1.04,1.02,0.9,0.9,0,0,1-.1.09,8.394,8.394,0,0,1-.77.56,0.209,0.209,0,0,0-.06.04,13.032,13.032,0,0,1-5.59,1.91,0.277,0.277,0,0,0-.09.01c-0.29.02-.57,0.02-0.86,0.02h-0.08a11.718,11.718,0,0,1-4.8-1.08,0.219,0.219,0,0,1-.05-0.03,15.832,15.832,0,0,1-4.84-3.08c-0.06-.05-0.11-0.11-0.17-0.16a6.75,6.75,0,0,1-.56-0.64l-0.06-.06a2.14,2.14,0,0,1-.64-1.63,1.343,1.343,0,0,1,.36-0.71,0.631,0.631,0,0,1,.4-0.12,1.116,1.116,0,0,1,.54.4c0.24,0.26.48,0.51,0.73,0.76l0.15,0.15c0.08,0.08.15,0.15,0.22,0.23a0.435,0.435,0,0,1,.07.06,0.234,0.234,0,0,0,.07.07,0.236,0.236,0,0,0,.05.05,0.318,0.318,0,0,0,.2.08,0.2,0.2,0,0,0,.1-0.08,0.265,0.265,0,0,1,.06-0.05l0.06-.06,0.12-.12a0.234,0.234,0,0,1,.07-0.07c0.1-.1.2-0.19,0.3-0.29l0.06-.06c0.13-.12.27-0.23,0.41-0.35,0.07-.05.13-0.11,0.2-0.17a9.6,9.6,0,0,1,1.9-1.25,1.983,1.983,0,0,0,.2-0.11,19.761,19.761,0,0,1,4.27-1.65l0.1-.02A21.031,21.031,0,0,1,1409.17,1813.4Zm-4.22,3.56c-0.06.01-.12,0.03-0.18,0.04a17.94,17.94,0,0,0-3.06,1.15,0.594,0.594,0,0,1-.08.04c-0.4.19-.79,0.41-1.18,0.64-0.07.04-.14,0.08-0.2,0.12-0.35.2-.68,0.43-1.01,0.66l-0.18.12a0.7,0.7,0,0,0-.09.06,0.558,0.558,0,0,0-.08.05,0.127,0.127,0,0,0-.07.14c0,0.02.01,0.04,0.01,0.07a11.373,11.373,0,0,0,3.99,1.19c0.03,0,.06.01,0.1,0.01a13.574,13.574,0,0,0,2.55-.01c0.03,0,.07-0.01.1-0.01a13.285,13.285,0,0,0,2.64-.6l0.09-.03a10.622,10.622,0,0,0,3.55-1.95l0.06-.06a2.18,2.18,0,0,0,.34-0.4,0.236,0.236,0,0,0,.05-0.05,1,1,0,0,0,.24-0.62,0.859,0.859,0,0,0-.42-0.48C1410.24,1815.86,1406.97,1816.42,1404.95,1816.96Zm20.81,0.9a1.925,1.925,0,0,1,.8,1.17,2.891,2.891,0,0,1-.68,1.46c-0.11.17-.21,0.34-0.31,0.51-0.01.02-.02,0.03-0.03,0.05-0.2.32-.39,0.64-0.58,0.97a0.673,0.673,0,0,0-.07.11,0.219,0.219,0,0,1-.03.05c-0.08.13-.15,0.26-0.23,0.39-0.12.2-.25,0.41-0.37,0.62a0.219,0.219,0,0,0-.03.05c-0.48.82-.95,1.65-1.4,2.48-0.05.1-.1,0.19-0.15,0.28-0.46.85-.9,1.72-1.3,2.61-0.01.02-.01,0.04-0.02,0.06-0.27.6-.53,1.2-0.76,1.81l-0.03.06a13.661,13.661,0,0,0-1.21,4.53v0.09a1.467,1.467,0,0,0,.1.59,0.334,0.334,0,0,0,.29.06,3.036,3.036,0,0,0,1.2-1.05,0.55,0.55,0,0,1,.07-0.09c0.47-.6.9-1.23,1.33-1.86,0.14-.21.29-0.42,0.44-0.63l0.33-.48c0.18-.27.37-0.54,0.56-0.82,0.06-.08.12-0.17,0.18-0.26,0.02-.03.04-0.05,0.06-0.08,0.04-.06.08-0.12,0.12-0.17,0.09-.13.18-0.25,0.26-0.38a7.8,7.8,0,0,0,.58-0.91,0.251,0.251,0,0,1,.04-0.07c0.22-.4.4-0.82,0.58-1.24,0.21-.49.44-0.97,0.66-1.46l0.03-.06c0.35-.76.71-1.5,1.12-2.22,0.06-.1.11-0.19,0.16-0.29,0.67-1.23.67-1.23,1.2-1.39a0.965,0.965,0,0,1,.76.23,0.9,0.9,0,0,1,.43.61,1.375,1.375,0,0,1-.16.69c-0.02.04-.04,0.09-0.06,0.13-0.05.12-.1,0.25-0.16,0.38-0.01.02-.01,0.03-0.02,0.05-0.08.2-.17,0.39-0.25,0.58-0.12.27-.24,0.54-0.35,0.81a0.689,0.689,0,0,0-.03.08c-0.09.19-.17,0.38-0.25,0.57a1.037,1.037,0,0,1-.04.1,46.3,46.3,0,0,0-2.35,5.91c-0.01.02-.01,0.04-0.02,0.06a2.85,2.85,0,0,0-.11.76v0.07a0.448,0.448,0,0,0,.1.33,0.245,0.245,0,0,0,.23.05,1.47,1.47,0,0,0,.48-0.38c0.05-.05.11-0.1,0.16-0.15a2.67,2.67,0,0,0,.33-0.34,0.572,0.572,0,0,0,.07-0.08,11.334,11.334,0,0,0,1.6-2.56c0.05-.1.09-0.19,0.14-0.29,0.06-.12.12-0.25,0.19-0.37a8.245,8.245,0,0,1,1.58-2.41,0.462,0.462,0,0,1,.07-0.07,0.944,0.944,0,0,1,.76-0.28,1.334,1.334,0,0,1,.86.44,1.238,1.238,0,0,1,.23.93,2.979,2.979,0,0,1-.09.43l-0.03.12c-0.29,1.1-.66,2.18-1.03,3.25a4.583,4.583,0,0,0-.37,2.5,0.132,0.132,0,0,0,.11.09,0.635,0.635,0,0,0,.5-0.09,2.667,2.667,0,0,0,.73-0.65l0.18-.21a11.028,11.028,0,0,0,1.51-2.42,1.965,1.965,0,0,1,.13-0.25,61.056,61.056,0,0,0,2.46-6.12l0.02-.06c0.07-.19.14-0.39,0.21-0.58a1.037,1.037,0,0,1,.04-0.1c0.02-.07.04-0.13,0.06-0.19a1.961,1.961,0,0,1,.69-1.04,1.011,1.011,0,0,1,.8.01,1.323,1.323,0,0,1,.75.77,2.542,2.542,0,0,1-.32,1.72,0.261,0.261,0,0,1-.03.08c-0.36.86-.74,1.72-1.13,2.56-0.02.05-.04,0.09-0.06,0.13q-0.45.96-.93,1.92c-0.03.06-.06,0.11-0.09,0.17-0.19.4-.4,0.8-0.61,1.19l-0.12.21-0.04.08-0.04.08a0.435,0.435,0,0,0-.04.07,0.257,0.257,0,0,0,.01.21,2.163,2.163,0,0,0,1.6-.44,2.126,2.126,0,0,0,.83-1.22,8.445,8.445,0,0,1,.83-1.84c0.01-.02.03-0.04,0.04-0.06a11.01,11.01,0,0,1,.98-1.37,0.151,0.151,0,0,1,.04-0.04q0.345-.4.72-0.78l0.17-.17a6.98,6.98,0,0,1,.64-0.58l0.12-.09a11.322,11.322,0,0,1,3.47-1.95,0.363,0.363,0,0,0,.07-0.03,9.742,9.742,0,0,1,1.91-.49c0.03-.01.07-0.01,0.11-0.02a3.4,3.4,0,0,1,2.42.42l0.21,0.18,0.07,0.07a1.8,1.8,0,0,1,.63,1.17v0.12a0.448,0.448,0,0,1,.01.11,1.405,1.405,0,0,1-.31.73,0.922,0.922,0,0,1-.05.08,1.431,1.431,0,0,1-.11.15c-0.09.14-.18,0.28-0.28,0.42a0.922,0.922,0,0,1-.05.08c-0.17.26-.33,0.52-0.49,0.79-0.06.11-.13,0.22-0.19,0.32-0.19.3-.36,0.61-0.53,0.92-0.04.07-.07,0.13-0.11,0.2-0.2.35-.38,0.71-0.56,1.07-0.06.12-.11,0.23-0.17,0.35a4.884,4.884,0,0,0-.76,3.47,0.916,0.916,0,0,0,.47.55,0.856,0.856,0,0,0,.61-0.01c0.04-.02.08-0.05,0.13-0.07a0.435,0.435,0,0,1,.07-0.04,4.858,4.858,0,0,0,.53-0.35,0.179,0.179,0,0,1,.07-0.05,3.183,3.183,0,0,0,.33-0.3,1.07,1.07,0,0,1,.16-0.14,5.98,5.98,0,0,0,.67-0.75c0.04-.05.04-0.05,0.07-0.09a11.7,11.7,0,0,0,.92-1.37,0.251,0.251,0,0,0,.04-0.07,18.951,18.951,0,0,0,1.02-2.01c0.13-.29.27-0.58,0.4-0.87l0.03-.06a0.488,0.488,0,0,1,.03-0.07l0.06-.12,0.03-.06c0.08-.16.15-0.32,0.22-0.48,0.22-.48.45-0.95,0.69-1.43,0.07-.15.14-0.3,0.22-0.45a2.591,2.591,0,0,1,.14-0.29c0.02-.05.05-0.1,0.07-0.14a3.108,3.108,0,0,1,1.51-1.62,0.965,0.965,0,0,1,.78.08,1.049,1.049,0,0,1,.39.63,0.254,0.254,0,0,0,.02.07,2.806,2.806,0,0,1-.26,1.3,0.81,0.81,0,0,0,.23-0.17l0.06-.06c0.06-.06.11-0.12,0.16-0.18a6.436,6.436,0,0,1,1.71-1.31c0.02-.01.03-0.02,0.05-0.03a3.128,3.128,0,0,1,2.14-.48,1.685,1.685,0,0,1,1.01.82,2.889,2.889,0,0,1,.13,2.18,8.7,8.7,0,0,1-.53,1.21,0.351,0.351,0,0,1-.05.08c-0.2.37-.41,0.74-0.61,1.11-0.1.17-.19,0.34-0.28,0.5-0.07.13-.14,0.25-0.21,0.37a2.52,2.52,0,0,0-.51,1.64,1.187,1.187,0,0,0,.89-0.29,3.588,3.588,0,0,0,.57-0.46,0.689,0.689,0,0,0,.13-0.11,7.553,7.553,0,0,0,.8-0.8,0.134,0.134,0,0,1,.06-0.07c0.02-.03.04-0.05,0.06-0.08a0.423,0.423,0,0,0,.05-0.07,1.55,1.55,0,0,0,.25-0.59,7.907,7.907,0,0,1,1.06-2.28c0.01-.02.03-0.04,0.04-0.06a6.329,6.329,0,0,1,1.21-1.37,0.874,0.874,0,0,0,.1-0.08,5.218,5.218,0,0,1,3.73-1.22,5.538,5.538,0,0,1,2.58.92,0.219,0.219,0,0,1,.05.03c0.26,0.18.5,0.38,0.74,0.58a0.265,0.265,0,0,0,.06.05c0.16,0.14.31,0.29,0.46,0.45a0.265,0.265,0,0,1,.06.05,0.218,0.218,0,0,0,.04.05,0.189,0.189,0,0,0,.14.07,1.534,1.534,0,0,0,.29-0.37,0.3,0.3,0,0,1,.05-0.07c0.03-.06.07-0.11,0.1-0.16,0.05-.08.1-0.16,0.16-0.24,0.3-.46.59-0.92,0.88-1.39,0.04-.06.08-0.13,0.12-0.19,0.02-.03.04-0.07,0.06-0.1,0.06-.1.12-0.19,0.18-0.29,0.17-.28.33-0.55,0.5-0.83s0.33-.54.5-0.8c0.13-.2.26-0.4,0.38-0.61,0.14-.21.27-0.43,0.41-0.64,0.1-.15.2-0.31,0.3-0.46,0.17-.26.33-0.52,0.5-0.77l0.18-.27c0.05-.07.09-0.14,0.14-0.21,0.02-.04.05-0.07,0.07-0.11a1.14,1.14,0,0,1,.73-0.71,1.285,1.285,0,0,1,1.03.27,1.754,1.754,0,0,1,.72,1.05,1.448,1.448,0,0,1-.3,1,0.673,0.673,0,0,0-.07.11c-0.06.09-.11,0.18-0.17,0.27s-0.12.19-.18,0.28c-0.03.05-.06,0.1-0.09,0.14-0.95,1.54-1.89,3.1-2.75,4.7-0.04.08-.09,0.17-0.13,0.25-0.16.28-.3,0.56-0.45,0.84-0.06.14-.13,0.27-0.2,0.41a29.038,29.038,0,0,0-2.76,7.35c0,0.03-.01.06-0.01,0.08a3.027,3.027,0,0,0-.05.67,0.34,0.34,0,0,0-.01.1,1.271,1.271,0,0,0,.1.58,0.3,0.3,0,0,0,.21.1,1.286,1.286,0,0,0,.64-0.36,0.265,0.265,0,0,1,.06-0.05,3.083,3.083,0,0,0,.39-0.42c0.06-.07.12-0.14,0.18-0.22a12.207,12.207,0,0,0,.91-1.23l0.18-.27c0.02-.03.02-0.03,0.05-0.07,0.15-.21.29-0.43,0.44-0.64,0.17-.24.34-0.49,0.51-0.74,0.2-.28.39-0.57,0.59-0.85,0.16-.22.31-0.45,0.46-0.67s0.31-.45.47-0.68c0.02-.03.03-0.05,0.05-0.08a1.312,1.312,0,0,1,.85-0.66,0.867,0.867,0,0,1,.57.11,0.7,0.7,0,0,1,.23.35,0.763,0.763,0,0,1-.09.45,0.149,0.149,0,0,0-.03.07c-0.12.24-.26,0.47-0.39,0.71a4.674,4.674,0,0,0-.27.49c-0.14.25-.28,0.5-0.43,0.75-0.09.15-.18,0.31-0.27,0.47-0.36.63-.74,1.24-1.14,1.84l-0.04.06a19.17,19.17,0,0,1-1.71,2.21c-0.05.05-.1,0.11-0.15,0.17a4.83,4.83,0,0,1-.84.79,0.218,0.218,0,0,0-.05.04,2.181,2.181,0,0,1-1.44.52,0.22,0.22,0,0,0-.08-0.01,2.71,2.71,0,0,1-1.66-1.07,3.693,3.693,0,0,1-.66-2.88,16.21,16.21,0,0,1,.68-2.57,0.6,0.6,0,0,0-.25.25l-0.04.06a1.48,1.48,0,0,1-.08.13c-0.07.11-.15,0.22-0.22,0.33a0.435,0.435,0,0,0-.04.07c-0.11.16-.22,0.33-0.34,0.49-0.01.02-.03,0.04-0.05,0.07s-0.06.09-.09,0.13c-0.08.11-.15,0.22-0.23,0.32a18.817,18.817,0,0,1-1.37,1.82,0.265,0.265,0,0,1-.05.06c-0.05.06-.1,0.12-0.15,0.17s-0.04.05-.07,0.09a6.753,6.753,0,0,1-.54.53,0.176,0.176,0,0,0-.05.04,3.684,3.684,0,0,1-2.63.89,4.051,4.051,0,0,1-.47-0.12c-0.02-.01-0.05-0.01-0.08-0.02a2.682,2.682,0,0,1-1.29-1.2,0.219,0.219,0,0,0-.03-0.05,8.378,8.378,0,0,1-.93-4.18,1.533,1.533,0,0,0-.38.29,2.291,2.291,0,0,1-.23.21c-0.07.07-.14,0.13-0.21,0.2a3.057,3.057,0,0,1-2.01,1.03,1.752,1.752,0,0,1-1.13-.56l-0.05-.05a2.44,2.44,0,0,1-.48-1.8,2.722,2.722,0,0,1,.12-0.8c0.01-.02.01-0.05,0.02-0.07a7.13,7.13,0,0,1,.83-1.74,0.351,0.351,0,0,1,.05-0.08c0.16-.27.32-0.53,0.49-0.79a2.614,2.614,0,0,0,.59-1.66,0.418,0.418,0,0,0-.14-0.27,1.12,1.12,0,0,0-.84.23,2.4,2.4,0,0,0-.54.47c-0.05.06-.11,0.12-0.16,0.18a14.606,14.606,0,0,0-1.73,2.47,0.405,0.405,0,0,1-.05.09c-0.25.41-.48,0.82-0.71,1.24l-0.18.33-0.42.78c-0.02.04-.05,0.09-0.07,0.13-0.05.09-.09,0.17-0.14,0.26s-0.11.2-.16,0.31c-0.17.31-.33,0.64-0.48,0.96-0.07.14-.13,0.28-0.2,0.41-0.36.73-.68,1.46-0.97,2.21-0.62,1.56-.62,1.56-1.07,1.79a1.09,1.09,0,0,1-.85,0,1.444,1.444,0,0,1-.77-0.82,3.749,3.749,0,0,1-.1-1.16h-0.09a0.634,0.634,0,0,0-.1.12,4.3,4.3,0,0,1-1.62,1.31,1.037,1.037,0,0,1-.1.04,2.357,2.357,0,0,1-1.77.04,2.245,2.245,0,0,1-1.22-1.22,4.013,4.013,0,0,1-.2-1.19h-0.09a0.257,0.257,0,0,0-.02.05,3.788,3.788,0,0,1-1.03,1.08,0.7,0.7,0,0,1-.1.08,4.394,4.394,0,0,1-3.12.94c-0.12-.02-0.24-0.05-0.36-0.08l-0.11-.03a3.159,3.159,0,0,1-1.18-.64l-0.06-.06a4.159,4.159,0,0,1-1.25-2.6,0.824,0.824,0,0,0-.33.15,2.582,2.582,0,0,1-1.88.48c-0.1-.02-0.2-0.05-0.29-0.07a0.507,0.507,0,0,0-.32-0.03,0.483,0.483,0,0,0-.09.14,0.313,0.313,0,0,0-.05.1,0.879,0.879,0,0,0-.06.1,9.229,9.229,0,0,1-1.42,1.97c-0.05.05-.09,0.1-0.14,0.15a3.447,3.447,0,0,1-2.25,1.22,1.476,1.476,0,0,1-1.08-.54,2.271,2.271,0,0,1-.3-0.46l-0.03-.06a3.835,3.835,0,0,1-.29-0.7c-0.01-.02-0.01-0.04-0.02-0.06a6.573,6.573,0,0,1-.15-1.17c0-.05-0.01-0.1-0.01-0.15-0.01-.12-0.02-0.24-0.03-0.37a0.3,0.3,0,0,0-.17.14,0.423,0.423,0,0,0-.05.07c-0.02.02-.03,0.05-0.05,0.07a1.431,1.431,0,0,0-.11.15c-0.02.03-.04,0.05-0.06,0.08-0.31.42-.63,0.83-0.97,1.22-0.04.04-.07,0.08-0.11,0.12a7.011,7.011,0,0,1-1.07,1.04,0.555,0.555,0,0,0-.08.06,2.6,2.6,0,0,1-1.76.7,1.456,1.456,0,0,1-.93-0.6,4.388,4.388,0,0,1-.67-2.26,2.048,2.048,0,0,0-.3.36,1.48,1.48,0,0,1-.08.13,0.209,0.209,0,0,0-.04.06,14.36,14.36,0,0,1-.95,1.23,0.265,0.265,0,0,0-.05.06,7.634,7.634,0,0,1-1.03,1.02c-0.03.02-.05,0.04-0.08,0.06a2.317,2.317,0,0,1-1.67.6,2.85,2.85,0,0,1-1.7-1.18,3.9,3.9,0,0,1-.54-2.98c0.13-.69.34-1.36,0.53-2.04l0.02-.08a0.689,0.689,0,0,1,.03-0.08,0.148,0.148,0,0,1,.01-0.07,0.612,0.612,0,0,1,.05-0.12h-0.09a0.142,0.142,0,0,1-.02.06,1.834,1.834,0,0,1-.13.24,0.7,0.7,0,0,1-.06.09,0.311,0.311,0,0,1-.07.09l-0.06.09-0.12.18c-0.06.1-.12,0.19-0.18,0.28-0.09.13-.17,0.26-0.26,0.38a0.209,0.209,0,0,0-.04.06c-0.05.07-.09,0.13-0.13,0.19a0.3,0.3,0,0,0-.05.07,18.7,18.7,0,0,1-1.49,1.93c-0.06.06-.11,0.12-0.16,0.18-0.13.15-.26,0.29-0.39,0.43-0.04.04-.07,0.08-0.1,0.11a3.8,3.8,0,0,1-1.63.98c-0.02.01-.04,0.01-0.06,0.02a2.6,2.6,0,0,1-1.63-.02l-0.09-.03a3.076,3.076,0,0,1-1.23-1.09l-0.04-.04a4.96,4.96,0,0,1-.43-1.04l-0.02-.06a10.3,10.3,0,0,1-.46-2.05,0.22,0.22,0,0,1-.01-0.08,8.615,8.615,0,0,1,1.57-6.34,6.433,6.433,0,0,1,.94-1.01c0.03-.03.07-0.05,0.1-0.08a5.072,5.072,0,0,1,.81-0.56c0.01-.01.03-0.02,0.05-0.04a5.143,5.143,0,0,1,3.84-.49,6.3,6.3,0,0,1,2.89,1.81,0.572,0.572,0,0,1,.07.08l0.07,0.07a0.235,0.235,0,0,0,.24.05,0.294,0.294,0,0,0,.1-0.12c0.01-.03.03-0.05,0.04-0.08a0.405,0.405,0,0,0,.05-0.09,1.178,1.178,0,0,0,.11-0.19l0.06-.09c0.08-.14.16-0.28,0.25-0.41l0.51-.81c0.11-.18.22-0.37,0.34-0.55,0.14-.22.27-0.44,0.41-0.66l0.45-.72c0.12-.19.23-0.37,0.35-0.56,0.3-.49.61-0.97,0.92-1.46,0.05-.08.11-0.16,0.16-0.24,0.24-.38.48-0.76,0.73-1.13,0.04-.05.07-0.11,0.11-0.16,0.05-.08.1-0.16,0.16-0.24a0.435,0.435,0,0,0,.04-0.07,0.977,0.977,0,0,1,.49-0.54,0.574,0.574,0,0,1,.07-0.04A1.181,1.181,0,0,1,1425.76,1817.86Zm22.06,8.04a0.381,0.381,0,0,1-.1.03,0.487,0.487,0,0,1-.11.04,0.257,0.257,0,0,0-.05.02c-0.35.13-.69,0.26-1.03,0.41-0.03.01-.05,0.02-0.08,0.03a11.534,11.534,0,0,0-2.34,1.34c-0.05.04-.11,0.07-0.16,0.11-0.33.24-.64,0.49-0.95,0.76a0.572,0.572,0,0,1-.08.07,5.4,5.4,0,0,0-.73.78c-0.02.02-.03,0.04-0.05,0.06a5.988,5.988,0,0,0-.65,1.01l-0.03.06a3.055,3.055,0,0,0-.29.76l-0.02.08a1.922,1.922,0,0,0,.19,1.43,1.227,1.227,0,0,0,.75.55,2.2,2.2,0,0,0,1.54-.5,7.774,7.774,0,0,0,1.7-2.2c0.04-.07.08-0.15,0.13-0.23,0.5-.85.94-1.72,1.39-2.6a10.792,10.792,0,0,1,1.1-1.81c0.01-.02.03-0.04,0.04-0.06s0.03-.04.05-0.06a0.128,0.128,0,0,0,.03-0.14A0.705,0.705,0,0,0,1447.82,1825.9Zm-34.96,2.41c-0.08.09-.15,0.18-0.22,0.27a0.7,0.7,0,0,1-.08.1,5.777,5.777,0,0,0-1.43,3.72,1.531,1.531,0,0,0,.17.55c0.02,0.03.03,0.06,0.05,0.09a0.884,0.884,0,0,0,.53.38,2.633,2.633,0,0,0,1.86-.8,4,4,0,0,0,.31-0.27c0.04-.04.08-0.07,0.12-0.11,0.18-.15.35-0.32,0.52-0.49l0.15-.15a5.789,5.789,0,0,0,.48-0.51c0.03-.03.05-0.06,0.08-0.09,0.19-.23.38-0.46,0.56-0.7,0.03-.04.07-0.08,0.1-0.12,0.07-.09.14-0.18,0.2-0.27,0.08-.09.15-0.18,0.22-0.27,0.17-.22.33-0.43,0.5-0.65a3.553,3.553,0,0,1,.23-0.31c0.2-.25.39-0.51,0.59-0.77a0.423,0.423,0,0,0,.05-0.07,6.079,6.079,0,0,0,.47-0.66,0.892,0.892,0,0,0-.34-0.23,0.488,0.488,0,0,0-.07-0.03A4.333,4.333,0,0,0,1412.86,1828.31Zm55.08-1.01c-0.02.02-.05,0.03-0.07,0.05a5.353,5.353,0,0,0-.63.53,0.265,0.265,0,0,1-.05.06,6.035,6.035,0,0,0-.64.7,0.7,0.7,0,0,0-.08.1,5.5,5.5,0,0,0-1.37,3.69,1.253,1.253,0,0,0,.43.84,0.937,0.937,0,0,0,.75.13,4.223,4.223,0,0,0,1.77-1.08c0.06-.06.11-0.11,0.17-0.16a3.78,3.78,0,0,0,.41-0.39c0.04-.04.09-0.08,0.13-0.12,0.15-.15.3-0.31,0.44-0.47,0.03-.04.06-0.07,0.09-0.11q0.285-.33.57-0.69c0.07-.09.14-0.17,0.21-0.26,0.25-.32.5-0.65,0.75-0.98,0.13-.18.26-0.35,0.4-0.52,0.12-.17.25-0.33,0.37-0.49a1.431,1.431,0,0,0,.11-0.15,2.348,2.348,0,0,0,.19-0.25c0.02-.02.04-0.05,0.06-0.07,0.04-.05.07-0.1,0.11-0.15a1.059,1.059,0,0,1,.1-0.12,0.493,0.493,0,0,0,.11-0.23,0.569,0.569,0,0,0-.29-0.19,0.3,0.3,0,0,0-.08-0.04A4.041,4.041,0,0,0,1467.94,1827.3Zm-73.25-6.23a0.65,0.65,0,0,1,.33.11,0.262,0.262,0,0,1,.09.05l0.1,0.06,0.15,0.09c0.05,0.03.11,0.06,0.16,0.09,0.13,0.08.27,0.16,0.41,0.23,0.24,0.14.48,0.28,0.71,0.42l0.06,0.03a2.2,2.2,0,0,1,.18.14,0.82,0.82,0,0,1-.03.31,1.68,1.68,0,0,0,.17,1.24,3.237,3.237,0,0,0,2.09,1.18c0.25,0.05.49,0.09,0.74,0.12a0.17,0.17,0,0,0,.07.01,13.492,13.492,0,0,0,2.62.01,0.8,0.8,0,0,1,.85.18,2.081,2.081,0,0,1,.46,1.46,1.082,1.082,0,0,1-.27.73,1.061,1.061,0,0,1-.37.18c-0.02.01-.04,0.01-0.06,0.02-0.07.02-.13,0.03-0.19,0.05s-0.1.03-.14,0.04c-0.1.03-.2,0.05-0.29,0.08-0.16.04-.31,0.08-0.47,0.13s-0.32.09-.48,0.13c-0.49.13-.98,0.27-1.47,0.41-0.09.02-.17,0.05-0.26,0.07a22.242,22.242,0,0,0-3.65,1.28l-0.21.09c-0.35.16-.68,0.34-1.01,0.52a0.558,0.558,0,0,1-.08.05,4.56,4.56,0,0,0-2.42,2.5,2.118,2.118,0,0,0,.16,1.58,2.59,2.59,0,0,0,1.03.94,0.321,0.321,0,0,0,.05.03,4.952,4.952,0,0,0,2.42.53h0.08a7.879,7.879,0,0,0,1.09-.06,0.34,0.34,0,0,1,.1-0.01,11.025,11.025,0,0,0,5.12-2.35c0.02-.01.04-0.03,0.06-0.04,0.23-.19.46-0.38,0.68-0.59,0.07-.07.15-0.13,0.23-0.2,0.15-.14.29-0.28,0.43-0.42l0.24-.24a5.788,5.788,0,0,0,.57-0.64c0.04-.04.07-0.08,0.1-0.11,0.17-.23.35-0.46,0.52-0.69a10.344,10.344,0,0,1,.78-0.97,0.435,0.435,0,0,1,.06-0.07l0.36-.39,0.07-.07a0.526,0.526,0,0,1,.32-0.12,0.757,0.757,0,0,1,.54.31,2.006,2.006,0,0,1,.34,1.38,4.874,4.874,0,0,1-.87,1.75,0.209,0.209,0,0,1-.04.06,11.011,11.011,0,0,1-1.09,1.38c-0.05.06-.1,0.12-0.16,0.18a5.758,5.758,0,0,1-.41.44,0.6,0.6,0,0,0-.08.08c-0.15.15-.3,0.29-0.46,0.43-0.04.03-.07,0.06-0.11,0.09q-0.315.285-.66,0.54a1.047,1.047,0,0,1-.11.08c-0.39.29-.79,0.57-1.19,0.83a0.423,0.423,0,0,0-.07.05,14.332,14.332,0,0,1-2.91,1.44,0.689,0.689,0,0,1-.08.03,11.476,11.476,0,0,1-3.62.67h-0.11a6.905,6.905,0,0,1-2.62-.47,0.488,0.488,0,0,1-.07-0.03,4.637,4.637,0,0,1-1.5-.96c-0.05-.04-0.09-0.08-0.14-0.12a1.544,1.544,0,0,1-.28-0.29,0.435,0.435,0,0,1-.06-0.07,4.867,4.867,0,0,1-1.07-2.52c-0.01-.03-0.01-0.06-0.02-0.1a6.506,6.506,0,0,1,1.46-4.63c0.06-.07.13-0.15,0.19-0.23l0.05-.05,0.09-.12h0.06c0.01-.02.02-0.03,0.03-0.05a0.349,0.349,0,0,1,.12-0.15,0.121,0.121,0,0,1,.05-0.05,0.236,0.236,0,0,1,.05-0.05l0.06-.06a9.607,9.607,0,0,1,1.91-1.3,0.594,0.594,0,0,1,.08-0.04c0.68-.37,1.39-0.68,2.1-0.98a0.288,0.288,0,0,0-.03-0.15c-0.06-.05-0.12-0.1-0.19-0.15a2.67,2.67,0,0,1-.6-0.61,0.423,0.423,0,0,0-.05-0.07,5.548,5.548,0,0,1-.44-0.74,0.405,0.405,0,0,0-.05-0.09,4.985,4.985,0,0,1-.5-2.04,0.448,0.448,0,0,0-.01-0.11,5.456,5.456,0,0,1,.18-1.61A0.053,0.053,0,0,1,1394.69,1821.07Zm31.63,21.23a0.294,0.294,0,0,1,.1.18,1.366,1.366,0,0,1-.53.67,0.512,0.512,0,0,1-.27-0.09,1.757,1.757,0,0,0-1.03-.2,0.261,0.261,0,0,0-.16.11,0.394,0.394,0,0,0,.01.24,2.022,2.022,0,0,0,.75.29c0.98,0.25.98,0.25,1.23,0.61a1.322,1.322,0,0,1,.07,1.05,1.2,1.2,0,0,1-.62.67,2.767,2.767,0,0,1-2.15-.09,0.788,0.788,0,0,1-.53-0.32,0.267,0.267,0,0,1,.03-0.23c0.05-.07.1-0.13,0.15-0.19a0.423,0.423,0,0,1,.05-0.07,1.07,1.07,0,0,1,.26-0.26,0.67,0.67,0,0,1,.39.15,1.661,1.661,0,0,0,.92.23h0.21a0.492,0.492,0,0,0,.17-0.06,0.409,0.409,0,0,0,.03-0.27,0.579,0.579,0,0,0-.37-0.21,0.254,0.254,0,0,0-.07-0.02l-0.21-.06c-1.05-.27-1.05-0.27-1.33-0.7a1.329,1.329,0,0,1-.1-0.9,1.35,1.35,0,0,1,.7-0.8A2.748,2.748,0,0,1,1426.32,1842.3Zm10.42-.11,0.08,0.04a0.253,0.253,0,0,1,.21.2,0.572,0.572,0,0,1-.2.38,0.3,0.3,0,0,1-.05.07,0.918,0.918,0,0,1-.28.27,2.13,2.13,0,0,1-.35-0.14,1.515,1.515,0,0,0-.72-0.16h-0.06a0.456,0.456,0,0,0-.26.06,0.169,0.169,0,0,0-.08.17,0.162,0.162,0,0,0,.08.16,0.93,0.93,0,0,0,.27.12,0.106,0.106,0,0,0,.05.02c0.16,0.05.31,0.09,0.46,0.14,0.96,0.27.96,0.27,1.17,0.62a1.414,1.414,0,0,1-.01,1.14,1.086,1.086,0,0,1-.66.58,2.979,2.979,0,0,1-2.23-.2l-0.08-.04c-0.02-.01-0.05-0.03-0.07-0.04s-0.05-.02-0.07-0.03a0.463,0.463,0,0,1-.15-0.16,0.63,0.63,0,0,1,.21-0.41c0.01-.02.03-0.04,0.04-0.06a0.825,0.825,0,0,1,.22-0.25,0.481,0.481,0,0,1,.34.11,1.857,1.857,0,0,0,1,.27h0.07a0.415,0.415,0,0,0,.34-0.09,0.333,0.333,0,0,0,.01-0.22,0.433,0.433,0,0,0-.26-0.2l-0.14-.03a0.573,0.573,0,0,0-.14-0.04l-0.23-.06a1.923,1.923,0,0,1-1.2-.68,1.249,1.249,0,0,1-.11-0.89,1.236,1.236,0,0,1,.6-0.74,0.435,0.435,0,0,1,.07-0.04,0.219,0.219,0,0,1,.05-0.03A2.61,2.61,0,0,1,1436.74,1842.19Zm32.16,0.13c0.04,0.03.08,0.07,0.12,0.1,0.02,0.02.05,0.04,0.07,0.06a1.987,1.987,0,0,1,.61,1.21,2.219,2.219,0,0,1-.57,1.68,2.174,2.174,0,0,1-1.5.65,2.359,2.359,0,0,1-1.63-.64,2.105,2.105,0,0,1-.47-0.77,0.261,0.261,0,0,1-.03-0.08,2.038,2.038,0,0,1,.16-1.53,2.239,2.239,0,0,1,1.35-1.06A2.271,2.271,0,0,1,1468.9,1842.32Zm-2.06.86a1.13,1.13,0,0,0-.29.87,1.224,1.224,0,0,0,.43.79,1.136,1.136,0,0,0,.86.16,1.093,1.093,0,0,0,.66-0.57,1.162,1.162,0,0,0,.03-0.86,1.192,1.192,0,0,0-.57-0.64A1.073,1.073,0,0,0,1466.84,1843.18Zm-63.86-1.23h0.59a0.2,0.2,0,0,1,.21.06,1.927,1.927,0,0,1,.01.24v1.83a2.09,2.09,0,0,1-.39,1.52,1.783,1.783,0,0,1-1.34.39,1.521,1.521,0,0,1-1.02-.45,0.512,0.512,0,0,1-.1-0.21,0.4,0.4,0,0,1,.19-0.25c0.02-.02.04-0.03,0.06-0.05a0.9,0.9,0,0,1,.1-0.09c0.04-.03.07-0.07,0.11-0.1a1.015,1.015,0,0,1,.14-0.12,0.469,0.469,0,0,1,.29.14,0.709,0.709,0,0,0,.53.13,0.308,0.308,0,0,0,.2-0.09,1.894,1.894,0,0,0,.1-0.82v-1.87a0.351,0.351,0,0,1,.05-0.22A0.429,0.429,0,0,1,1402.98,1841.95Zm3.26,0h0.59a0.374,0.374,0,0,1,.25.06,0.667,0.667,0,0,1,0,.2V1843c0,0.2-.01.39-0.01,0.59v0.21a1.526,1.526,0,0,0,.21,1.01,0.781,0.781,0,0,0,1.06-.03,1.553,1.553,0,0,0,.18-0.95v-0.57c0-.22,0-0.44.01-0.66v-0.43c0-.15,0-0.15.03-0.18a1.848,1.848,0,0,1,.23-0.01h0.66c0.16,0,.16,0,0.19.03v0.66c0.01,0.1.01,0.21,0.01,0.32v0.88a2.276,2.276,0,0,1-.45,1.64,2.014,2.014,0,0,1-1.51.5,1.882,1.882,0,0,1-1.35-.56,3.614,3.614,0,0,1-.4-2.34v-0.08c-0.01-.35.01-0.7,0.03-1.04A0.5,0.5,0,0,1,1406.24,1841.95Zm5.89,0h0.59a0.2,0.2,0,0,1,.21.06,1.7,1.7,0,0,1,.01.22v0.45c0,0.22,0,.45.01,0.67v0.56a1.193,1.193,0,0,0,.23.92,0.745,0.745,0,0,0,.56.16,0.644,0.644,0,0,0,.47-0.21,1.683,1.683,0,0,0,.18-1.06v-1.59a0.183,0.183,0,0,1,.03-0.14,1.322,1.322,0,0,1,.49-0.04h0.43a0.245,0.245,0,0,1,.15.04,0.372,0.372,0,0,1,.05.23v0.24a0.528,0.528,0,0,0-.01.13v0.6c0,0.76,0,.76-0.02,1.13v0.06a1.745,1.745,0,0,1-.54,1.22,2.062,2.062,0,0,1-1.48.41,1.849,1.849,0,0,1-1.26-.53,2.482,2.482,0,0,1-.41-1.7v-1.19a0.757,0.757,0,0,0-.01-0.15v-0.28a0.542,0.542,0,0,1,.02-0.15A0.443,0.443,0,0,1,1412.13,1841.95Zm6.1,0h0.44a0.233,0.233,0,0,1,.14.04,0.262,0.262,0,0,1,.05.19v0.27c0.01,0.1.01,0.2,0.01,0.3v0.2c0,0.16,0,.33.01,0.49,0.03-.03.06-0.05,0.09-0.08s0.04-.03.06-0.05c0.06-.05.12-0.12,0.18-0.18,0.02-.03.04-0.05,0.06-0.08a0.234,0.234,0,0,0,.07-0.07c0.05-.05.09-0.1,0.14-0.15,0.09-.11.18-0.21,0.28-0.32l0.25-.28a2.1,2.1,0,0,0,.14-0.17,0.285,0.285,0,0,1,.15-0.1,2.175,2.175,0,0,1,.25-0.01h0.31c0.06,0,.11.01,0.16,0.01h0.39a0.134,0.134,0,0,1-.05.21c-0.02.02-.03,0.04-0.05,0.06s-0.04.03-.06,0.05a1.2,1.2,0,0,0-.11.12l-0.06.06c-0.05.06-.11,0.12-0.16,0.18l-0.22.25c-0.1.1-.19,0.21-0.28,0.32l-0.13.13c-0.02.03-.05,0.05-0.07,0.08l-0.07.07a0.349,0.349,0,0,0-.08.24,1.324,1.324,0,0,0,.12.2c0.01,0.02.03,0.04,0.04,0.06l0.09,0.12c0.06,0.08.12,0.17,0.18,0.26,0.05,0.07.1,0.14,0.14,0.21,0.11,0.16.23,0.33,0.34,0.49,0.08,0.12.16,0.24,0.25,0.36a0.351,0.351,0,0,0,.05.08c0.03,0.05.07,0.1,0.1,0.15,0.02,0.02.03,0.04,0.05,0.06a0.209,0.209,0,0,0,.04.06,0.478,0.478,0,0,1,.06.14c-0.18.01-.36,0.02-0.53,0.02a1.087,1.087,0,0,1-.18.01,0.716,0.716,0,0,1-.63-0.07,1.609,1.609,0,0,1-.24-0.34c-0.04-.08-0.09-0.15-0.14-0.23s-0.11-.16-0.16-0.25c-0.05-.07-0.1-0.15-0.15-0.22a0.351,0.351,0,0,1-.05-0.08c-0.02-.02-0.03-0.05-0.05-0.07s-0.03-.04-0.04-0.06a0.225,0.225,0,0,0-.16-0.08,0.711,0.711,0,0,0-.32.47,0.468,0.468,0,0,0-.02.17c0,0.03-.01.06-0.01,0.1v0.28c0,0.06.01,0.11,0.01,0.17a0.227,0.227,0,0,1-.06.16,0.34,0.34,0,0,1-.26.06h-0.35c-0.32,0-.32,0-0.42-0.1a0.661,0.661,0,0,1-.03-0.24v-0.2c0-.04-0.01-0.07-0.01-0.11v-3.23c0-.02.01-0.04,0.01-0.07A0.89,0.89,0,0,1,1418.23,1841.95Zm11.68,0h1.74a0.209,0.209,0,0,1,.22.06,1.148,1.148,0,0,1,.01.19v0.36c0,0.3,0,.3-0.04.33h-0.24a0.487,0.487,0,0,1-.12.01h-0.77c-0.11,0-.23.01-0.34,0.01h-0.42a0.2,0.2,0,0,0-.18.07,1.765,1.765,0,0,0,0,.23v0.07a0.252,0.252,0,0,0,.03.19c0.06,0,.11.01,0.17,0.01h0.85c0.1,0,.2.01,0.3,0.01h0.38a0.173,0.173,0,0,1,.13.05,0.3,0.3,0,0,1,.05.21v0.29a0.406,0.406,0,0,1-.07.34,0.972,0.972,0,0,1-.18.01h-0.68c-0.11.01-.22,0.01-0.33,0.01h-0.65v0.32a0.661,0.661,0,0,0,.03.24h0.08c0.23,0,.47,0,0.71.01h0.36c0.12,0,.23.01,0.35,0.01h0.43a0.289,0.289,0,0,1,.14.04v0.79a0.1,0.1,0,0,1-.03.11h-1.33c-0.19,0-.37.01-0.56,0.01h-1.17a0.127,0.127,0,0,1-.11-0.07,0.708,0.708,0,0,1-.01-0.15v-3.6a0.214,0.214,0,0,1,.04-0.12C1429.1,1841.96,1429.51,1841.95,1429.91,1841.95Zm10.39,0h1.86a0.783,0.783,0,0,1,.26.04,1.119,1.119,0,0,1,.03.45,0.448,0.448,0,0,0,.01.11v0.2a0.27,0.27,0,0,1-.07.17,1.927,1.927,0,0,1-.24.01h-0.38a1.7,1.7,0,0,0-.22.01h-0.07a1.156,1.156,0,0,0-.17.01,0.252,0.252,0,0,0-.06.2,0.22,0.22,0,0,1-.01.08v1.13c0,0.18-.01.35-0.01,0.52,0,0.34,0,.67-0.01,1.01a0.766,0.766,0,0,1-.27.04h-0.59a1.1,1.1,0,0,1-.16-0.01,0.322,0.322,0,0,1-.06-0.21v-0.23a2.528,2.528,0,0,0-.01-0.28v-1.21c-0.01-.34-0.01-0.68-0.01-1.01a0.625,0.625,0,0,0-.3-0.04h-0.07c-0.11,0-.21-0.01-0.31-0.01h-0.29a0.238,0.238,0,0,1-.2-0.04v-0.79c0-.09,0-0.09.03-0.11a0.57,0.57,0,0,1,.13-0.01c0.02,0,.05-0.01.08-0.01h0.18C1439.68,1841.95,1439.99,1841.95,1440.3,1841.95Zm4.43-.01h0.07a0.57,0.57,0,0,1,.13.01,1.275,1.275,0,0,0,.2-0.01h0.19a0.336,0.336,0,0,1,.21.05,0.384,0.384,0,0,1,.05.26v0.06a1.477,1.477,0,0,0-.01.21v0.52c0,0.21,0,.41-0.01.61v0.21a1.448,1.448,0,0,0,.18.92,0.815,0.815,0,0,0,.55.22,0.755,0.755,0,0,0,.54-0.22,1.553,1.553,0,0,0,.18-0.95v-1.46a0.708,0.708,0,0,1,.01-0.14v-0.06a0.2,0.2,0,0,1,.06-0.21,1.477,1.477,0,0,1,.21-0.01h0.6a0.348,0.348,0,0,1,.24.06,1.548,1.548,0,0,1,.01.21v1.6a6.228,6.228,0,0,1-.04.74v0.06a1.551,1.551,0,0,1-.55,1.02,2.239,2.239,0,0,1-1.62.35,1.735,1.735,0,0,1-1.15-.6,3.779,3.779,0,0,1-.36-2.28v-0.99a0.173,0.173,0,0,1,.05-0.13A0.4,0.4,0,0,1,1444.73,1841.94Zm5.89,0.01h0.59a0.2,0.2,0,0,1,.21.06,1.77,1.77,0,0,1,.01.23v0.45c0,0.23.01,0.45,0.01,0.68v0.57a1.134,1.134,0,0,0,.23.89,0.79,0.79,0,0,0,.56.16,0.731,0.731,0,0,0,.41-0.15,1.05,1.05,0,0,0,.22-0.66v-0.46c0-.19,0-0.39.01-0.58v-0.94a0.389,0.389,0,0,1,.04-0.21c0.15,0,.3-0.01.45-0.01h0.43a0.97,0.97,0,0,1,.17.01,0.754,0.754,0,0,1,.06.45v0.57c0,2.03,0,2.03-.52,2.55a2.028,2.028,0,0,1-1.52.45,1.859,1.859,0,0,1-1.26-.54,1.936,1.936,0,0,1-.41-1.31v-1.92c0-.03-0.01-0.05-0.01-0.07a0.563,0.563,0,0,1,.02-0.16A0.443,0.443,0,0,1,1450.62,1841.95Zm5.83,0h1.3a2.3,2.3,0,0,1,1.74.68,0.218,0.218,0,0,1,.05.04,1.926,1.926,0,0,1,.46,1.36,1.821,1.821,0,0,1-.56,1.28,0.236,0.236,0,0,0-.05.05,1.977,1.977,0,0,1-1.21.56c-0.15.01-.3,0.01-0.45,0.01h-0.39c-0.12-.01-0.23-0.01-0.34-0.01h-0.67a0.094,0.094,0,0,1-.1-0.03v-1.65c0-.22-0.01-0.43-0.01-0.64v-1.52C1456.24,1841.94,1456.33,1841.95,1456.45,1841.95Zm0.89,1.03a1.087,1.087,0,0,0-.01.18v1.66a0.127,0.127,0,0,0,.07.14,2.715,2.715,0,0,0,.29.01h0.08a1.168,1.168,0,0,0,.85-0.33,1.007,1.007,0,0,0,.27-0.76,0.979,0.979,0,0,0-.31-0.66,1.086,1.086,0,0,0-.7-0.28h-0.45A0.075,0.075,0,0,0,1457.34,1842.98Zm5.11-1.03h0.59a0.262,0.262,0,0,1,.21.04v3.93h-1.08v-3.93A0.533,0.533,0,0,1,1462.45,1841.95Zm-67.47,1.08a0.481,0.481,0,0,1,.11.09l0.06,0.06c0.12,0.11.24,0.22,0.36,0.34l0.07,0.07a0.462,0.462,0,0,1,.07.07,0.435,0.435,0,0,1,.07.06,0.375,0.375,0,0,1,.08.25,0.878,0.878,0,0,1-.24.37l-0.04.04-0.09.09-0.14.14a0.647,0.647,0,0,0-.08.09,0.3,0.3,0,0,0-.08.08,0.62,0.62,0,0,1-.29.12,0.771,0.771,0,0,1-.37-0.24l-0.04-.04-0.09-.09-0.14-.14a0.588,0.588,0,0,1-.3-0.46,1.851,1.851,0,0,1,.52-0.63l0.08-.08a0.462,0.462,0,0,0,.07-0.07l0.06-.06A0.344,0.344,0,0,1,1394.98,1843.03Zm80.95,0c0.07,0.06.12,0.1,0.18,0.16a0.121,0.121,0,0,0,.05.05,2,2,0,0,1,.14.16c0.04,0.03.07,0.07,0.11,0.1a0.571,0.571,0,0,1,.29.44,0.288,0.288,0,0,1-.1.25l-0.06.06c-0.02.02-.04,0.05-0.06,0.07l-0.06.06a1.7,1.7,0,0,1-.19.19,0.435,0.435,0,0,1-.06.07,0.63,0.63,0,0,1-.36.26,0.6,0.6,0,0,1-.41-0.22l-0.05-.05-0.15-.15c-0.03-.04-0.07-0.07-0.1-0.11a0.555,0.555,0,0,1-.29-0.41,1,1,0,0,1,.39-0.56l0.12-.12,0.08-.08,0.08-.08A0.435,0.435,0,0,1,1475.93,1843.03Z" transform="translate(-1390.06 -1776.03)"/>
</svg>
