<svg xmlns="http://www.w3.org/2000/svg" width="92.94" height="54.97" viewBox="0 0 92.94 54.97">
  <defs>
    <style>
      .cls-1 {
        fill: #c4856a;
        fill-rule: evenodd;
      }
    </style>
  </defs>
  <path id="scissors" class="cls-1" d="M2734.01,1600.8a1.348,1.348,0,0,1-.99.32h-0.16c-0.53.01-1.05-.02-1.58-0.04-0.1-.01-0.2-0.01-0.3-0.02-0.28-.01-0.55-0.03-0.82-0.04-0.29-.02-0.58-0.03-0.86-0.05-0.53-.02-1.05-0.05-1.57-0.08-0.55-.02-1.09-0.05-1.64-0.08-0.92-.05-1.85-0.09-2.77-0.14-0.3-.02-0.6-0.03-0.91-0.05l-3.95-.21a2.715,2.715,0,0,1-.29-0.01c-0.47-.03-0.95-0.05-1.42-0.08l-2.41-.12c-0.13,0-.25-0.01-0.38-0.02-0.21-.01-0.43-0.02-0.65-0.02a15.249,15.249,0,0,1-5.15-1.49c-0.25-.11-0.5-0.21-0.76-0.32-0.44-.18-0.88-0.36-1.32-0.55-1.18-.49-2.37-0.99-3.56-1.48-0.06-.02-0.12-0.05-0.19-0.08q-4.41-1.83-8.83-3.63c-0.38-.16-0.76-0.31-1.13-0.47-0.61-.25-1.21-0.49-1.81-0.74-0.22-.09-0.44-0.18-0.65-0.27-0.55-.22-1.09-0.44-1.64-0.66-0.31-.13-0.62-0.25-0.92-0.38-0.22-.09-0.43-0.18-0.65-0.27l-0.3-.12a2.368,2.368,0,0,0-1.74-.25,1.009,1.009,0,0,0-.15.07,6.819,6.819,0,0,1-.68.25c-0.3.1-.59,0.2-0.89,0.3-0.35.12-.7,0.24-1.05,0.35-0.37.12-.74,0.25-1.1,0.37-0.88.3-.88,0.3-1.28,0.43-0.3.09-.59,0.19-0.88,0.29-0.35.13-.7,0.24-1.05,0.36-0.37.11-.74,0.24-1.1,0.37-0.88.29-.88,0.29-1.28,0.42-0.3.1-.59,0.2-0.88,0.3-0.35.12-.7,0.24-1.05,0.35-0.37.12-.74,0.25-1.1,0.37-0.55.19-1.1,0.37-1.65,0.55-0.14.04-.27,0.09-0.41,0.13-0.11.03-.21,0.07-0.32,0.1a2.109,2.109,0,0,0,.42.56,1.661,1.661,0,0,1,.14.13c0.06,0.05.11,0.09,0.16,0.14a10.213,10.213,0,0,1,3.26,7.03,10.828,10.828,0,0,1-2.95,7.67,10.258,10.258,0,0,1-6.96,3.04,10.477,10.477,0,0,1-5.28-1.31,21.115,21.115,0,0,0-5.66-2.3c-0.06-.01-0.13-0.03-0.19-0.04a10.641,10.641,0,0,0-5.14.03c-0.08.02-.17,0.05-0.26,0.07a8.488,8.488,0,0,0-4.1,3.16c-1,1.25-1,1.25-1.47,1.4a2.29,2.29,0,0,1-.47-0.2,5.5,5.5,0,0,1,1.56-3.85,10.749,10.749,0,0,1,4.33-3.27c0.12-.05.12-0.05,0.25-0.1a7.988,7.988,0,0,1,3.07-.38,4.706,4.706,0,0,0,2.53-.53,2.3,2.3,0,0,0,.39-1.86,10.045,10.045,0,0,1,.16-2.95,1.462,1.462,0,0,0,.05-0.2,10.062,10.062,0,0,1,4.16-6.29,22.242,22.242,0,0,1,2.17-1.12c0.19-.08.37-0.17,0.56-0.26,0.46-.22.93-0.41,1.4-0.59l0.3-.12c0.21-.09.42-0.17,0.64-0.26,0.34-.13.67-0.26,1.01-0.4l2.34-.93c0.71-.28,1.43-0.56,2.14-0.85,0.34-.13.67-0.27,1.01-0.4,0.21-.08.42-0.17,0.63-0.25a2.488,2.488,0,0,1,.29-0.11c0.61-.25.61-0.25,1.21-0.52,0.44-.22.9-0.4,1.37-0.58l0.3-.12c0.22-.09.44-0.17,0.65-0.26,0.35-.14.69-0.27,1.03-0.41l2.19-.87c0.79-.31,1.58-0.62,2.36-0.94,0.35-.13.69-0.27,1.03-0.41,0.21-.08.42-0.16,0.64-0.25,0.09-.04.19-0.08,0.29-0.12,0.14-.05.27-0.1,0.4-0.16a1.571,1.571,0,0,0,.23-0.09,0.51,0.51,0,0,0,.3-0.18c0.04,0.02.09,0.04,0.13,0.06,0.03-.03.07-0.06,0.1-0.09a1.88,1.88,0,0,1,.54-0.29,2.6,2.6,0,0,0,.25-0.1c0.09-.03.18-0.07,0.27-0.1s0.19-.08.29-0.12c0.2-.08.4-0.16,0.61-0.24,0.32-.13.65-0.26,0.97-0.38,0.51-.21,1.03-0.41,1.54-0.62,0.92-.36,1.84-0.72,2.75-1.09,0.32-.13.65-0.25,0.97-0.38l0.6-.24c0.14-.05.27-0.11,0.41-0.16,0.41-.17.82-0.34,1.22-0.54,0.35-.16.7-0.29,1.06-0.44l0.39-.15c0.14-.06.28-0.11,0.43-0.17,0.29-.12.58-0.23,0.88-0.35,0.67-.27,1.35-0.54,2.02-0.81,0.62-.24,1.25-0.49,1.87-0.73,0.29-.12.58-0.24,0.87-0.35,0.14-.06.27-0.11,0.41-0.17,0.17-.06.34-0.13,0.5-0.19,0.4-.16.79-0.33,1.17-0.52,0.29-.14.58-0.25,0.88-0.37l0.2-.08c0.22-.09.45-0.18,0.67-0.27,0.11-.04.11-0.04,0.23-0.09,0.4-.16.8-0.32,1.21-0.49s0.82-.33,1.24-0.49l0.96-.39c0.15-.06.3-0.12,0.46-0.18a17.634,17.634,0,0,1,2.66-.88,1.742,1.742,0,0,1,.22-0.05,40.12,40.12,0,0,1,8.04-.76c0.7-.03,1.4-0.07,2.11-0.11,0.81-.05,1.63-0.1,2.44-0.13,0.52-.01,1.04-0.04,1.56-0.06l0.22-.02c0.15,0,.3-0.01.45-0.02,1.22-.06,2.44-0.11,3.66-0.14,0.41-.01.81-0.03,1.22-0.04,0.18-.01.35-0.01,0.53-0.02,0.11,0,.22-0.01.33-0.01,1.5-.07,1.5-0.07,2.13.29a0.712,0.712,0,0,1,.12.45,2.116,2.116,0,0,1-1.15,1.07,19.784,19.784,0,0,1-2.07.76l-0.45.15c-0.08.03-.16,0.06-0.23,0.08a2.25,2.25,0,0,1-.24.08c-0.49.17-.97,0.33-1.46,0.49-0.37.12-.74,0.25-1.11,0.37-0.48.17-.97,0.33-1.46,0.49-0.37.12-.74,0.25-1.1,0.37-0.88.3-.88,0.3-1.28,0.43-0.3.09-.59,0.19-0.88,0.29-0.35.13-.7,0.24-1.05,0.35-0.37.12-.74,0.25-1.1,0.38-0.88.29-.88,0.29-1.28,0.42-0.3.1-.59,0.2-0.88,0.3-0.35.12-.7,0.24-1.05,0.35-0.37.12-.74,0.24-1.1,0.37-0.49.17-.97,0.33-1.46,0.49-0.37.12-.74,0.24-1.11,0.37-0.23.08-.46,0.15-0.69,0.23-0.15.05-.31,0.11-0.46,0.16-0.41.14-.82,0.27-1.23,0.41-0.37.12-.74,0.24-1.1,0.37-0.49.16-.98,0.33-1.47,0.49-0.37.12-.73,0.24-1.1,0.37-0.87.3-.87,0.3-1.28,0.42l-1.14.39c-0.26.09-.52,0.17-0.78,0.26-0.23.07-.47,0.15-0.7,0.23-0.35.13-.69,0.24-1.04,0.35-0.24.08-.47,0.16-0.7,0.24-0.35.12-.7,0.24-1.05,0.35-0.37.12-.74,0.25-1.11,0.37-0.87.3-.87,0.3-1.27,0.43-0.38.12-.76,0.25-1.14,0.38-0.26.09-.52,0.18-0.78,0.26-0.33.11-.65,0.22-0.97,0.33a4.344,4.344,0,0,1-.48.14,0.418,0.418,0,0,0-.36.24l0.18,0.06q9.54,3.225,19.06,6.48c0.43,0.14.86,0.29,1.29,0.44a0.784,0.784,0,0,1,.14.05c1.55,0.53,3.11,1.06,4.66,1.59q2.415,0.81,4.83,1.64c1.03,0.35,2.07.71,3.1,1.06,0.67,0.23,1.34.46,2.01,0.68,0.39,0.14.78,0.27,1.16,0.4,0.36,0.12.71,0.24,1.06,0.36,0.13,0.05.26,0.09,0.39,0.13,0.17,0.06.35,0.12,0.52,0.18,0.05,0.02.1,0.03,0.15,0.05a2.063,2.063,0,0,1,.8.49A0.984,0.984,0,0,1,2734.01,1600.8Zm-64.9.91-0.06-.18a5.5,5.5,0,0,0-2.66-2.99,5.841,5.841,0,0,0-4.56-.35,1.209,1.209,0,0,0-.18.05,5.63,5.63,0,0,0-2.24,1.57c-0.05.05-.1,0.11-0.15,0.16a5.894,5.894,0,0,0-1.24,4.16,8.515,8.515,0,0,0,.29,1.33,1.209,1.209,0,0,1,.05.18,5.608,5.608,0,0,0,2.58,2.93c0.17,0.08.33,0.16,0.5,0.23l0.18,0.08a5.72,5.72,0,0,0,1.73.39,1.361,1.361,0,0,0,.21.02,5.817,5.817,0,0,0,3.95-1.43A5.759,5.759,0,0,0,2669.11,1601.71Zm13.25-19.5a1.115,1.115,0,0,1-.75.53,8.1,8.1,0,0,0-.92.38c-0.5.24-1.03,0.44-1.55,0.64-0.49.19-.97,0.39-1.45,0.62a4.428,4.428,0,0,1-3.19.41c-0.15-.05-0.3-0.11-0.45-0.17a1.122,1.122,0,0,0-.13-0.05c-0.14-.06-0.29-0.12-0.43-0.18-0.1-.04-0.21-0.08-0.31-0.13-0.28-.11-0.56-0.22-0.84-0.34-0.24-.1-0.48-0.19-0.72-0.29-0.57-.23-1.13-0.47-1.7-0.7-0.51-.21-1.02-0.41-1.53-0.62-2.46-1.01-4.92-2.01-7.36-3.05l-0.57-.24a10.971,10.971,0,0,1-6.02-5.44c-0.03-.06-0.07-0.12-0.1-0.19a9.688,9.688,0,0,1-.67-5.87c0.01-.05.01-0.09,0.02-0.14a10.035,10.035,0,0,1,2.04-4.47,1.741,1.741,0,0,0,.12-0.14,10.163,10.163,0,0,1,3.93-2.9c0.05-.02.1-0.04,0.16-0.07a10.244,10.244,0,0,1,4.58-.72c0.08,0,.16.01,0.24,0.01a9.594,9.594,0,0,1,5.14,2.07l0.13,0.1a10.593,10.593,0,0,1,3.09,4.27,2,2,0,0,1,.1.21,9.938,9.938,0,0,1,.4,6.12,1.554,1.554,0,0,0-.05.23,10.8,10.8,0,0,1-3.51,5.21,0.459,0.459,0,0,0-.24.3,16.815,16.815,0,0,0,1.67.63c0.11,0.03.21,0.07,0.31,0.1,0.21,0.07.43,0.15,0.65,0.22,0.34,0.11.68,0.22,1.03,0.34,0.54,0.18,1.09.36,1.63,0.54,0.97,0.32,1.95.64,2.92,0.96,0.34,0.12.68,0.23,1.02,0.34,0.21,0.07.43,0.14,0.64,0.21,0.1,0.04.19,0.07,0.29,0.1,0.31,0.1.63,0.21,0.94,0.31a0.88,0.88,0,0,0,.15.05c0.16,0.06.32,0.11,0.48,0.16a0.661,0.661,0,0,0,.15.05,1,1,0,0,1,.62.5A0.418,0.418,0,0,0,2682.36,1582.21Zm-13.37-16.19a5.774,5.774,0,0,0-2.58-2.59c-0.04-.03-0.09-0.05-0.14-0.08a5.987,5.987,0,0,0-4.68-.09,5.859,5.859,0,0,0-3.02,3.02,5.787,5.787,0,0,0-.44,2.53c0.01,0.08.01,0.16,0.02,0.24a5.675,5.675,0,0,0,1.87,3.74,6.034,6.034,0,0,0,4.41,1.44,6.107,6.107,0,0,0,4.04-2.34A5.986,5.986,0,0,0,2668.99,1566.02Z" transform="translate(-2641.28 -1559.06)"/>
</svg>
